<ttFont>
<head>
    <!-- Most of this table will be recalculated by the compiler -->
    <tableVersion value="1.0"/>
    <fontRevision value="2.004"/>
    <checkSumAdjustment value="0x99e698e2"/>
    <magicNumber value="0x5f0f3cf5"/>
    <flags value="00000000 00000011"/>
    <unitsPerEm value="1000"/>
    <created value="Thu Oct  8 09:58:12 2009"/>
    <modified value="Thu Oct  8 09:58:12 2009"/>
    <xMin value="-430"/>
    <yMin value="-290"/>
    <xMax value="1417"/>
    <yMax value="1127"/>
    <macStyle value="00000000 00000000"/>
    <lowestRecPPEM value="3"/>
    <fontDirectionHint value="2"/>
    <indexToLocFormat value="0"/>
    <glyphDataFormat value="0"/>
  </head>
          <CharString index="0">
            717 hmoveto
            31 -18 vlineto
            -60 -14 7 33 -11 hvcurveto
            -216 625 rlineto
            13 -5 -2 7 -16 hhcurveto
            -16 -3 -6 -14 -5 hvcurveto
            -207 -598 -18 -51 -40 -15 -54 -1 rlinecurve
            -31 vlineto
            102 3 115 16 callsubr
            -50 -25 25 26 3 1 10 1 2 hvcurveto
            46 131 rlineto
            247 hlineto
            53 -153 rlineto
            1 -4 2 -6 -4 vvcurveto
            -30 -56 0 -27 vhcurveto
            -31 vlineto
            3 36 70 0 38 hhcurveto
            -128 256 rmoveto
            -225 hlineto
            112 325 rlineto
            return
          </CharString>
          <CharString index="1">
            483 89 rmoveto
            56 -25 -56 vlineto
            -58 -25 -6 -11 -33 -4 45 5 vhcurveto
            200 vlineto
            42 0 39 -36 37 vhcurveto
            39 -39 -50 16 -48 hhcurveto
            -82 -69 -47 -66 -30 20 -17 26 28 18 20 26 12 -5 33 -46 1 hvcurveto
            35 27 49 11 32 hhcurveto
            49 57 -39 -89 hvcurveto
            -37 vlineto
            -51 -3 -70 -3 -63 -30 rrcurveto
            -75 -34 -25 -52 -44 vvcurveto
            return
          </CharString>
          <CharString index="2">
            652 258 rmoveto
            -25 hlineto
            -154 -25 -23 -73 -172 hhcurveto
            -133 hlineto
            -47 -2 7 33 hvcurveto
            267 90 vlineto
            97 11 -32 -85 hvcurveto
            25 265 -25 hlineto
            -86 -11 -31 -97 vhcurveto
            -90 240 hlineto
            33 2 7 47 vhcurveto
            129 hlineto
            153 27 -55 -139 72 callsubr
            -563 -69 callgsubr
            577 hlineto
            return
          </CharString>
          <CharString index="3">
            69 callgsubr
            -8 2 -5 -9 -2 -6 -8 -2 vhcurveto
            -103 -35 -90 0 -10 hhcurveto
            -50 -40 30 37 -23 hvcurveto
            -30 48 0 66 36 vvcurveto
            279 147 callgsubr
            99 -54 97 78 callsubr
            -92 -103 -125 -134 105 -97 115 122 45 74 callsubr
            -237 hlineto
            149 6 84 25 34 hhcurveto
            103 10 -135 -39 hvcurveto
            return
          </CharString>
          <CharString index="4">
            -20 -102 callgsubr
            return
          </CharString>
          <CharString index="5">
            -104 callgsubr
            hintmask 00011000
            return
          </CharString>
          <CharString index="6">
            rmoveto
            22 4 -17 20 -22 hhcurveto
            -12 -10 -8 -4 -4 hvcurveto
            -145 -130 14 -21 170 94 11 5 9 10 2 12 rlinecurve
            endchar
          </CharString>
          <CharString index="7">
            24 -21 23 -27 -31 -18 -25 -22 -25 21 -23 27 31 18 25 23 vhcurveto
            return
          </CharString>
          <CharString index="8">
            rmoveto
            -94 callsubr
            endchar
          </CharString>
          <CharString index="9">
            rmoveto
            -22 hlineto
            -87 -2 -66 -47 -59 hhcurveto
            -63 -63 49 85 -2 hvcurveto
            -22 hlineto
            -108 2 73 -64 74 hhcurveto
            78 70 67 105 2 hvcurveto
            return
          </CharString>
          <CharString index="10">
            333 hmoveto
            31 -26 vlineto
            -79 -3 20 callsubr
            3 11 79 vhcurveto
            26 31 hlineto
            108 callgsubr
            79 3 144 callsubr
            -3 -11 -79 vhcurveto
            -26 96 callsubr
            79 0 38 hhcurveto
            39 79 0 -3 35 hvcurveto
            return
          </CharString>
          <CharString index="11">
            rmoveto
            48 -18 31 -30 -26 -14 -20 -20 -19 13 -20 27 11 11 4 8 8 vhcurveto
            1 -60 -21 -45 -33 -36 rrcurveto
            -4 -4 -1 -1 -3 vvcurveto
            -5 4 -3 4 9 59 59 86 vhcurveto
            endchar
          </CharString>
          <CharString index="12">
            -20 -94 callgsubr
            return
          </CharString>
          <CharString index="13">
            27 -23 26 -30 -34 -20 -28 -25 -27 23 -26 30 34 20 28 25 vhcurveto
            return
          </CharString>
          <CharString index="14">
            716 652 rmoveto
            31 vlineto
            -117 -3 -117 3 -26 callgsubr
            103 0 -47 -27 hvcurveto
            -427 vlineto
            -353 519 rlineto
            12 -9 -1 1 -19 hhcurveto
            -170 -31 29 hlineto
            15 20 -1 -1 15 hvcurveto
            23 -3 1 -1 -19 vvcurveto
            -522 vlineto
            -27 0 -47 -103 vhcurveto
            -31 vlineto
            117 3 117 16 callsubr
            -103 0 47 27 hvcurveto
            520 vlineto
            5 -5 1 -1 4 -6 408 -600 rcurveline
            -12 9 1 -1 7 hhcurveto
            14 0 7 19 hvcurveto
            552 vlineto
            27 0 47 103 vhcurveto
            return
          </CharString>
          <CharString index="15">
            716 hmoveto
            31 -24 vlineto
            -77 -2 11 36 hvcurveto
            527 -97 callgsubr
            -234 -299 234 -97 callgsubr
            -527 -70 callsubr
            262 299 -262 -79 callsubr
            return
          </CharString>
          <CharString index="16">
            47 callsubr
            hintmask 11001100
            -100 callgsubr
            hintmask 00110000
            return
          </CharString>
          <CharString index="17">
            -10 callsubr
            hintmask 1111001111000000
            -105 callsubr
            return
          </CharString>
          <CharString index="18">
            rmoveto
            18 -18 18 -18 -15 -11 -11 -6 -4 vhcurveto
            -120 -153 17 -18 152 122 rlineto
            9 7 8 11 12 vvcurveto
            endchar
          </CharString>
          <CharString index="19">
            -20 -90 callgsubr
            return
          </CharString>
          <CharString index="20">
            -84 callsubr
            hintmask 0000011000000000
            return
          </CharString>
          <CharString index="21">
            720 339 rmoveto
            95 -33 93 -64 71 vhcurveto
            -8 9 -9 8 -8 8 rrcurveto
            41 12 28 43 48 vvcurveto
            33 -22 30 109 callsubr
            5 4 94 callsubr
            -19 -16 -23 -5 rrcurveto
            39 -54 -65 23 -67 hhcurveto
            -90 -85 -40 -67 -60 hvcurveto
            -64 -71 -34 -93 -95 vvcurveto
            -95 34 -91 64 -69 vhcurveto
            -66 61 84 -40 90 hhcurveto
            89 85 40 66 61 hvcurveto
            64 69 33 91 95 vvcurveto
            -103 16 rmoveto
            -87 -13 -90 -48 -73 vhcurveto
            -58 -38 -61 -43 -69 hhcurveto
            -70 -60 43 58 -39 hvcurveto
            -48 73 -13 90 87 vvcurveto
            82 14 83 47 66 vhcurveto
            56 40 61 38 68 hhcurveto
            68 61 -38 -56 39 hvcurveto
            47 -66 14 -83 -82 vvcurveto
            return
          </CharString>
          <CharString index="22">
            -147 -82 callsubr
            -178 vlineto
            -87 -48 -68 -73 -84 -4 47 52 vhcurveto
            hintmask 0000100100000000
            332 vlineto
            hintmask 1011000100000000
            9 callgsubr
            78 0 -3 -89 hvcurveto
            -150 vlineto
            -78 0 -91 152 56 44 28 62 29 vhcurveto
            -90 vlineto
            hintmask 0100000000000000
            return
          </CharString>
          <CharString index="23">
            40 callsubr
            hintmask 0100100010000000
            -46 callsubr
            hintmask 1011000110000000
            -85 callsubr
            return
          </CharString>
          <CharString index="24">
            -15 -28 -30 -18 -34 -5 rrcurveto
            48 vlineto
            hintmask 0001000000000000
            -2 -5 -5 -1 -5 hhcurveto
            hintmask 1100100010110000
            -118 3 rlineto
            -30 vlineto
            27 27 -2 -14 23 hvcurveto
            16 -11 10 -18 -19 vvcurveto
            -361 vlineto
            -59 -19 -56 -37 -42 vhcurveto
            -40 -36 -49 -23 -53 hhcurveto
            -47 -46 24 38 -29 hvcurveto
            -31 41 -11 52 65 vvcurveto
            hintmask 0011000010000000
            389 vlineto
            12 6 13 12 5 vhcurveto
            6 17 39 0 29 hhcurveto
            hintmask 0000100000000000
            30 vlineto
            hintmask 0001000001000000
            -147 -3 rlineto
            hintmask 0010100010000000
            -147 3 rlineto
            -30 vlineto
            29 39 0 -6 18 hvcurveto
            11 -5 6 -13 -12 vvcurveto
            -389 vlineto
            hintmask 1100000001010000
            -67 26 -63 48 -47 vhcurveto
            -47 47 65 -26 66 hhcurveto
            61 57 27 46 41 hvcurveto
            43 48 22 63 66 vvcurveto
            382 vlineto
            62 7 52 46 62 vvcurveto
            return
          </CharString>
          <CharString index="25">
            16 callgsubr
            70 8 -7 -49 hvcurveto
            return
          </CharString>
          <CharString index="26">
            vlineto
            -77 callsubr
            return
          </CharString>
          <CharString index="27">
            -140 16 callgsubr
            65 9 -6 -49 hvcurveto
            -269 -81 callsubr
            110 3 rlineto
            35 35 -2 -1 34 hvcurveto
            return
          </CharString>
          <CharString index="28">
            vlineto
            -72 callsubr
            return
          </CharString>
          <CharString index="29">
            rmoveto
            -40 -24 -18 -39 -38 -25 17 41 40 24 18 39 38 25 -17 -41 vhcurveto
            33 1 rmoveto
            46 -41 41 -54 -58 -39 -43 -44 -51 44 -38 51 56 41 40 49 vhcurveto
            return
          </CharString>
          <CharString index="30">
            -45 -11 0 -67 vhcurveto
            -31 vlineto
            return
          </CharString>
          <CharString index="31">
            -141 -82 callsubr
            -268 -54 callgsubr
            return
          </CharString>
          <CharString index="32">
            104 71 56 64 63 11 -54 -57 vhcurveto
            -233 -6 callsubr
            return
          </CharString>
          <CharString index="33">
            rmoveto
            -145 130 rlineto
            4 -4 -10 8 -12 hhcurveto
            -22 -17 -20 -22 4 hvcurveto
            2 -12 9 -10 11 -5 170 -94 rcurveline
            endchar
          </CharString>
          <CharString index="34">
            -36 -2 -11 -77 vhcurveto
            -24 return
          </CharString>
          <CharString index="35">
            -61 callsubr
            35 74 0 38 hhcurveto
            38 75 0 -3 35 hvcurveto
            return
          </CharString>
          <CharString index="36">
            -101 callgsubr
            181 return
          </CharString>
          <CharString index="37">
            -79 callsubr
            -15 callgsubr
            return
          </CharString>
          <CharString index="38">
            -91 callgsubr
            -36 174 rmoveto
            -14 -21 -170 94 -11 5 -9 10 -2 12 rlinecurve
            22 -4 17 20 22 hhcurveto
            12 10 -8 -4 4 hvcurveto
            endchar
          </CharString>
          <CharString index="39">
            -50 callgsubr
            194 hmoveto
            -56 callgsubr
          </CharString>
          <CharString index="40">
            69 callgsubr
            -10 0 -3 -9 -2 -4 -6 -2 vhcurveto
            -93 -29 -65 -12 -37 hhcurveto
            -53 -88 43 161 163 82 42 53 9 63 -1 -36 35 hvcurveto
            -41 -3 -6 -30 -13 vvcurveto
            -26 18 -20 28 26 20 17 30 68 -76 39 -77 -125 -92 -108 -124 return
          </CharString>
          <CharString index="41">
            874 258 rmoveto
            -25 hlineto
            -148 -25 -13 -79 -168 hhcurveto
            -95 hlineto
            -47 -2 7 33 hvcurveto
            242 85 vlineto
            94 9 -33 -84 143 callgsubr
            -9 -33 -94 vhcurveto
            -85 268 hlineto
            33 2 7 47 vhcurveto
            95 hlineto
            142 20 -58 -136 72 callsubr
            -560 -31 45 hlineto
            13 14 -1 13 hhcurveto
            -198 -553 rlineto
            -39 -14 -29 -28 -70 hhcurveto
            -31 vlineto
            1 22 40 2 40 hhcurveto
            115 16 callsubr
            -50 1 -24 24 25 vvcurveto
            8 0 1 5 13 vhcurveto
            75 210 rlineto
            161 -237 hlineto
            -45 -11 0 -66 vhcurveto
            -31 493 vlineto
            -416 344 rmoveto
            -150 hlineto
            109 304 rlineto
            41 -1 0 -27 -16 vvcurveto
            return
          </CharString>
          <CharString index="42">
            rmoveto
            492 vlineto
            -152 16 callgsubr
            77 9 -7 -49 hvcurveto
            -396 vlineto
            -45 -9 -86 -64 -5 -23 0 13 -26 vhcurveto
            15 4 20 14 27 vvcurveto
            26 -18 20 -28 -28 -18 -20 -26 -52 56 -28 57 75 62 64 91 vhcurveto
            return
          </CharString>
          <CharString index="43">
            488 473 rmoveto
            33 -21 30 -31 -36 -17 -26 -27 -26 17 -27 36 4 5 94 callsubr
            -20 -16 -24 -5 rrcurveto
            36 -39 -52 21 -54 hhcurveto
            -59 -57 -25 -44 -41 hvcurveto
            -42 -44 -22 -60 -62 vvcurveto
            -59 23 -57 41 -42 vhcurveto
            -41 42 56 -24 59 hhcurveto
            return
          </CharString>
          <CharString index="44">
            22 -4 82 -16 -72 vvcurveto
            -51 -35 -40 -78 -84 -36 57 85 -19 vhcurveto
            13 -3 -1 4 -10 hhcurveto
            -13 0 -7 -18 hvcurveto
            -132 vlineto
            -17 0 -7 11 5 1 1 19 19 vhcurveto
            2 2 0 2 18 19 rrcurveto
            -42 44 45 -1 21 hhcurveto
            115 46 67 72 hvcurveto
            return
          </CharString>
          <CharString index="45">
            401 187 rmoveto
            -25 hlineto
            -118 -9 -21 -44 -116 hhcurveto
            -118 hlineto
            278 376 rlineto
            9 11 0 2 4 vvcurveto
            13 -8 0 -18 vhcurveto
            -320 hlineto
            -11 -161 rlineto
            25 hlineto
            102 6 19 37 110 hhcurveto
            114 hlineto
            -279 -377 rlineto
            -9 -11 0 -2 -5 vvcurveto
            -14 7 0 19 vhcurveto
            330 hlineto
            return
          </CharString>
          <CharString index="46">
            -1 callsubr
            hlineto
            3 return
          </CharString>
          <CharString index="47">
            -20 hstemhm
            110 69 -38 97 81 97 -28 69 hintmask 0100100000010000
            -46 callsubr
            hintmask 1011000010010000
            -147 -82 callsubr
            -178 vlineto
            -87 -48 -68 -73 -84 -4 47 52 vhcurveto
            hintmask 0000100010000000
            332 vlineto
            hintmask 1011000010000000
            9 callgsubr
            78 0 -3 -89 hvcurveto
            -150 vlineto
            -78 0 -91 152 56 44 28 62 29 vhcurveto
            -90 vlineto
            hintmask 0100000000000000
            hintmask 0000011101100000
            -5 callsubr
            return
          </CharString>
          <CharString index="48">
            -64 callgsubr
            -524 vlineto
            -73 callsubr
            return
          </CharString>
          <CharString index="49">
            rmoveto
            -10 16 -140 -66 -140 66 -12 -16 151 -117 rlineto
            endchar
          </CharString>
          <CharString index="50">
            44 9 30 45 50 vvcurveto
            -101 -249 rmoveto
            -53 -2 -55 -29 -44 vhcurveto
            -36 -23 -41 -22 -43 hhcurveto
            -43 -41 22 36 -23 hvcurveto
            -30 44 -1 55 53 vvcurveto
            50 2 53 29 41 vhcurveto
            36 24 40 21 43 hhcurveto
            43 40 -21 -36 24 hvcurveto
            return
          </CharString>
          <CharString index="51">
            rmoveto
            -243 hlineto
            -122 -2 13 19 -4 hvcurveto
            -25 hlineto
            -33 -206 rlineto
            25 hlineto
            3 16 9 63 13 12 rrcurveto
            6 7 78 0 13 hhcurveto
            207 hlineto
            -112 -158 rlineto
            -90 -135 -33 -139 -102 vvcurveto
            -10 0 -45 46 46 0 45 10 vhcurveto
            51 vlineto
            55 3 55 8 54 vhcurveto
            4 23 14 86 44 62 135 190 rcurveline
            9 12 0 2 21 vvcurveto
            endchar
          </CharString>
          <CharString index="52">
            rmoveto
            -13 14 -139 -108 -139 108 -13 -14 152 -162 rlineto
            endchar
          </CharString>
          <CharString index="53">
            -88 callgsubr
            -78 return
          </CharString>
          <CharString index="54">
            -11 callsubr
            194 hmoveto
            -71 callgsubr
            endchar
          </CharString>
          <CharString index="55">
            -91 callgsubr
            endchar
          </CharString>
          <CharString index="56">
            -81 97 -25 63 66 46 40 47 19 vhcurveto
            return
          </CharString>
          <CharString index="57">
            1014 -22 22 0 31 308 31 282 31 0 22 hstemhm
            70 100 344 76 222 25 95 25 3 25 hintmask 0111001111000000
            985 258 rmoveto
            -25 hlineto
            -149 -25 -15 -78 -171 hhcurveto
            -110 hlineto
            -47 -2 7 33 hvcurveto
            268 108 vlineto
            100 14 -31 -86 hvcurveto
            25 265 -25 hlineto
            -86 -14 -31 -100 vhcurveto
            -108 242 hlineto
            33 2 7 47 vhcurveto
            112 hlineto
            143 22 -59 -135 72 callsubr
            -373 hlineto
            -17 -14 0 12 -55 hvcurveto
            hintmask 1010111001000000
            10 -42 -17 0 -11 hhcurveto
            -172 -158 -155 -211 -209 158 -152 172 25 17 3 8 37 hvcurveto
            11 48 13 0 16 hhcurveto
            387 hlineto
            -429 341 rmoveto
            -127 0 -59 -4 -46 vhcurveto
            -66 -7 -15 -43 -84 hhcurveto
            -129 -105 156 198 190 108 139 126 88 11 -48 -57 6 hvcurveto
            5 -44 0 -85 -108 vvcurveto
            endchar
          </CharString>
          <CharString index="58">
            29 -24 24 -29 -29 -24 -24 -29 -29 24 -24 29 29 24 24 29 vhcurveto
            return
          </CharString>
          <CharString index="59">
            -81 callsubr
            114 3 rlineto
            40 47 0 -3 40 118 callgsubr
            -74 18 callsubr
            return
          </CharString>
          <CharString index="60">
            738 652 106 callgsubr
            -31 -40 -1 -27 hhcurveto
            -115 3 -26 callgsubr
            41 16 -19 -20 -11 -6 -13 -4 -6 hvcurveto
            return
          </CharString>
          <CharString index="61">
            535 73 callgsubr
            355 vlineto
            return
          </CharString>
          <CharString index="62">
            500 -11 22 -17 31 263 90 48 22 return
          </CharString>
          <CharString index="63">
            681 0 -27 callgsubr
            return
          </CharString>
          <CharString index="64">
            7 rmoveto
            119 -82 100 -108 -48 -43 -16 -35 -36 vhcurveto
            195 vlineto
            hintmask 0000100001001000
            -6 20 33 -7 32 hhcurveto
            123 70 91 13 6 -3 5 -7 hvcurveto
            hintmask 0000100100000000
            0 -3 0 -5 -3 vhcurveto
            -9 -20 -49 -20 -67 hhcurveto
            hintmask 0000001000000000
            -40 -46 7 21 -47 hvcurveto
            hintmask 0000000010100000
            -8 3 -4 0 0 vvcurveto
            hintmask 0000000100010000
            -10 0 -8 -16 hvcurveto
            -296 vlineto
            -18 0 -8 14 vhcurveto
            hintmask 1011000000001100
            7 2 3 6 4 hvcurveto
            16 11 37 54 81 hhcurveto
            52 25 -46 -18 8 hvcurveto
            16 -37 2 -39 -50 vvcurveto
            -35 0 -60 -24 -42 vhcurveto
            -39 -24 -37 -26 -46 hhcurveto
            -73 -57 53 59 -17 hvcurveto
            hintmask 1100000000100000
            -1 3 3 -1 11 hhcurveto
            33 17 25 24 24 -17 25 -33 -14 -35 -7 -46 -86 69 -97 112 hvcurveto
            hintmask 0010000000000100
            116 102 96 127 hvcurveto
            endchar
          </CharString>
          <CharString index="65">
            722 0 65 618 22 hstemhm
            56 103 49 29 -4 29 197 29 74 103 hintmask 11101110
            677 162 rmoveto
            -25 hlineto
            -5 -26 -4 -23 -9 -24 rrcurveto
            -16 -5 -3 -8 -58 hhcurveto
            -80 hlineto
            13 56 31 48 45 66 rrcurveto
            47 71 41 69 79 vvcurveto
            139 -135 112 -169 -172 -133 -114 -137 -79 41 -69 47 -71 vhcurveto
            44 -66 32 -48 13 -56 rrcurveto
            -80 hlineto
            -58 -3 8 15 -5 hvcurveto
            -8 23 -5 26 -5 25 rrcurveto
            -25 hlineto
            33 -162 rlineto
            hintmask 10010000
            160 hlineto
            hintmask 00001000
            22 3 0 21 hvcurveto
            hintmask 11110110
            70 -31 88 -23 64 vhcurveto
            -21 58 -28 79 75 vvcurveto
            160 110 68 91 96 106 -72 -156 -75 -27 -76 -29 -82 vhcurveto
            -15 -42 -32 -90 -69 vvcurveto
            -21 3 0 23 vhcurveto
            159 hlineto
            endchar
          </CharString>
          <CharString index="66">
            778 -35 -21 34 22 683 22 34 -20 hstemhm
            56 89 431 89 -33 89 hintmask 11111100
            721 339 rmoveto
            124 -50 91 -75 70 vhcurveto
            69 101 -21 14 -68 -97 rlineto
            0 -2 0 -5 5 vhcurveto
            15 -24 -63 43 -94 hhcurveto
            -179 -153 -160 -206 -149 80 -95 44 -37 hvcurveto
            -60 -89 -8 -11 20 -14 68 96 rlineto
            -29 41 59 -33 88 hhcurveto
            hintmask 01101010
            182 151 159 202 hvcurveto
            -167 268 rmoveto
            -348 -510 rlineto
            -35 49 -26 65 128 vvcurveto
            56 3 99 49 78 vhcurveto
            75 47 74 36 70 hhcurveto
            92 55 -56 -20 19 hvcurveto
            78 -268 rmoveto
            -51 -2 -107 -56 -81 vhcurveto
            -62 -44 -69 -38 -72 hhcurveto
            -62 -61 27 49 -43 hvcurveto
            347 510 rlineto
            57 -76 5 -107 -64 vvcurveto
            endchar
          </CharString>
          <CharString index="67">
            -48 -30 -45 -22 -43 hhcurveto
            -45 -36 26 38 -24 hvcurveto
            -26 41 -3 57 41 vvcurveto
            37 2 60 29 45 vhcurveto
            31 21 38 33 54 hhcurveto
            35 42 -15 -45 31 hvcurveto
            11 -17 0 -2 -18 vvcurveto
            return
          </CharString>
          <CharString index="68">
            332 124 rmoveto
            57 -25 -55 vlineto
            -74 -30 -38 -37 -67 0 91 17 vhcurveto
            278 143 31 -143 184 vlineto
            return
          </CharString>
          <CharString index="69">
            247 hmoveto
            31 vlineto
            -66 -4 5 39 87 callgsubr
            return
          </CharString>
          <CharString index="70">
            111 95 94 132 hvcurveto
            -90 1 rmoveto
            -48 0 -50 -17 -36 vhcurveto
            -60 -30 -46 -5 -23 hhcurveto
            -63 -30 60 15 -6 hvcurveto
            -18 47 0 80 18 vvcurveto
            78 32 100 90 16 46 0 -62 31 vhcurveto
            18 -37 0 -51 -49 vvcurveto
            endchar
          </CharString>
          <CharString index="71">
            2 -2 3 -1 2 vhcurveto
            -64 64 -48 78 -30 86 rrcurveto
            4 -1 -4 2 -4 hhcurveto
            -2 hlineto
            -6 -4 -4 -6 hvcurveto
            0 0 -1 -1 vvcurveto
            18 -81 32 -77 44 -71 -44 -71 -32 -78 -18 -81 rrcurveto
            0 0 -1 -1 vvcurveto
            -6 4 -4 6 vhcurveto
            2 hlineto
            4 4 3 4 1 hvcurveto
            30 85 48 78 64 65 rrcurveto
            1 1 2 3 3 vvcurveto
            return
          </CharString>
          <CharString index="72">
            -108 -52 -72 -52 -20 -66 13 166 167 65 13 21 53 51 -74 -105 vhcurveto
            return
          </CharString>
          <CharString index="73">
            135 rmoveto
            269 -115 68 -89 -55 -49 -18 -45 -43 vhcurveto
            -41 -45 -23 -42 -75 vvcurveto
            -125 88 -98 112 61 41 42 58 23 vhcurveto
            -32 vlineto
            hintmask 1100000001000000
            -234 -104 -46 -58 -17 -54 2 34 -27 vhcurveto
            hintmask 0000000010000000
            44 8 29 17 hvcurveto
            hintmask 0100000001000000
            31 -24 15 -22 vhcurveto
            hintmask 1000100010000100
            -16 -30 -9 -39 -67 54 -41 85 129 122 136 215 hvcurveto
            -92 92 rmoveto
            hintmask 0010000000010000
            -83 -34 -97 -88 vhcurveto
            hintmask 0001000100100000
            -16 -46 0 63 -31 hvcurveto
            -18 37 0 50 49 vvcurveto
            hintmask 0000111000011000
            54 0 47 21 37 vhcurveto
            50 27 38 13 35 hhcurveto
            46 33 -34 -45 17 hvcurveto
            12 -32 4 -63 -46 vvcurveto
            endchar
          </CharString>
          <CharString index="74">
            -31 24 hlineto
            -64 callgsubr
            return
          </CharString>
          <CharString index="75">
            -31 callsubr
            -20 return
          </CharString>
          <CharString index="76">
            750 0 2 callgsubr
            return
          </CharString>
          <CharString index="77">
            vvcurveto
            -34 callgsubr
            -49 callgsubr
            return
          </CharString>
          <CharString index="78">
            rmoveto
            -49 callsubr
            return
          </CharString>
          <CharString index="79">
            155 callgsubr
            217 21 174 22 return
          </CharString>
          <CharString index="80">
            204 rmoveto
            127 -89 96 -111 -68 -37 -51 -48 -20 vhcurveto
            24 vlineto
            253 124 36 51 vhcurveto
            hintmask 0010000100000000
            24 42 -6 -34 22 hvcurveto
            hintmask 0010000010000000
            -15 -40 0 -45 -31 24 -15 22 16 30 9 39 hvcurveto
            hintmask 1001100100000000
            60 -44 48 -83 -128 -135 -129 -221 -267 116 -71 93 vhcurveto
            hintmask 1100011001000000
            -37 callsubr
          </CharString>
          <CharString index="81">
            -25 callsubr
            hintmask 11101010
            -58 -29 -86 -56 -99 vvcurveto
            -106 102 -67 105 113 95 83 107 vhcurveto
            -71 349 rmoveto
            -57 -39 -48 -60 -35 vhcurveto
            -124 80 rlineto
            -46 30 -4 34 17 vvcurveto
            61 65 42 71 vhcurveto
            hintmask 10100100
            73 64 -52 -72 hvcurveto
            21 -385 rmoveto
            -74 -75 -52 -82 -86 -72 62 83 58 32 64 85 47 vhcurveto
            123 -78 rlineto
            hintmask 00000010
            28 -19 47 -30 -61 vvcurveto
            endchar
          </CharString>
          <CharString index="82">
            168 rmoveto
            36 -11 45 -38 42 vhcurveto
            -19 21 -16 10 -64 40 rrcurveto
            72 37 49 52 66 vvcurveto
            92 -89 57 -91 -100 -81 -74 -93 -18 2 -45 42 -47 vhcurveto
            11 -12 37 -25 25 -17 rrcurveto
            return
          </CharString>
          <CharString index="83">
            -144 -82 callsubr
            -520 -81 callsubr
            109 3 110 -3 rlineto
            -55 callgsubr
            103 vlineto
            64 55 rlineto
            77 -106 42 -56 -18 vvcurveto
            -19 -17 -4 -19 vhcurveto
            -31 vlineto
            108 3 rlineto
            29 29 -1 -2 29 hvcurveto
            return
          </CharString>
          <CharString index="84">
            -374 -3 callsubr
            return
          </CharString>
          <CharString index="85">
            -33 callsubr
            -527 vlineto
            return
          </CharString>
          <CharString index="86">
            681 0 31 285 26 310 31 hstemhm
            35 103 0 86 3 103 191 103 hintmask 11110110
            624 497 rmoveto
            98 -99 88 -137 vhcurveto
            -353 -31 24 hlineto
            77 2 -11 -36 hvcurveto
            -527 -70 callsubr
            238 169 vlineto
            120 108 81 100 hvcurveto
            -103 hmoveto
            -47 0 -108 -159 vhcurveto
            hintmask 01101010
            -138 270 hlineto
            33 2 7 47 vhcurveto
            89 hlineto
            159 0 -106 -49 hvcurveto
            endchar
          </CharString>
          <CharString index="87">
            721 339 rmoveto
            204 67 callgsubr
            -182 -179 -153 -160 -206 -191 134 -149 162 -19 vhcurveto
            -31 -29 -23 -36 -36 55 callsubr
            9 18 14 16 hvcurveto
            6 6 7 7 7 6 rrcurveto
            181 151 159 202 hvcurveto
            -103 14 rmoveto
            -265 -137 -84 -92 -96 -134 88 261 259 146 68 83 87 143 -71 -256 vhcurveto
            return
          </CharString>
          <CharString index="88">
            22 -11 31 48 31 290 31 -31 42 return
          </CharString>
          <CharString index="89">
            49 31 66 13 36 hhcurveto
            41 55 -22 -90 -12 -2 -58 -26 -44 hvcurveto
            -30 -48 -34 -3 -25 -1 rrcurveto
            -1 -8 -24 -2 -7 hhcurveto
            -8 -1 -7 -1 -10 vvcurveto
            -11 7 0 17 vhcurveto
            44 hlineto
            82 37 -68 -98 -136 -69 -29 -44 -43 -75 17 59 -35 hvcurveto
            return
          </CharString>
          <CharString index="90">
            vlineto
            37 39 -9 -32 -41 -95 0 -75 hvcurveto
            -13 -26 26 hlineto
            108 133 0 67 return
          </CharString>
          <CharString index="91">
            136 89 198 25 151 25 3 25 return
          </CharString>
          <CharString index="92">
            45 3 45 -104 callgsubr
            return
          </CharString>
          <CharString index="93">
            500 -206 23 190 58 45 23 16 23 247 23 -12 23 return
          </CharString>
          <CharString index="94">
            -3 -36 -91 0 -41 hhcurveto
            -39 -78 0 3 -35 hvcurveto
            -31 24 vlineto
            return
          </CharString>
          <CharString index="95">
            320 rmoveto
            80 -5 80 -35 74 vhcurveto
            96 -46 -82 16 -42 hhcurveto
            -60 -73 -26 -93 -41 hvcurveto
            -32 -69 -5 -78 -80 vvcurveto
            -75 4 -90 41 -76 vhcurveto
            -81 43 73 -20 49 hhcurveto
            54 76 21 95 44 hvcurveto
            32 69 5 78 79 vvcurveto
            -83 12 rmoveto
            -75 0 -68 -11 -64 vhcurveto
            -95 -15 -57 -30 -45 hhcurveto
            -39 -59 25 96 -18 hvcurveto
            -11 60 0 92 59 vvcurveto
            64 0 66 8 54 vhcurveto
            119 19 75 9 25 hhcurveto
            33 66 -18 -99 19 hvcurveto
            10 -56 0 -76 -63 vvcurveto
            endchar
          </CharString>
          <CharString index="96">
            447 rmoveto
            -71 callgsubr
            return
          </CharString>
          <CharString index="97">
            hstemhm
            -16 callsubr
            return
          </CharString>
          <CharString index="98">
            444 -11 22 174 21 217 25 hstem
            28 66 238 83 vstem
            415 217 rmoveto
            134 -105 97 -115 -122 -45 -111 -19 -10 8 -2 5 9 2 6 8 2 vhcurveto
            103 35 90 0 10 hhcurveto
            50 40 -30 -37 23 hvcurveto
            30 -48 0 -66 -36 vvcurveto
            -279 hlineto
            -22 -3 0 -21 -99 54 -97 125 116 92 103 125 hvcurveto
            -84 -32 rmoveto
            -149 -6 -84 -25 -34 hhcurveto
            -103 -10 135 39 hvcurveto
            endchar
          </CharString>
          <CharString index="99">
            138 rmoveto
            -16 hlineto
            -20 5 -58 -4 -22 hvcurveto
            -3 -12 -13 0 -16 hhcurveto
            -206 hlineto
            177 101 rlineto
            63 36 60 45 77 vvcurveto
            111 -128 29 -91 -67 -108 -32 -91 -27 18 -15 22 24 15 19 20 23 -16 13 -21 4 vhcurveto
            39 28 46 16 47 hhcurveto
            65 74 -35 -73 -75 -75 -64 -53 -37 hvcurveto
            -158 -110 rlineto
            -13 -10 -15 -5 -18 -5 1 -5 -4 vvcurveto
            368 hlineto
            7 3 6 7 2 hvcurveto
            endchar
          </CharString>
          <CharString index="100">
            -74 71 -60 89 102 73 70 75 11 vhcurveto
            1 8 0 2 34 vvcurveto
            444 vlineto
            41 14 0 63 vhcurveto
            return
          </CharString>
          <CharString index="101">
            -81 callsubr
            113 3 return
          </CharString>
          <CharString index="102">
            -153 616 rmoveto
            -100 callsubr
            178 hmoveto
            -100 callsubr
            return
          </CharString>
          <CharString index="103">
            hmoveto
            31 -100 428 vlineto
            20 0 6 -16 -9 -3 0 -12 -8 vhcurveto
            -307 -442 rlineto
            -31 266 -116 vlineto
            -36 -2 -11 -74 vhcurveto
            -21 hlineto
            hintmask 10000000
            -31 vlineto
            hintmask 01000000
            3 41 52 0 42 hhcurveto
            hintmask 10101000
            42 53 0 -3 41 118 callgsubr
            -74 18 callsubr
            116 vlineto
            -71 31 rmoveto
            -244 hlineto
            hintmask 00100100
            244 346 rlineto
            endchar
          </CharString>
          <CharString index="104">
            132 rmoveto
            -100 callsubr
            210 hmoveto
            -100 callsubr
            return
          </CharString>
          <CharString index="105">
            -269 -21 145 79 return
          </CharString>
          <CharString index="106">
            -73 callsubr
            -31 return
          </CharString>
          <CharString index="107">
            85 -276 hlineto
            -123 93 -12 36 71 28 71 64 vhcurveto
            return
          </CharString>
          <CharString index="108">
            31 177 31 171 31 61 31 166 28 return
          </CharString>
          <CharString index="109">
            0 19 callgsubr
            return
          </CharString>
          <CharString index="110">
            652 rmoveto
            31 vlineto
            -129 -3 rlineto
            -42 -88 0 3 -38 hvcurveto
            -31 36 vlineto
            return
          </CharString>
          <CharString index="111">
            -81 callsubr
            112 3 113 -3 rlineto
            -55 callgsubr
            168 vlineto
            9 vlineto
            -16 5 42 -54 76 hhcurveto
            119 104 98 129 hvcurveto
            -83 hmoveto
            -121 -70 -84 -74 -40 -38 20 41 -27 vhcurveto
            -14 21 0 1 20 vvcurveto
            223 vlineto
            return
          </CharString>
          <CharString index="112">
            hvcurveto
            -114 -79 -31 79 -43 callgsubr
            211 -43 callgsubr
            return
          </CharString>
          <CharString index="113">
            104 71 56 64 63 11 -54 -57 vhcurveto
            -233 -54 callgsubr
            -75 callsubr
            rlineto
            return
          </CharString>
          <CharString index="114">
            6 callgsubr
            25 return
          </CharString>
          <CharString index="115">
            hstemhm
            12 callgsubr
            return
          </CharString>
          <CharString index="116">
            rrcurveto
            18 -29 -31 12 -36 hhcurveto
            -73 -71 -38 -67 -57 44 -47 57 95 100 29 76 12 hvcurveto
            -54 65 62 -64 86 hhcurveto
            76 29 91 88 hvcurveto
            -384 -29 rmoveto
            -67 -68 -44 -73 -42 -33 36 42 53 59 26 59 36 32 -12 -17 29 vhcurveto
            endchar
          </CharString>
          <CharString index="117">
            302 306 rmoveto
            18 -23 vlineto
            -65 -2 7 22 hvcurveto
            337 vlineto
            14 0 1 -17 vhcurveto
            -38 -45 -63 0 -23 hhcurveto
            -19 vlineto
            return
          </CharString>
          <CharString index="118">
            -35 -18 -27 -26 -26 18 -27 35 7 6 1 2 5 return
          </CharString>
          <CharString index="119">
            -31 vlineto
            113 3 112 -3 rlineto
            -55 callgsubr
            184 vlineto
            return
          </CharString>
          <CharString index="120">
            hstemhm
            28 52 -20 75 -59 75 -44 52 0 75 return
          </CharString>
          <CharString index="121">
            444 -200 26 82 26 hstem
            196 52 24 84 vstem
            356 -133 rmoveto
            47 -54 20 -54 vhcurveto
            71 -52 -97 -17 callsubr
            hvcurveto
            endchar
          </CharString>
          <CharString index="122">
            rmoveto
            20 -19 0 -14 vhcurveto
            -599 hlineto
            -14 63 callsubr
            15 hvcurveto
            597 hlineto
            15 19 0 20 hvcurveto
            return
          </CharString>
          <CharString index="123">
            -3 rlineto
            31 vlineto
            return
          </CharString>
          <CharString index="124">
            28 110 98 -96 83 197 22 131 83 -70 98 -28 28 -21 22 return
          </CharString>
          <CharString index="125">
            -2 11 36 hvcurveto
            return
          </CharString>
          <CharString index="126">
            663 rmoveto
            11 -9 9 -11 -8 -6 -3 -6 -3 vhcurveto
            -400 -643 rlineto
            115 callgsubr
            32 callsubr
            1 3 2 3 4 vvcurveto
            endchar
          </CharString>
          <CharString index="127">
            11 36 hvcurveto
            527 vlineto
            36 return
          </CharString>
          <CharString index="128">
            22 3 0 21 99 -54 97 78 callsubr
            -92 -103 -125 -130 98 -95 111 -6 hvcurveto
            -35 -30 -31 -37 -43 vvcurveto
            -34 callgsubr
            3 12 -15 5 -5 -10 rrcurveto
            return
          </CharString>
          <CharString index="129">
            934 vlineto
            14 0 19 -20 -20 0 -19 -14 vhcurveto
            -934 vlineto
            34 callgsubr
            return
          </CharString>
          <CharString index="130">
            rmoveto
            82 -63 78 -104 21 vhcurveto
            82 27 58 70 79 vvcurveto
            82 -88 56 -96 return
          </CharString>
          <CharString index="131">
            22 0 31 300 149 callsubr
            return
          </CharString>
          <CharString index="132">
            -35 callsubr
            -327 hmoveto
            -35 callsubr
            return
          </CharString>
          <CharString index="133">
            98 0 -13 -35 hvcurveto
            -456 vlineto
            -92 -50 -56 -53 vhcurveto
            return
          </CharString>
          <CharString index="134">
            -3 callsubr
            endchar
          </CharString>
          <CharString index="135">
            471 174 rmoveto
            72 -32 120 -129 53 vhcurveto
            89 25 44 61 58 vvcurveto
            75 -72 67 -99 -77 -89 -49 -100 vhcurveto
            -125 -78 -31 78 -324 vlineto
            -45 -11 0 -67 vhcurveto
            return
          </CharString>
          <CharString index="136">
            56 callsubr
            hstemhm
            return
          </CharString>
          <CharString index="137">
            -140 16 callgsubr
            65 9 -6 -49 hvcurveto
            -269 -81 callsubr
            72 2 rlineto
            -42 -31 -39 -47 -45 vvcurveto
            -34 callgsubr
            return
          </CharString>
          <CharString index="138">
            -14 44 -17 42 -17 43 rrcurveto
            19 -7 -5 27 -28 hhcurveto
            -18 -18 -13 -19 -2 hvcurveto
            -2 vlineto
            -15 11 -12 9 -12 vhcurveto
            -30 22 54 -82 10 hhcurveto
            5 9 6 4 6 hvcurveto
            return
          </CharString>
          <CharString index="139">
            118 callsubr
            7 6 4 5 4 vhcurveto
            400 644 rlineto
            return
          </CharString>
          <CharString index="140">
            155 callgsubr
            280 92 37 25 return
          </CharString>
          <CharString index="141">
            hstemhm
            35 103 0 86 0 103 return
          </CharString>
          <CharString index="142">
            rmoveto
            31 -195 -31 vlineto
            120 -45 0 120 hhcurveto
            endchar
          </CharString>
          <CharString index="143">
            31 hstem
            74 callgsubr
            vstem
            707 336 rmoveto
            190 -135 157 -171 vhcurveto
            -366 -33 callsubr
            return
          </CharString>
          <CharString index="144">
            rmoveto
            20 2 -17 15 -20 hhcurveto
            -20 -17 -15 -20 2 hvcurveto
            22 -247 rlineto
            26 hlineto
            return
          </CharString>
          <CharString index="145">
            rmoveto
            -3 callgsubr
            return
          </CharString>
          <CharString index="146">
            0 114 callsubr
            return
          </CharString>
          <CharString index="147">
            hstemhm
            110 69 209 69 return
          </CharString>
          <CharString index="148">
            278 142 callgsubr
            -31 42 hstemhm
            111 66 hintmask 00101100
            255 hmoveto
            -55 callgsubr
            618 vlineto
            return
          </CharString>
          <CharString index="149">
            4 vlineto
            19 -3 -17 11 -17 hhcurveto
            -29 -7 -34 -40 -15 hvcurveto
            -24 -66 -5 -12 -6 -12 -2 -12 rlinecurve
            22 -11 79 107 rlineto
            9 13 15 16 17 vvcurveto
            return
          </CharString>
          <CharString index="150">
            -49 callsubr
            endchar
          </CharString>
          <CharString index="151">
            25 vlineto
            36 62 rlineto
            -23 15 42 -50 74 hhcurveto
            119 104 98 129 hvcurveto
            -83 1 rmoveto
            -37 -2 -60 -29 -45 vhcurveto
            -31 -21 -38 -33 -54 hhcurveto
            return
          </CharString>
          <CharString index="152">
            527 73 callgsubr
            607 vlineto
            return
          </CharString>
          <CharString index="153">
            556 389 42 -31 31 -31 42 return
          </CharString>
          <CharString index="154">
            hstemhm
            50 callsubr
            return
          </CharString>
          <CharString index="155">
            61 callsubr
            -35 107 -72 86 72 103 96 26 return
          </CharString>
          <CharString index="156">
            31 442 -21 194 31 return
          </CharString>
          <CharString index="157">
            56 79 callgsubr
            return
          </CharString>
          <CharString index="158">
            rmoveto
            -14 17 rlineto
            -41 -49 -53 -30 -51 hhcurveto
            -40 -29 17 20 -35 hvcurveto
            17 -29 -31 17 -40 hhcurveto
            hintmask 00100000
            -25 -26 -8 -10 -22 hvcurveto
            return
          </CharString>
          <CharString index="159">
            -279 280 hlineto
            14 0 19 -20 -20 0 -19 -14 vhcurveto
            -280 -280 vlineto
            -14 63 callsubr
            14 hvcurveto
            280 return
          </CharString>
          <CharString index="160">
            -16 callgsubr
            rlineto
            return
          </CharString>
          <CharString index="161">
            83 29 callsubr
            return
          </CharString>
          <CharString index="162">
            -30 callsubr
            20 return
          </CharString>
          <CharString index="163">
            -21 188 -20 return
          </CharString>
          <CharString index="164">
            88 59 135 59 hstem
            277 282 rmoveto
            59 -266 -59 vlineto
            266 -194 rmoveto
            59 -266 -59 vlineto
            endchar
          </CharString>
          <CharString index="165">
            -73 callgsubr
            -84 -44 -60 return
          </CharString>
          <CharString index="166">
            28 36 92 84 23 63 25 0 92 157 25 38 25 hstemhm
            return
          </CharString>
          <CharString index="167">
            14 43 0 16 37 hvcurveto
            -311 vlineto
            -21 -2 -8 -65 vhcurveto
            -23 return
          </CharString>
          <CharString index="168">
            34 callsubr
            -81 103 return
          </CharString>
          <CharString index="169">
            722 -22 31 665 31 return
          </CharString>
          <CharString index="170">
            -19 0 -20 -20 19 0 return
          </CharString>
          <CharString index="171">
            hlineto
            -78 -289 rlineto
            -1 -2 -3 -12 -4 116 callsubr
            16 3 13 11 3 vhcurveto
            81 303 rlineto
            return
          </CharString>
          <CharString index="172">
            175 83 158 83 188 25 109 25 3 25 return
          </CharString>
          <CharString index="173">
            -200 106 94 return
          </CharString>
          <CharString index="174">
            31 -31 42 40 callsubr
            return
          </CharString>
          <CharString index="175">
            -22 28 398 23 83 91 40 25 hstemhm
            return
          </CharString>
          <CharString index="176">
            -211 47 164 31 return
          </CharString>
          <CharString index="177">
            113 callgsubr
            197 31 457 -20 return
          </CharString>
          <CharString index="178">
            -56 22 359 22 0 22 250 22 87 22 hstemhm
            return
          </CharString>
          <CharString index="179">
            16 75 callgsubr
            return
          </CharString>
          <CharString index="180">
            500 -11 25 411 111 return
          </CharString>
          <CharString index="181">
            111 19 hvcurveto
            -66 133 rmoveto
            return
          </CharString>
          <CharString index="182">
            56 64 67 64 184 64 return
          </CharString>
          <CharString index="183">
            rmoveto
            115 -59 87 -71 -22 callgsubr
            vhcurveto
            return
          </CharString>
          <CharString index="184">
            752 -52 callsubr
          </CharString>
          <CharString index="185">
            -125 -116 return
          </CharString>
          <CharString index="186">
            85 292 -91 callgsubr
            return
          </CharString>
          <CharString index="187">
            -45 -36 24 37 -24 hvcurveto
            -14 21 0 3 18 vvcurveto
            206 vlineto
            19 0 1 11 16 vhcurveto
            return
          </CharString>
          <CharString index="188">
            -4 -1 1 2 -4 hvcurveto
            14 -32 -41 0 -11 hhcurveto
            return
          </CharString>
          <CharString index="189">
            394 -11 114 callgsubr
            return
          </CharString>
          <CharString index="190">
            136 28 421 28 return
          </CharString>
          <CharString index="191">
            -36 -51 23 46 return
          </CharString>
          <CharString index="192">
            31 hstem
            136 89 299 89 vstem
            142 callsubr
            return
          </CharString>
          <CharString index="193">
            56 39 55 8 24 hhcurveto
            45 36 -26 -38 24 hvcurveto
            26 -41 3 -57 -41 vvcurveto
            endchar
          </CharString>
          <CharString index="194">
            408 rmoveto
            50 -45 46 -75 13 vhcurveto
            59 16 42 42 48 vvcurveto
            49 -64 33 -69 return
          </CharString>
          <CharString index="195">
            556 -11 22 -11 31 56 31 302 22 return
          </CharString>
          <CharString index="196">
            625 0 31 227 -20 return
          </CharString>
          <CharString index="197">
            611 0 34 618 31 return
          </CharString>
          <CharString index="198">
            -216 28 208 -21 144 26 115 101 -101 188 -25 25 hstemhm
            return
          </CharString>
          <CharString index="199">
            rmoveto
            13 -6 21 -31 -21 -29 -8 -6 -21 vhcurveto
            -3 -1 -25 -7 -20 -2 1 return
          </CharString>
          <CharString index="200">
            36 25 255 89 255 25 return
          </CharString>
          <CharString index="201">
            1 1 4 vhcurveto
            -11 -21 return
          </CharString>
          <CharString index="202">
            95 -21 176 -20 hstemhm
            return
          </CharString>
          <CharString index="203">
            -31 hlineto
            3 35 return
          </CharString>
          <CharString index="204">
            688 144 rmoveto
            -26 hlineto
            -69 -52 -58 -68 -67 -52 44 43 -52 vhcurveto
            return
          </CharString>
          <CharString index="205">
            76 callgsubr
            281 31 return
          </CharString>
          <CharString index="206">
            121 callsubr
            141 30 12 -20 hstemhm
            return
          </CharString>
          <CharString index="207">
            903 0 31 282 31 308 31 return
          </CharString>
          <CharString index="208">
            -21 186 -20 hstem
            return
          </CharString>
          <CharString index="209">
            122 callsubr
            255 25 return
          </CharString>
          <CharString index="210">
            2 callsubr
            243 31 -22 22 hstemhm
            106 66 211 66 return
          </CharString>
          <CharString index="211">
            22 -11 31 56 31 302 22 210 31 -31 42 hstemhm
            34 83 return
          </CharString>
          <CharString index="212">
            99 callsubr
            94 callgsubr
            return
          </CharString>
          <CharString index="213">
            90 -90 92 123 92 -44 90 -55 92 -65 90 hintmask 0101101000000000
            return
          </CharString>
          <CharString index="214">
            485 404 rmoveto
            17 -12 32 -39 -20 -44 -6 -41 -42 vhcurveto
            return
          </CharString>
          <CharString index="215">
            hmoveto
            -15 callgsubr
            return
          </CharString>
          <CharString index="216">
            -31 -35 -18 -27 -26 -26 18 -27 35 return
          </CharString>
          <CharString index="217">
            hstemhm
            83 callsubr
            return
          </CharString>
          <CharString index="218">
            521 216 rmoveto
            127 return
          </CharString>
          <CharString index="219">
            -21 589 77 32 -20 hstem
            return
          </CharString>
          <CharString index="220">
            106 hstem
            85 107 vstem
            192 return
          </CharString>
          <CharString index="221">
            19 callgsubr
            -11 22 return
          </CharString>
          <CharString index="222">
            74 -21 133 -20 hstemhm
            return
          </CharString>
          <CharString index="223">
            vvcurveto
            118 callsubr
            return
          </CharString>
          <CharString index="224">
            22 172 22 vstem
            return
          </CharString>
          <CharString index="225">
            -11 9 -9 11 return
          </CharString>
          <CharString index="226">
            121 callsubr
            hstem
            -346 33 126 33 vstem
            -187 return
          </CharString>
          <CharString index="227">
            500 -22 22 644 22 hstem
            39 83 255 83 vstem
            return
          </CharString>
          <CharString index="228">
            30 116 30 return
          </CharString>
          <CharString index="229">
            100 callgsubr
            255 89 return
          </CharString>
          <CharString index="230">
            625 66 callsubr
            31 227 -20 414 31 return
          </CharString>
          <CharString index="231">
            389 -11 24 callgsubr
            return
          </CharString>
          <CharString index="232">
            12 -1 -9 0 -3 hhcurveto
            -12 0 -6 -18 hvcurveto
            -16 vlineto
            return
          </CharString>
          <CharString index="233">
            41 callgsubr
            61 107 30 25 151 25 3 25 return
          </CharString>
          <CharString index="234">
            vvcurveto
            -34 callgsubr
            endchar
          </CharString>
          <CharString index="235">
            hstemhm
            110 69 45 107 57 69 return
          </CharString>
          <CharString index="236">
            145 callgsubr
            103 return
          </CharString>
          <CharString index="237">
            87 -83 83 -65 83 return
          </CharString>
          <CharString index="238">
            rlineto
            -1 3 -1 7 3 vvcurveto
            30 58 0 26 vhcurveto
            return
          </CharString>
          <CharString index="239">
            2 26 62 0 29 hhcurveto
            29 62 0 -2 26 hvcurveto
            return
          </CharString>
          <CharString index="240">
            138 callgsubr
            38 return
          </CharString>
          <CharString index="241">
            -21 163 -20 hstemhm
            56 return
          </CharString>
          <CharString index="242">
            rmoveto
            27 -23 26 -30 vhcurveto
            return
          </CharString>
          <CharString index="243">
            -200 106 83 return
          </CharString>
          <CharString index="244">
            99 -21 89 -85 99 129 89 hintmask 0001010000010000
            return
          </CharString>
          <CharString index="245">
            91 -46 106 277 -20 101 106 hstemhm
            56 83 return
          </CharString>
          <CharString index="246">
            24 -18 26 -30 vhcurveto
            -3 -3 -1 -3 hhcurveto
            -24 return
          </CharString>
          <CharString index="247">
            -9 rrcurveto
            -5 -5 -47 0 -16 hhcurveto
            -130 hlineto
            return
          </CharString>
          <CharString index="248">
            -1 -2 -2 0 -14 hhcurveto
            -118 113 hlineto
            return
          </CharString>
          <CharString index="249">
            716 108 callsubr
            return
          </CharString>
          <CharString index="250">
            84 callgsubr
            -40 89 return
          </CharString>
          <CharString index="251">
            -11 -36 hvcurveto
            -527 vlineto
            -36 return
          </CharString>
          <CharString index="252">
            45 3 45 41 callgsubr
            return
          </CharString>
          <CharString index="253">
            hstemhm
            28 83 57 107 74 66 return
          </CharString>
          <CharString index="254">
            156 callgsubr
            hstemhm
            return
          </CharString>
          <CharString index="255">
            500 518 38 return
          </CharString>
          <CharString index="256">
            22 299 31 return
          </CharString>
          <CharString index="257">
            0 31 -27 27 366 31 44 -20 hstemhm
            return
          </CharString>
          <CharString index="258">
            95 hstem
            -387 97 81 97 vstem
            -290 return
          </CharString>
          <CharString index="259">
            hstemhm
            28 83 272 130 callsubr
            return
          </CharString>
          <CharString index="260">
            -31 425 vlineto
            -45 -27 -32 -42 -52 vvcurveto
            return
          </CharString>
          <CharString index="261">
            19 0 20 hvcurveto
            endchar
          </CharString>
          <CharString index="262">
            -21 134 38 return
          </CharString>
          <CharString index="263">
            45 3 45 hstem
            return
          </CharString>
        <CharString name=".notdef">
          280 endchar
        </CharString>
        <CharString name="A">
          -32 callsubr
          hstem
          -107 callsubr
          endchar
        </CharString>
        <CharString name="AE">
          100 callsubr
          hstem
          65 callsubr
          vstem
          -66 callsubr
          endchar
        </CharString>
        <CharString name="AE.dup">
          100 callsubr
          hstem
          65 callsubr
          vstem
          -66 callsubr
          endchar
        </CharString>
        <CharString name="AEacute">
          100 callsubr
          84 -21 163 -20 hstemhm
          65 callsubr
          hintmask 1110011111000000
          -66 callsubr
          hintmask 0001100000000000
          172 263 -101 callsubr
        </CharString>
        <CharString name="Aacute">
          -32 callsubr
          71 -21 163 -101 callgsubr
          167 283 -101 callsubr
        </CharString>
        <CharString name="Abreve">
          -32 callsubr
          50 38 134 -101 callgsubr
          43 callgsubr
          endchar
        </CharString>
        <CharString name="Abreveacute">
          -32 callsubr
          50 38 317 -101 callgsubr
          43 callgsubr
          -47 141 -101 callsubr
        </CharString>
        <CharString name="Abrevedotbelow">
          70 callsubr
          50 148 callgsubr
          321 107 hintmask 01111100
          -107 callsubr
          43 callgsubr
          hintmask 10000010
          -97 -1065 -99 callsubr
        </CharString>
        <CharString name="Abrevegrave">
          -32 callsubr
          50 38 134 -101 callgsubr
          43 callgsubr
          -46 41 rmoveto
          -14 -21 -170 94 -11 5 -9 10 -2 12 rlinecurve
          22 -4 17 20 22 hhcurveto
          12 10 -8 -4 4 hvcurveto
          endchar
        </CharString>
        <CharString name="Abrevehookabove">
          -32 callsubr
          50 38 343 -101 callgsubr
          43 callgsubr
          -52 142 -107 callgsubr
        </CharString>
        <CharString name="Abrevetilde">
          -32 callsubr
          50 38 174 -17 callgsubr
          43 callgsubr
          17 118 -106 callgsubr
        </CharString>
        <CharString name="Acaron">
          -32 callsubr
          61 -21 133 -71 callsubr
          269 -58 callsubr
        </CharString>
        <CharString name="Acircumflex">
          -32 callsubr
          61 -21 133 -71 callsubr
          168 -52 callsubr
        </CharString>
        <CharString name="Acircumflexacute">
          -32 callsubr
          61 -21 316 -71 callsubr
          168 -91 callgsubr
          -36 274 -101 callsubr
        </CharString>
        <CharString name="Acircumflexdotbelow">
          70 callsubr
          61 -21 133 -20 hstemhm
          321 107 hintmask 01111100
          -107 callsubr
          181 168 -91 callgsubr
          hintmask 10000010
          -86 -883 -99 callsubr
        </CharString>
        <CharString name="Acircumflexgrave">
          -32 callsubr
          61 -21 133 -71 callsubr
          168 -69 callsubr
        </CharString>
        <CharString name="Acircumflexhookabove">
          -32 callsubr
          61 -21 342 -71 callsubr
          168 -91 callgsubr
          55 275 -107 callgsubr
        </CharString>
        <CharString name="Acircumflextilde">
          -32 callsubr
          61 -21 173 -17 callgsubr
          181 168 -91 callgsubr
          28 251 -106 callgsubr
        </CharString>
        <CharString name="Adblgrave">
          -32 callsubr
          71 -21 186 -101 callgsubr
          124 174 -95 callgsubr
        </CharString>
        <CharString name="Adieresis">
          -32 callsubr
          40 95 hstemhm
          222 97 113 97 hintmask 11101000
          -107 callsubr
          hintmask 00011100
          -26 200 -76 callgsubr
        </CharString>
        <CharString name="Adotbelow">
          70 callsubr
          hstemhm
          321 107 hintmask 01110000
          -107 callsubr
          hintmask 10001000
          83 -731 -99 callsubr
        </CharString>
        <CharString name="Agrave">
          -32 callsubr
          71 -21 163 -101 callgsubr
          99 183 -74 callsubr
        </CharString>
        <CharString name="Ahookabove">
          -32 callsubr
          83 -21 209 -101 callgsubr
          127 316 -107 callgsubr
        </CharString>
        <CharString name="Alpha">
          -32 callsubr
          hstem
          -107 callsubr
          endchar
        </CharString>
        <CharString name="Amacron">
          -32 callsubr
          60 31 -104 callgsubr
          hintmask 00010000
          211 172 -30 callgsubr
        </CharString>
        <CharString name="Aogonek">
          750 -211 47 164 2 callgsubr
          -20 hstem
          174 48 259 48 vstem
          -36 callgsubr
          endchar
        </CharString>
        <CharString name="Aogonekacute">
          750 -211 47 164 2 callgsubr
          -20 71 -21 163 -20 hstemhm
          174 48 259 48 hintmask 11110011
          -36 callgsubr
          hintmask 00001100
          167 283 -101 callsubr
        </CharString>
        <CharString name="Aring">
          -31 callsubr
          121 callsubr
          hstemhm
          94 callgsubr
          hintmask 11100000
          -107 callsubr
          hintmask 00111100
          93 220 -53 callgsubr
        </CharString>
        <CharString name="Aringacute">
          -31 callsubr
          105 callsubr
          hintmask 11100000
          -107 callsubr
          hintmask 00110111
          93 220 -78 callsubr
          7 228 rmoveto
          22 4 -17 20 -22 hhcurveto
          hintmask 00001000
          -12 -10 -8 -4 -4 hvcurveto
          -145 -130 14 -21 170 94 11 5 9 10 2 12 rlinecurve
          endchar
        </CharString>
        <CharString name="Atilde">
          -32 callsubr
          40 45 3 45 -102 callsubr
          197 230 -106 callgsubr
        </CharString>
        <CharString name="B">
          -32 callgsubr
        </CharString>
        <CharString name="Beta">
          -32 callgsubr
        </CharString>
        <CharString name="C">
          62 callsubr
          hstem
          56 103 476 30 vstem
          -79 callgsubr
          -207 162 -157 186 163 98 139 116 hvcurveto
          endchar
        </CharString>
        <CharString name="Cacute">
          62 callsubr
          128 callgsubr
          476 30 hintmask 11001100
          -79 callgsubr
          -207 162 -157 186 163 98 139 116 hvcurveto
          hintmask 00110000
          -131 634 -101 callsubr
        </CharString>
        <CharString name="Ccaron">
          62 callsubr
          129 callsubr
          476 30 hintmask 11001100
          -79 callgsubr
          -207 162 -157 186 163 98 139 116 hvcurveto
          hintmask 00110000
          -117 620 -58 callsubr
        </CharString>
        <CharString name="Ccedilla">
          62 callsubr
          hstem
          56 103 476 30 vstem
          -79 callgsubr
          -195 143 -150 172 -17 hvcurveto
          -72 -17 callsubr
          47 -54 20 -54 hvcurveto
          45 vlineto
          152 10 90 133 111 vvcurveto
          endchar
        </CharString>
        <CharString name="Ccircumflex">
          62 callsubr
          129 callsubr
          476 30 hintmask 11001100
          -79 callgsubr
          -207 162 -157 186 163 98 139 116 hvcurveto
          hintmask 00110000
          -117 519 -52 callsubr
        </CharString>
        <CharString name="Cdotaccent">
          62 callsubr
          53 106 hstemhm
          56 103 184 107 185 30 hintmask 11010100
          -79 callgsubr
          -207 162 -157 186 163 98 139 116 hvcurveto
          hintmask 00101000
          -215 578 -99 callsubr
        </CharString>
        <CharString name="Chi">
          -44 callgsubr
        </CharString>
        <CharString name="D">
          764 0 31 621 31 hstem
          138 86 49 100 234 100 vstem
          -59 callgsubr
          endchar
        </CharString>
        <CharString name="Dcaron">
          764 56 callgsubr
          115 callsubr
          74 callgsubr
          hintmask 11001110
          -59 callgsubr
          hintmask 00110000
          -133 517 -58 callsubr
        </CharString>
        <CharString name="Dcroat">
          -24 callgsubr
        </CharString>
        <CharString name="Ddotbelow">
          764 47 callgsubr
          hstemhm
          138 86 45 107 -103 100 234 100 hintmask 01110110
          -59 callgsubr
          hintmask 10001000
          -231 -483 -99 callsubr
        </CharString>
        <CharString name="Delta">
          833 0 76 640 -20 hstem
          47 738 vstem
          785 8 rmoveto
          0 0 3 -5 9 vhcurveto
          -338 678 rlineto
          13 -7 -2 5 -17 hhcurveto
          -17 -2 -5 -13 -7 hvcurveto
          -338 -678 rlineto
          -5 -9 0 -3 0 vvcurveto
          -8 6 0 16 vhcurveto
          694 hlineto
          16 6 0 8 hvcurveto
          -132 68 rmoveto
          -539 hlineto
          270 540 rlineto
          endchar
        </CharString>
        <CharString name="Dlinebelow">
          764 -162 31 131 85 callgsubr
          hstemhm
          74 callgsubr
          hintmask 01111100
          -59 callgsubr
          hintmask 10000000
          -103 -498 -30 callgsubr
        </CharString>
        <CharString name="E">
          -44 callsubr
          hstem
          -16 callsubr
          vstem
          -105 callsubr
          endchar
        </CharString>
        <CharString name="Eacute">
          -44 callsubr
          87 -21 163 -20 -96 callgsubr
          -133 867 -101 callsubr
        </CharString>
        <CharString name="Ebreve">
          -44 callsubr
          66 38 134 -20 -96 callgsubr
          -120 918 -98 callsubr
          endchar
        </CharString>
        <CharString name="Ecaron">
          -44 callsubr
          77 -21 133 -20 -96 callgsubr
          -119 853 -58 callsubr
        </CharString>
        <CharString name="Ecircumflex">
          -44 callsubr
          77 -21 133 -20 -96 callgsubr
          -119 77 callsubr
        </CharString>
        <CharString name="Ecircumflexacute">
          -44 callsubr
          77 -21 316 -20 -96 callgsubr
          -119 752 -91 callgsubr
          -36 274 -101 callsubr
        </CharString>
        <CharString name="Ecircumflexdotbelow">
          681 66 callsubr
          -27 callgsubr
          77 -21 133 -20 126 callsubr
          hintmask 0111111101110000
          -105 callsubr
          -119 752 -91 callgsubr
          hintmask 1000000010000000
          -86 -883 -99 callsubr
        </CharString>
        <CharString name="Ecircumflexgrave">
          -44 callsubr
          77 -21 133 -20 -96 callgsubr
          -119 752 -69 callsubr
        </CharString>
        <CharString name="Ecircumflexhookabove">
          -44 callsubr
          77 -21 342 -20 -96 callgsubr
          -119 752 -91 callgsubr
          55 275 -107 callgsubr
        </CharString>
        <CharString name="Ecircumflextilde">
          -44 callsubr
          77 -21 173 45 3 45 -10 callsubr
          hintmask 1111000111100000
          -105 callsubr
          hintmask 0000111000000000
          -119 752 -91 callgsubr
          28 251 -106 callgsubr
        </CharString>
        <CharString name="Edblgrave">
          -44 callsubr
          87 -21 186 -20 -96 callgsubr
          -148 758 -95 callgsubr
        </CharString>
        <CharString name="Edieresis">
          -44 callsubr
          56 95 41 callgsubr
          -38 97 113 97 -71 25 151 25 3 25 hintmask 1111010011100000
          -105 callsubr
          hintmask 0000101100000000
          -326 784 -76 callgsubr
        </CharString>
        <CharString name="Edotaccent">
          -44 callsubr
          78 106 126 callsubr
          hintmask 1111010111000000
          -105 callsubr
          hintmask 0000101000000000
          -217 811 -99 callsubr
        </CharString>
        <CharString name="Edotbelow">
          681 66 callsubr
          -27 callgsubr
          126 callsubr
          hintmask 0111110111000000
          -105 callsubr
          hintmask 1000001000000000
          -217 -147 -99 callsubr
        </CharString>
        <CharString name="Egrave">
          -44 callsubr
          87 -21 163 -20 -90 callsubr
          hintmask 0000111000000000
          -201 767 -74 callsubr
        </CharString>
        <CharString name="Ehookabove">
          -44 callsubr
          99 -21 209 -20 -96 callgsubr
          -173 900 -107 callgsubr
        </CharString>
        <CharString name="Emacron">
          -44 callsubr
          76 31 -10 callsubr
          hintmask 1111011110000000
          -105 callsubr
          hintmask 0000100000000000
          -89 756 -30 callgsubr
        </CharString>
        <CharString name="Eng">
          750 -22 92 -70 85 callgsubr
          -4 26 41 callgsubr
          386 102 hintmask 00011000
          713 342 rmoveto
          190 -122 173 -178 -76 -67 -35 -55 -45 vhcurveto
          hintmask 01101000
          68 vlineto
          -2 -15 -14 -1 -15 hhcurveto
          -39 -79 0 3 -35 hvcurveto
          -31 26 vlineto
          79 3 144 callsubr
          -3 -11 -79 vhcurveto
          -26 96 callsubr
          79 0 38 hhcurveto
          39 79 0 -3 35 hvcurveto
          31 -26 vlineto
          -79 -3 11 36 hvcurveto
          493 vlineto
          hintmask 10010100
          65 38 70 43 80 hhcurveto
          143 55 -172 -165 -129 0 -150 -65 -46 hvcurveto
          7 vlineto
          25 -21 21 -25 -25 -21 -21 -25 -25 21 -21 25 155 58 185 179 vhcurveto
          endchar
        </CharString>
        <CharString name="Eogonek">
          86 callgsubr
          hstemhm
          136 89 156 48 -26 89 hintmask 0011110101000000
          -2 callgsubr
          hintmask 0010010100000000
          -59 callsubr
          hlineto
          hintmask 0100000010000000
          153 callsubr
          hintmask 1000000001000000
          -34 callgsubr
          3 12 -15 5 -5 -10 rrcurveto
          -36 -17 -28 -20 -32 hhcurveto
          hintmask 0100000010000000
          124 callgsubr
          endchar
        </CharString>
        <CharString name="Eogonekacute">
          86 callgsubr
          87 -21 163 -20 41 callgsubr
          156 48 -26 89 hintmask 0011110001010000
          -2 callgsubr
          hintmask 0010010001000000
          -59 callsubr
          hlineto
          hintmask 0100000000100000
          153 callsubr
          hintmask 1000000000010000
          -34 callgsubr
          3 12 -15 5 -5 -10 rrcurveto
          -36 -17 -28 -20 -32 hhcurveto
          hintmask 0100000000100000
          124 callgsubr
          hintmask 0000000110000000
          -133 867 -101 callsubr
        </CharString>
        <CharString name="Epsilon">
          -44 callsubr
          hstem
          -16 callsubr
          vstem
          -105 callsubr
          endchar
        </CharString>
        <CharString name="Ereversed">
          -44 callsubr
          hstem
          33 25 3 25 151 25 198 89 vstem
          652 108 callsubr
          524 vlineto
          36 2 11 77 vhcurveto
          24 31 -563 hlineto
          -28 -225 rlineto
          25 hlineto
          139 16 27 55 153 hhcurveto
          129 hlineto
          47 2 -7 -33 hvcurveto
          -240 -90 vlineto
          -97 -11 31 86 hvcurveto
          -25 -265 25 hlineto
          85 11 32 97 vhcurveto
          90 -267 hlineto
          -33 -2 -7 -47 vhcurveto
          -133 hlineto
          -172 -23 73 154 -25 hvcurveto
          -25 hlineto
          42 -258 rlineto
          endchar
        </CharString>
        <CharString name="Eta">
          750 0 31 309 31 281 31 hstem
          136 89 299 89 vstem
          -92 callsubr
          endchar
        </CharString>
        <CharString name="Eth">
          -24 callgsubr
        </CharString>
        <CharString name="Etilde">
          -44 callsubr
          56 45 3 45 -96 callgsubr
          -103 814 -106 callgsubr
        </CharString>
        <CharString name="Euro">
          627 -22 30 263 30 82 30 262 30 hstem
          112 102 196 102 vstem
          571 540 rmoveto
          155 vlineto
          6 -4 4 -6 vhcurveto
          -3 hlineto
          -3 -3 -1 -2 -1 hvcurveto
          -39 -42 rlineto
          28 -30 -39 17 -43 hhcurveto
          -81 -73 -43 -64 -51 hvcurveto
          -42 -54 -25 -64 -11 -67 rrcurveto
          -50 104 callgsubr
          49 hlineto
          -1 -14 -1 -14 -13 vvcurveto
          -14 1 -14 1 -13 vhcurveto
          -47 104 callgsubr
          52 hlineto
          11 -68 25 -64 42 -54 rrcurveto
          -63 51 73 -44 81 hhcurveto
          43 39 17 28 30 hvcurveto
          39 -42 rlineto
          -2 1 3 -1 3 hhcurveto
          3 hlineto
          6 4 4 6 hvcurveto
          155 vlineto
          6 -4 4 -6 vhcurveto
          -10 hlineto
          -5 -4 -4 -5 -1 hvcurveto
          -73 -8 -52 -63 -71 hhcurveto
          -63 -52 41 54 -32 hvcurveto
          -31 51 -12 57 -4 60 rrcurveto
          256 102 callgsubr
          -260 hlineto
          -1 41 1 41 rlineto
          289 102 callgsubr
          -291 hlineto
          4 59 12 58 31 51 rrcurveto
          53 32 52 41 63 hhcurveto
          71 52 -62 -74 8 hvcurveto
          -5 1 4 -4 5 hhcurveto
          10 hlineto
          6 4 4 6 hvcurveto
          endchar
        </CharString>
        <CharString name="F">
          653 0 31 294 31 293 143 callsubr
          79 89 -25 25 143 25 hintmask 10110000
          610 455 rmoveto
          51 callgsubr
          -549 88 callgsubr
          hintmask 10001100
          107 callgsubr
          hintmask 01010010
          -95 0 13 35 hvcurveto
          246 86 vlineto
          96 10 -32 -85 143 callgsubr
          -10 -33 -96 vhcurveto
          -86 253 hlineto
          hintmask 00101001
          33 2 7 47 vhcurveto
          120 hlineto
          150 25 -56 -138 16 hvcurveto
          endchar
        </CharString>
        <CharString name="G">
          49 callgsubr
          hstem
          56 103 418 89 vstem
          -93 callgsubr
          endchar
        </CharString>
        <CharString name="Gacute">
          49 callgsubr
          128 callgsubr
          418 89 hintmask 11100110
          -93 callgsubr
          hintmask 00011000
          -206 625 -101 callsubr
        </CharString>
        <CharString name="Gamma">
          625 0 31 618 143 callsubr
          281 27 hintmask 11100000
          582 455 rmoveto
          51 callgsubr
          -521 88 callgsubr
          hintmask 10010000
          107 callgsubr
          hintmask 00100000
          -95 0 13 35 hvcurveto
          530 vlineto
          hintmask 01011000
          33 2 7 47 vhcurveto
          103 hlineto
          143 21 -59 -135 16 hvcurveto
          endchar
        </CharString>
        <CharString name="Gbreve">
          49 callgsubr
          41 148 callgsubr
          56 103 418 89 hintmask 11100110
          -93 callgsubr
          hintmask 00011000
          -193 676 -98 callsubr
          endchar
        </CharString>
        <CharString name="Gcaron">
          49 callgsubr
          129 callsubr
          418 89 hintmask 11100110
          -93 callgsubr
          hintmask 00011000
          -192 611 -58 callsubr
        </CharString>
        <CharString name="Gcedilla">
          785 111 callgsubr
          50 callgsubr
          hstem
          56 103 418 89 vstem
          -93 callgsubr
          -299 -387 -96 callsubr
        </CharString>
        <CharString name="Gcircumflex">
          49 callgsubr
          129 callsubr
          418 89 hintmask 11100110
          -93 callgsubr
          hintmask 00011000
          -192 510 -52 callsubr
        </CharString>
        <CharString name="Gcommaaccent">
          785 111 callgsubr
          50 callgsubr
          hstemhm
          56 103 418 89 hintmask 00111110
          -93 callgsubr
          hintmask 11000000
          -299 -387 -96 callsubr
        </CharString>
        <CharString name="Gdotaccent">
          49 callgsubr
          53 106 hstemhm
          56 103 179 107 132 89 hintmask 11101010
          -93 callgsubr
          hintmask 00010100
          -290 569 -99 callsubr
        </CharString>
        <CharString name="H">
          750 0 31 309 31 281 31 hstem
          136 89 299 89 vstem
          -92 callsubr
          endchar
        </CharString>
        <CharString name="H_uni0303">
          98 callsubr
          53 145 callsubr
          299 89 hintmask 11100110
          -92 callsubr
          hintmask 00011100
          -174 814 -106 callgsubr
        </CharString>
        <CharString name="Hbar">
          76 callgsubr
          127 30 124 85 callsubr
          420 103 30 -103 77 -97 callgsubr
          -77 -299 77 -97 callgsubr
          -77 -103 -30 103 -420 -70 callsubr
          262 299 -262 -79 callsubr
          -192 371 rmoveto
          -299 127 299 hlineto
          endchar
        </CharString>
        <CharString name="Hbrevebelow">
          750 -233 149 callgsubr
          81 31 309 31 281 84 callgsubr
          299 89 hintmask 00111110
          -92 callsubr
          hintmask 11000000
          -191 -61 -98 callsubr
          endchar
        </CharString>
        <CharString name="Hcircumflex">
          98 callsubr
          115 callsubr
          136 89 299 89 hintmask 11100110
          -92 callsubr
          hintmask 00011000
          -190 77 callsubr
        </CharString>
        <CharString name="Hdieresis">
          98 callsubr
          53 95 41 callgsubr
          -3 97 113 97 -5 89 hintmask 11101001
          -92 callsubr
          hintmask 00010110
          -397 784 -76 callgsubr
        </CharString>
        <CharString name="Hdotbelow">
          113 callgsubr
          309 31 281 84 callgsubr
          96 107 96 89 hintmask 01111010
          -92 callsubr
          hintmask 10000100
          -288 -147 -99 callsubr
        </CharString>
        <CharString name="I">
          20 callgsubr
          hstem
          136 89 vstem
          -97 callsubr
          endchar
        </CharString>
        <CharString name="I_J">
          839 -22 22 0 31 -31 112 -54 112 -22 22 482 84 callgsubr
          108 89 -56 112 -64 112 101 86 hintmask 0100111100100000
          -97 callsubr
          457 3 callsubr
          26 callsubr
          hintmask 0001000001000000
          -6 -68 0 58 -36 hvcurveto
          hintmask 0000000010000000
          52 12 30 26 hvcurveto
          hintmask 0001000100000000
          36 -28 20 -28 vhcurveto
          hintmask 0010000010000000
          -22 -34 -14 -44 hvcurveto
          hintmask 1000010001100000
          -7 callsubr
          endchar
        </CharString>
        <CharString name="Iacute">
          20 callgsubr
          84 -21 163 -20 41 callgsubr
          hintmask 11001000
          -97 callsubr
          hintmask 00110000
          -15 867 -101 callsubr
        </CharString>
        <CharString name="Ibreve">
          20 callgsubr
          63 148 callgsubr
          136 89 hintmask 11001000
          -97 callsubr
          hintmask 00110000
          -2 918 -98 callsubr
          endchar
        </CharString>
        <CharString name="Icaron">
          20 callgsubr
          115 callsubr
          136 89 hintmask 11001000
          -97 callsubr
          hintmask 00110000
          -1 853 -58 callsubr
        </CharString>
        <CharString name="Icircumflex">
          20 callgsubr
          115 callsubr
          136 89 hintmask 11001000
          -97 callsubr
          hintmask 00110000
          -1 77 callsubr
        </CharString>
        <CharString name="Idblgrave">
          20 callgsubr
          84 -21 186 -20 41 callgsubr
          hintmask 11001000
          -97 callsubr
          hintmask 00111000
          -30 758 -95 callgsubr
        </CharString>
        <CharString name="Idieresis">
          20 callgsubr
          53 95 hstemhm
          28 97 11 89 13 97 hintmask 11011000
          -97 callsubr
          hintmask 00110100
          -208 784 -76 callgsubr
        </CharString>
        <CharString name="Idieresisacute">
          20 callgsubr
          53 95 83 -21 163 -20 hstemhm
          28 97 11 89 13 97 hintmask 11000110
          -97 callsubr
          hintmask 00111101
          -208 784 rmoveto
          -100 callsubr
          210 hmoveto
          -100 callsubr
          -17 230 -101 callsubr
        </CharString>
        <CharString name="Idotaccent">
          20 callgsubr
          75 106 hstemhm
          127 107 -98 89 hintmask 11001000
          -97 callsubr
          hintmask 00110000
          -99 811 -99 callsubr
        </CharString>
        <CharString name="Idotbelow">
          361 47 callgsubr
          hstemhm
          127 107 -98 89 hintmask 01101000
          -97 callsubr
          hintmask 10010000
          -99 -147 -99 callsubr
        </CharString>
        <CharString name="Igrave">
          20 callgsubr
          84 -21 163 -20 41 callgsubr
          hintmask 11001000
          -97 callsubr
          hintmask 00110000
          -83 767 -74 callsubr
        </CharString>
        <CharString name="Ihookabove">
          20 callgsubr
          96 147 callsubr
          136 89 hintmask 11001000
          -97 callsubr
          hintmask 00110000
          -55 900 -107 callgsubr
        </CharString>
        <CharString name="Imacron">
          20 callgsubr
          73 84 callgsubr
          hintmask 11010000
          -97 callsubr
          hintmask 00100000
          29 756 -30 callgsubr
        </CharString>
        <CharString name="Imacron.alt">
          20 callgsubr
          73 84 callgsubr
          hintmask 11010000
          -97 callsubr
          hintmask 00100000
          -54 756 35 callsubr
        </CharString>
        <CharString name="Iogonek">
          361 69 callsubr
          0 47 527 47 0 84 callgsubr
          hintmask 11000000
          333 -115 rmoveto
          -6 callgsubr
          16 18 19 15 21 11 rrcurveto
          37 42 -1 -2 23 hvcurveto
          31 -26 vlineto
          hintmask 00110100
          42 callgsubr
          hintmask 00110100
          25 callgsubr
          endchar
        </CharString>
        <CharString name="Iogonekacute">
          361 69 callsubr
          0 47 527 47 0 31 84 -21 163 -20 41 callgsubr
          hintmask 11000000
          333 -115 rmoveto
          -6 callgsubr
          16 18 19 15 21 11 rrcurveto
          37 42 -1 -2 23 hvcurveto
          31 -26 vlineto
          hintmask 00110001
          42 callgsubr
          hintmask 00110001
          25 callgsubr
          hintmask 00000110
          -15 982 -101 callsubr
        </CharString>
        <CharString name="Iota">
          20 callgsubr
          hstem
          136 89 vstem
          -97 callsubr
          endchar
        </CharString>
        <CharString name="Itilde">
          20 callgsubr
          53 145 callsubr
          hintmask 11001000
          -97 callsubr
          hintmask 00110000
          15 814 -106 callgsubr
        </CharString>
        <CharString name="J">
          60 callgsubr
          hstemhm
          41 112 -64 112 101 86 hintmask 01011001
          465 3 callsubr
          26 callsubr
          hintmask 00100010
          -6 -68 0 58 -36 hvcurveto
          hintmask 00100100
          52 12 30 26 36 -28 20 -28 hvcurveto
          hintmask 01000100
          -22 -34 -14 -44 hvcurveto
          hintmask 10001011
          -7 callsubr
          endchar
        </CharString>
        <CharString name="J_uni030C.cap">
          513.88889 -22 22 0 112 -54 112 -22 22 310 -21 145 79 -31 31 hstemhm
          41 112 -64 112 101 86 hintmask 0000001000000000
          465 3 callsubr
          hintmask 0101010001000000
          26 callsubr
          hintmask 0010000010000000
          -6 -68 0 58 -36 hvcurveto
          hintmask 0010000100000000
          52 12 30 26 36 -28 20 -28 hvcurveto
          hintmask 0100000100000000
          -22 -34 -14 -44 hvcurveto
          hintmask 1000001011000000
          -7 callsubr
          125 -48 rmoveto
          48 -18 31 -30 -26 -14 -20 -20 vhcurveto
          hintmask 0000110000000000
          -19 13 -20 27 11 11 4 8 8 vhcurveto
          1 -60 -21 -45 -33 -36 rrcurveto
          -4 -4 -1 -1 -3 vvcurveto
          -5 4 -3 4 9 59 59 86 vhcurveto
          endchar
        </CharString>
        <CharString name="Jacute">
          60 callgsubr
          84 -21 163 -12 callgsubr
          -11 215 -101 callsubr
        </CharString>
        <CharString name="Jcircumflex">
          60 callgsubr
          74 -21 133 -12 callgsubr
          3 100 -52 callsubr
        </CharString>
        <CharString name="K">
          778 56 callgsubr
          hstem
          136 89 vstem
          -81 callgsubr
          endchar
        </CharString>
        <CharString name="Kappa">
          778 56 callgsubr
          hstem
          136 89 vstem
          -81 callgsubr
          endchar
        </CharString>
        <CharString name="Kcedilla">
          778 142 callgsubr
          hstem
          136 89 vstem
          -81 callgsubr
          -188 -148 -96 callsubr
        </CharString>
        <CharString name="Kcommaaccent">
          778 142 callgsubr
          hstemhm
          136 89 hintmask 00111000
          -81 callgsubr
          hintmask 11000000
          -188 -148 -96 callsubr
        </CharString>
        <CharString name="L">
          89 callsubr
          414 143 callsubr
          283 25 hintmask 11001100
          -31 callgsubr
          hintmask 00110000
          -9 callgsubr
          hintmask 00101000
          -13 callsubr
          hintmask 11010100
          -29 callgsubr
          endchar
        </CharString>
        <CharString name="L_uni0303">
          89 callsubr
          414 31 53 145 callsubr
          -40 89 283 25 hintmask 11000011
          -31 callgsubr
          hintmask 00100100
          -9 callgsubr
          hintmask 00100010
          -13 callsubr
          hintmask 11000101
          -29 callgsubr
          hintmask 00011000
          -202 814 -106 callgsubr
        </CharString>
        <CharString name="Lacute">
          89 callsubr
          414 31 84 -21 163 -20 41 callgsubr
          -40 89 283 25 hintmask 11000011
          -31 callgsubr
          hintmask 00100100
          -9 callgsubr
          hintmask 00100010
          -13 callsubr
          hintmask 11000101
          -29 callgsubr
          hintmask 00011000
          -232 867 -101 callsubr
        </CharString>
        <CharString name="Lambda">
          694 0 31 43 31 611 -20 hstem
          32 629 vstem
          661 hmoveto
          31 vlineto
          -76 -3 6 37 -12 hvcurveto
          -200 621 rlineto
          19 -6 -6 2 -11 hhcurveto
          -16 -2 -4 -17 -5 hvcurveto
          -192 -595 rlineto
          -30 -10 -20 -39 -70 hhcurveto
          -31 vlineto
          93 3 113 16 callsubr
          -54 1 -23 27 24 vvcurveto
          5 0 3 5 14 vhcurveto
          150 466 158 -492 rlineto
          5 -14 0 -4 0 vvcurveto
          -30 -59 0 -26 vhcurveto
          -31 vlineto
          3 35 71 0 38 hhcurveto
          endchar
        </CharString>
        <CharString name="Lcaron">
          89 callsubr
          242 -21 145 79 -31 143 callsubr
          283 25 hintmask 11000011
          -31 callgsubr
          hintmask 00010100
          -47 -2 7 33 hvcurveto
          533 vlineto
          hintmask 00001010
          34 0 14 95 vhcurveto
          33 31 hlineto
          -13 callsubr
          hintmask 11001101
          -29 callgsubr
          -57 604 rmoveto
          48 -18 31 -30 -26 -14 -20 -20 vhcurveto
          hintmask 00110000
          -19 13 -20 27 11 11 4 8 8 vhcurveto
          1 -60 -21 -45 -33 -36 rrcurveto
          -4 -4 -1 -1 -3 vvcurveto
          -5 4 -3 4 9 59 59 86 vhcurveto
          endchar
        </CharString>
        <CharString name="Lcedilla">
          625 -2 callsubr
          66 31 227 -20 414 143 callsubr
          283 25 hintmask 00110011
          -31 callgsubr
          hintmask 00001100
          -9 callgsubr
          hintmask 00001010
          -13 callsubr
          hintmask 11110101
          -29 callgsubr
          -197 -145 -96 callsubr
        </CharString>
        <CharString name="Lcommaaccent">
          625 -2 callsubr
          66 31 227 -20 414 143 callsubr
          283 25 hintmask 00110011
          -31 callgsubr
          hintmask 00001100
          -9 callgsubr
          hintmask 00001010
          -13 callsubr
          hintmask 00110101
          -29 callgsubr
          hintmask 11000000
          -197 -145 -96 callsubr
        </CharString>
        <CharString name="Ldot">
          89 callsubr
          117 106 191 143 callsubr
          165 107 11 25 hintmask 11000101
          -31 callgsubr
          hintmask 00011000
          -9 callgsubr
          hintmask 00010100
          -13 callsubr
          hintmask 11101011
          -29 callgsubr
          -8 408 -99 callsubr
        </CharString>
        <CharString name="Ldotbelow">
          123 callsubr
          hstemhm
          136 89 -40 89 -15 107 191 25 hintmask 01100101
          -31 callgsubr
          hintmask 00011000
          -9 callgsubr
          hintmask 00010100
          -13 callsubr
          hintmask 01101001
          -29 callgsubr
          hintmask 10000010
          -188 -147 -99 callsubr
        </CharString>
        <CharString name="Ldotbelowmacron">
          123 callsubr
          73 143 callsubr
          -15 107 191 25 hintmask 0110001010000000
          -31 callgsubr
          hintmask 0001010000000000
          -9 callgsubr
          hintmask 0001001000000000
          -13 callsubr
          hintmask 1110010110000000
          -29 callgsubr
          -188 -147 rmoveto
          -94 callsubr
          hintmask 0000100000000000
          8 903 -30 callgsubr
        </CharString>
        <CharString name="Lslash">
          625 56 callgsubr
          hstemhm
          47 89 0 89 -40 89 hintmask 10001000
          -31 callgsubr
          hintmask 01010000
          -47 -2 7 33 hvcurveto
          298 vlineto
          179 142 -20 26 -159 -126 rlineto
          193 vlineto
          34 0 14 95 vhcurveto
          33 31 hlineto
          hintmask 11101000
          -13 callsubr
          -64 callgsubr
          -264 vlineto
          -89 -71 22 -25 67 54 rlineto
          -221 vlineto
          -1 callsubr
          521 hlineto
          endchar
        </CharString>
        <CharString name="M">
          917 56 callgsubr
          hstem
          140 28 262 28 237 81 vstem
          -57 callgsubr
          endchar
        </CharString>
        <CharString name="Mdotbelow">
          917 47 callgsubr
          hstemhm
          140 28 236 107 -81 28 237 81 hintmask 01110110
          -57 callgsubr
          hintmask 10000100
          -368 -147 135 callsubr
          hintmask 10001000
          -34 -20 -28 -25 -27 23 -26 30 34 20 28 25 hvcurveto
          endchar
        </CharString>
        <CharString name="Mu">
          917 56 callgsubr
          hstem
          140 28 262 28 237 81 vstem
          -57 callgsubr
          endchar
        </CharString>
        <CharString name="N">
          129 callgsubr
          83 callsubr
          vstem
          -93 callsubr
          endchar
        </CharString>
        <CharString name="Nacute">
          14 callgsubr
          84 -21 163 -20 110 callsubr
          hintmask 11001100
          -93 callsubr
          hintmask 00110000
          -204 215 -101 callsubr
        </CharString>
        <CharString name="Ncaron">
          14 callgsubr
          74 -21 133 -20 110 callsubr
          hintmask 11001100
          -93 callsubr
          hintmask 00110000
          -190 201 -58 callsubr
        </CharString>
        <CharString name="Ncedilla">
          750 142 callgsubr
          hstem
          83 callsubr
          vstem
          -93 callsubr
          -297 -797 -96 callsubr
        </CharString>
        <CharString name="Ncommaaccent">
          750 142 callgsubr
          110 callsubr
          hintmask 00111100
          -93 callsubr
          hintmask 11000000
          -297 -797 -96 callsubr
        </CharString>
        <CharString name="Ndotaccent">
          14 callgsubr
          53 106 hstemhm
          136 28 157 107 157 28 hintmask 11010100
          -93 callsubr
          hintmask 00101000
          -288 137 -99 callsubr
        </CharString>
        <CharString name="Ndotbelow">
          750 47 callgsubr
          hstemhm
          136 28 157 107 157 28 hintmask 01110100
          -93 callsubr
          hintmask 10001000
          -288 -799 -99 callsubr
        </CharString>
        <CharString name="Ntilde">
          14 callgsubr
          53 45 3 45 110 callsubr
          hintmask 11001100
          -93 callsubr
          hintmask 00110000
          -174 162 -106 callgsubr
        </CharString>
        <CharString name="Nu">
          129 callgsubr
          83 callsubr
          vstem
          -93 callsubr
          endchar
        </CharString>
        <CharString name="O">
          7 callsubr
          hstem
          50 callsubr
          vstem
          -100 callgsubr
          endchar
        </CharString>
        <CharString name="OE">
          -50 callsubr
        </CharString>
        <CharString name="OE.dup">
          -50 callsubr
        </CharString>
        <CharString name="Oacute">
          7 callsubr
          62 -21 163 -88 callgsubr
          -92 514 -101 callsubr
        </CharString>
        <CharString name="Obreve">
          7 callsubr
          41 38 134 -88 callgsubr
          -79 565 -98 callsubr
          endchar
        </CharString>
        <CharString name="Ocaron">
          7 callsubr
          52 -21 133 -54 callsubr
          500 -58 callsubr
        </CharString>
        <CharString name="Ocircumflex">
          7 callsubr
          52 -21 133 -54 callsubr
          399 -52 callsubr
        </CharString>
        <CharString name="Ocircumflexacute">
          7 callsubr
          52 -21 316 -54 callsubr
          399 -91 callgsubr
          -36 274 -101 callsubr
        </CharString>
        <CharString name="Ocircumflexdotbelow">
          778 -200 106 72 26 676 25 129 callsubr
          176 107 176 103 hintmask 01111101
          -100 callgsubr
          -78 399 -91 callgsubr
          hintmask 10000010
          -86 -883 -99 callsubr
        </CharString>
        <CharString name="Ocircumflexgrave">
          7 callsubr
          52 -21 133 -54 callsubr
          399 -69 callsubr
        </CharString>
        <CharString name="Ocircumflexhookabove">
          7 callsubr
          52 -21 342 -54 callsubr
          399 -91 callgsubr
          55 275 -107 callgsubr
        </CharString>
        <CharString name="Ocircumflextilde">
          7 callsubr
          52 -21 173 45 3 45 47 callsubr
          hintmask 11000110
          -100 callgsubr
          hintmask 00111000
          -78 399 -91 callgsubr
          28 251 -106 callgsubr
        </CharString>
        <CharString name="Odblgrave">
          7 callsubr
          62 -21 186 -88 callgsubr
          -107 405 -95 callgsubr
        </CharString>
        <CharString name="Odieresis">
          7 callsubr
          31 95 hstemhm
          56 103 77 97 113 97 75 103 hintmask 11010010
          -100 callgsubr
          hintmask 00101100
          -285 431 -76 callgsubr
        </CharString>
        <CharString name="Odotbelow">
          778 -200 106 72 26 676 25 hstemhm
          56 103 176 107 176 103 hintmask 01110100
          -100 callgsubr
          hintmask 10001000
          -176 -500 -99 callsubr
        </CharString>
        <CharString name="Ograve">
          7 callsubr
          62 -21 163 -88 callgsubr
          -160 414 -74 callsubr
        </CharString>
        <CharString name="Ohookabove">
          7 callsubr
          74 -21 209 -88 callgsubr
          -132 547 -107 callgsubr
        </CharString>
        <CharString name="Ohorn">
          6 callgsubr
          109 hstem
          55 79 callgsubr
          vstem
          -86 callsubr
          endchar
        </CharString>
        <CharString name="Ohornacute">
          6 callgsubr
          109 120 -20 hstemhm
          55 79 callgsubr
          hintmask 11011000
          -86 callsubr
          hintmask 00100000
          -119 512 -101 callsubr
        </CharString>
        <CharString name="Ohorndotbelow">
          778 -200 106 72 26 676 109 hstemhm
          55 103 177 107 175 103 hintmask 01110100
          -86 callsubr
          hintmask 10001000
          -175 -502 -99 callsubr
        </CharString>
        <CharString name="Ohorngrave">
          6 callgsubr
          109 120 -20 hstemhm
          55 79 callgsubr
          hintmask 11011000
          -86 callsubr
          hintmask 00100000
          -159 412 -74 callsubr
        </CharString>
        <CharString name="Ohornhookabove">
          6 callgsubr
          109 178 -20 hstemhm
          55 79 callgsubr
          hintmask 11011000
          -86 callsubr
          hintmask 00100000
          -131 545 -107 callgsubr
        </CharString>
        <CharString name="Ohorntilde">
          6 callgsubr
          109 -53 45 3 45 hstemhm
          55 79 callgsubr
          hintmask 01000000
          720 339 rmoveto
          95 -33 93 -64 71 vhcurveto
          -8 9 -9 8 -8 8 rrcurveto
          41 12 28 43 48 vvcurveto
          33 -22 30 -31 vhcurveto
          hintmask 10101100
          -35 -18 -27 -26 -26 18 -27 35 5 4 1 1 4 hvcurveto
          -11 -21 -19 -16 -23 -5 rrcurveto
          39 -54 -65 23 -67 hhcurveto
          -90 -85 -40 -67 -60 hvcurveto
          -64 -71 -34 -93 -95 vvcurveto
          -95 34 -91 64 -69 vhcurveto
          -66 61 84 -40 90 hhcurveto
          89 85 40 66 61 hvcurveto
          64 69 33 91 95 vvcurveto
          -103 16 rmoveto
          -87 -13 -90 -48 -73 vhcurveto
          -58 -38 -61 -43 -69 hhcurveto
          -70 -60 43 58 -39 hvcurveto
          -48 73 -13 90 87 vvcurveto
          82 14 83 47 66 vhcurveto
          hintmask 01000100
          56 40 61 38 68 hhcurveto
          68 61 -38 -56 39 hvcurveto
          47 -66 14 -83 -82 vvcurveto
          hintmask 00110000
          -61 459 -106 callgsubr
        </CharString>
        <CharString name="Ohungarumlaut">
          7 callsubr
          62 -21 186 -88 callgsubr
          -226 545 -80 callgsubr
        </CharString>
        <CharString name="Omacron">
          7 callsubr
          51 31 47 callsubr
          hintmask 11011000
          -100 callgsubr
          hintmask 00100000
          -48 403 -30 callgsubr
        </CharString>
        <CharString name="Omega">
          -42 callsubr
        </CharString>
        <CharString name="Omicron">
          7 callsubr
          hstem
          50 callsubr
          vstem
          -100 callgsubr
          endchar
        </CharString>
        <CharString name="Oogonek">
          150 callgsubr
          hstem
          50 callsubr
          vstem
          -20 callsubr
          endchar
        </CharString>
        <CharString name="Oogonekacute">
          150 callgsubr
          128 callgsubr
          459 103 hintmask 11100110
          -20 callsubr
          hintmask 00011000
          -92 514 -101 callsubr
        </CharString>
        <CharString name="Orogate">
          778 56 103 219 22 218 103 vstem
          721 339 rmoveto
          199 -144 160 -177 7 vhcurveto
          173 -22 -173 vlineto
          -175 -6 -147 -158 -202 vvcurveto
          -201 148 -154 174 -6 vhcurveto
          -172 22 172 vlineto
          177 7 144 156 198 vvcurveto
          -103 14 rmoveto
          -265 -137 -84 -92 -96 -134 88 261 259 146 68 83 87 143 -71 -256 vhcurveto
          endchar
        </CharString>
        <CharString name="Oslash">
          -41 callsubr
        </CharString>
        <CharString name="Oslash.dup">
          -41 callsubr
        </CharString>
        <CharString name="Oslashacute">
          778 -35 -21 34 22 683 22 34 -20 48 134 callsubr
          89 431 89 -33 89 hintmask 1111001100000000
          721 339 rmoveto
          124 -50 91 -75 70 vhcurveto
          69 101 -21 14 -68 -97 rlineto
          0 -2 0 -5 5 vhcurveto
          15 -24 -63 43 -94 hhcurveto
          -179 -153 -160 -206 -149 80 -95 44 -37 hvcurveto
          -60 -89 -8 -11 20 -14 68 96 rlineto
          -29 41 59 -33 88 hhcurveto
          hintmask 0110001010000000
          182 151 159 202 hvcurveto
          -167 268 rmoveto
          -348 -510 rlineto
          -35 49 -26 65 128 vvcurveto
          56 3 99 49 78 vhcurveto
          75 47 74 36 70 hhcurveto
          92 55 -56 -20 19 hvcurveto
          78 -268 rmoveto
          -51 -2 -107 -56 -81 vhcurveto
          -62 -44 -69 -38 -72 hhcurveto
          -62 -61 27 49 -43 hvcurveto
          347 510 rlineto
          57 -76 5 -107 -64 vvcurveto
          hintmask 0000110000000000
          -106 528 -101 callsubr
        </CharString>
        <CharString name="Otilde">
          7 callsubr
          31 45 3 45 -91 callsubr
          -62 461 -106 callgsubr
        </CharString>
        <CharString name="P">
          -21 callsubr
        </CharString>
        <CharString name="Phi">
          722 0 31 127 -20 409 -21 126 31 hstem
          56 100 160 83 166 100 vstem
          665 341 rmoveto
          104 -114 91 -152 12 vhcurveto
          56 55 callgsubr
          -56 vlineto
          -153 -15 -107 -92 -99 vvcurveto
          -103 111 -89 149 -15 vhcurveto
          48 callgsubr
          155 12 111 93 101 vvcurveto
          -349 -183 rmoveto
          -142 19 -18 102 62 vvcurveto
          52 10 112 150 20 vhcurveto
          249 -183 rmoveto
          -60 -15 -107 -151 -18 vhcurveto
          369 vlineto
          138 -16 28 -92 -76 vvcurveto
          endchar
        </CharString>
        <CharString name="Pi">
          750 0 31 618 85 callsubr
          524 vlineto
          36 2 11 77 vhcurveto
          24 31 -683 -31 24 hlineto
          77 2 -11 -36 hvcurveto
          -524 -70 callsubr
          571 299 -571 -79 callsubr
          endchar
        </CharString>
        <CharString name="Psi">
          778 0 31 102 27 363 31 98 31 hstem
          125 83 136 83 142 83 vstem
          720 543 rmoveto
          11 -8 0 -16 vhcurveto
          -38 hlineto
          -39 -49 -7 -145 -1 hvcurveto
          -1 -110 -33 -106 -108 -26 rrcurveto
          444 55 callgsubr
          -444 vlineto
          -131 35 -5 154 65 vvcurveto
          121 -1 -44 19 -44 hhcurveto
          -37 hlineto
          -15 -10 0 -11 -5 3 -5 6 -1 hvcurveto
          33 -4 25 -14 1 -118 rrcurveto
          -23 3 -79 48 -67 vhcurveto
          39 -54 61 -29 68 -9 rrcurveto
          48 callgsubr
          72 9 61 30 39 52 rrcurveto
          52 71 1 79 44 vvcurveto
          16 1 89 54 7 vhcurveto
          6 1 7 1 9 vvcurveto
          endchar
        </CharString>
        <CharString name="Q">
          778 -194 103 69 25 39 22 62 22 532 25 hstemhm
          56 100 152 22 291 100 -16 22 hintmask 1000000010000000
          727 -10 rmoveto
          10 0 11 -11 -9 -1 -8 -10 -1 vhcurveto
          -54 -6 -42 -30 -43 hhcurveto
          -47 -25 34 64 -24 hvcurveto
          hintmask 1100110100000000
          118 53 85 128 151 vvcurveto
          204 67 callgsubr
          -182 -179 -153 -160 -206 -202 151 -159 182 31 35 6 9 29 vhcurveto
          -95 15 14 -92 93 hhcurveto
          hintmask 0011111010000000
          102 19 133 51 hvcurveto
          -106 349 rmoveto
          -78 -12 -141 -106 -78 vhcurveto
          56 -22 -32 50 -59 hhcurveto
          -51 -31 -43 -41 -27 13 -19 1 -2 hvcurveto
          -54 20 -112 73 230 vvcurveto
          260 140 81 92 vhcurveto
          hintmask 0111001100000000
          97 136 -86 -255 hvcurveto
          -144 -313 rmoveto
          -19 -34 -32 -4 -22 hhcurveto
          -51 -8 46 15 29 21 33 39 54 22 -42 -58 11 hvcurveto
          endchar
        </CharString>
        <CharString name="R">
          736 -22 24 callsubr
          34 callsubr
          cntrmask 00001110
          hintmask 10011110
          -83 callgsubr
          hintmask 01101110
          -77 callgsubr
          hintmask 10111110
          -78 callgsubr
          endchar
        </CharString>
        <CharString name="Racute">
          736 -22 24 callsubr
          84 -21 163 -20 13 callgsubr
          hintmask 1001001000110000
          -83 callgsubr
          hintmask 0110001010000000
          -77 callgsubr
          hintmask 1011000101011000
          -78 callgsubr
          hintmask 0000110000000000
          -2 364 -101 callsubr
        </CharString>
        <CharString name="Rcaron">
          736 -22 24 callsubr
          74 -21 133 -20 13 callgsubr
          hintmask 1001001000110000
          -83 callgsubr
          hintmask 0110001010000000
          -77 callgsubr
          hintmask 1011000101011000
          -78 callgsubr
          hintmask 0000110000000000
          12 350 -58 callsubr
        </CharString>
        <CharString name="Rcedilla">
          736 111 callgsubr
          24 callsubr
          13 callgsubr
          hintmask 0010011000110000
          -83 callgsubr
          hintmask 0001101010000000
          -77 callgsubr
          hintmask 1110110101011000
          -78 callgsubr
          -95 -648 -96 callsubr
        </CharString>
        <CharString name="Rcommaaccent">
          736 111 callgsubr
          24 callsubr
          13 callgsubr
          hintmask 0010011000110000
          -83 callgsubr
          hintmask 0001101010000000
          -77 callgsubr
          hintmask 0010110101011000
          -78 callgsubr
          hintmask 1100000000000000
          -95 -648 -96 callsubr
        </CharString>
        <CharString name="Rdblgrave">
          736 -22 24 callsubr
          84 -21 186 -20 13 callgsubr
          hintmask 1001001000110000
          -83 callgsubr
          hintmask 0110001010000000
          -77 callgsubr
          hintmask 1011000101011000
          -78 callgsubr
          hintmask 0000110000100000
          -45 255 -95 callgsubr
        </CharString>
        <CharString name="Rdotaccent">
          736 -22 24 callsubr
          75 106 48 callsubr
          hintmask 1001010000110000
          -83 callgsubr
          hintmask 0110010100000000
          -77 callgsubr
          hintmask 1011001010011000
          -78 callgsubr
          hintmask 0000100001000000
          -86 308 -99 callsubr
        </CharString>
        <CharString name="Rdotbelow">
          736 -200 106 72 24 callsubr
          48 callsubr
          hintmask 0100110000110000
          -83 callgsubr
          hintmask 0011010100000000
          -77 callgsubr
          hintmask 0101101010011000
          -78 callgsubr
          hintmask 1000000001000000
          -86 -650 -99 callsubr
        </CharString>
        <CharString name="Rdotbelowmacron">
          736 -200 106 72 24 callsubr
          73 31 48 callsubr
          hintmask 0100101000011000
          -83 callgsubr
          hintmask 0011001010000000
          -77 callgsubr
          hintmask 1101100101001100
          -78 callgsubr
          -86 -650 135 callsubr
          hintmask 1000000000100000
          -34 -20 -28 -25 -27 23 -26 30 34 20 28 25 hvcurveto
          hintmask 0000010000000000
          128 903 -30 callgsubr
        </CharString>
        <CharString name="Rho">
          -21 callsubr
        </CharString>
        <CharString name="S">
          556 -22 1 callsubr
          hstem
          75 callsubr
          vstem
          499 186 rmoveto
          -98 callgsubr
          endchar
        </CharString>
        <CharString name="S_S">
          1111 -22 1 callsubr
          hstem
          75 callsubr
          113 64 67 64 184 64 vstem
          499 186 rmoveto
          -98 callgsubr
          556 hmoveto
          -98 callgsubr
          endchar
        </CharString>
        <CharString name="Sacute">
          556 -22 1 callsubr
          62 -21 163 -20 hstemhm
          75 callsubr
          hintmask 1111100111000000
          499 186 rmoveto
          -98 callgsubr
          hintmask 0000011000000000
          -84 681 -101 callsubr
        </CharString>
        <CharString name="Scaron">
          556 -22 1 callsubr
          52 -21 133 -20 hstemhm
          75 callsubr
          hintmask 1111100111000000
          499 186 rmoveto
          -98 callgsubr
          hintmask 0000011000000000
          -70 667 -58 callsubr
        </CharString>
        <CharString name="Scedilla">
          556 -22 1 callsubr
          hstemhm
          56 64 37 64 -34 64 184 64 hintmask 0011111000000000
          499 186 rmoveto
          100 -66 82 -84 20 vhcurveto
          -128 31 rlineto
          -62 15 -39 54 58 vvcurveto
          70 54 61 78 167 22 -164 -45 6 vhcurveto
          -6 1 0 -6 11 hhcurveto
          13 0 5 19 hvcurveto
          201 vlineto
          17 0 7 -11 -7 -1 -1 -12 -7 vhcurveto
          -35 -57 rlineto
          hintmask 1101110110000000
          29 -30 -41 41 -89 hhcurveto
          -111 -84 -88 -106 -83 53 -73 78 -27 hvcurveto
          11 -4 51 -12 70 -17 27 -7 30 -7 28 -37 rrcurveto
          21 -26 10 -33 -33 vvcurveto
          -71 -50 -72 -84 -29 -76 5 49 -53 vhcurveto
          -58 54 -3 64 -1 36 rrcurveto
          10 -1 -8 0 -3 hhcurveto
          -13 0 -7 -18 hvcurveto
          -200 vlineto
          -17 0 -7 11 7 1 2 11 7 vhcurveto
          0 3 4 33 53 vhcurveto
          25 -27 46 -29 63 -10 rrcurveto
          -74 vlineto
          36 40 -9 -32 hvcurveto
          hintmask 1100001010000000
          -41 -96 0 -75 vhcurveto
          -13 -26 26 hlineto
          108 134 0 67 47 -55 20 -53 hvcurveto
          44 vlineto
          116 1 79 98 109 vvcurveto
          endchar
        </CharString>
        <CharString name="Scircumflex">
          556 -22 1 callsubr
          52 -21 133 -20 hstemhm
          75 callsubr
          hintmask 1111100111000000
          499 186 rmoveto
          -98 callgsubr
          hintmask 0000011000000000
          -70 566 -52 callsubr
        </CharString>
        <CharString name="Sdotbelow">
          556 -200 106 72 1 callsubr
          hstemhm
          56 64 67 64 -27 107 104 64 hintmask 0111111101000000
          499 186 rmoveto
          -98 callgsubr
          hintmask 1000000010000000
          -168 -333 -99 callsubr
        </CharString>
        <CharString name="Sigma">
          722 0 42 -31 31 610 31 hstemhm
          639 26 hintmask 01110000
          665 236 rmoveto
          -25 hlineto
          -167 -18 -68 -27 -157 hhcurveto
          -276 hlineto
          251 284 rlineto
          9 10 0 6 0 vvcurveto
          5 -4 5 -3 4 vhcurveto
          -205 296 rlineto
          231 hlineto
          169 50 -36 -158 21 75 callgsubr
          -555 hlineto
          -24 -2 0 -23 hvcurveto
          249 -362 -238 -271 rlineto
          -10 -11 0 -2 -3 vvcurveto
          hintmask 10010000
          -11 10 0 15 vhcurveto
          555 hlineto
          endchar
        </CharString>
        <CharString name="T">
          722 0 49 callsubr
          hstem
          93 callsubr
          cntrmask 00011100
          -87 callgsubr
          endchar
        </CharString>
        <CharString name="T_uni0303">
          722 0 49 callsubr
          59 45 3 45 hstemhm
          93 callsubr
          hintmask 11100111
          -87 callgsubr
          hintmask 00011000
          -132 362 -106 callgsubr
        </CharString>
        <CharString name="T_uni0308">
          722 0 49 callsubr
          59 95 hstemhm
          36 25 147 97 11 89 13 97 145 25 hintmask 1110101010000000
          -87 callgsubr
          hintmask 0001010100000000
          -355 332 -76 callgsubr
        </CharString>
        <CharString name="Tau">
          722 0 49 callsubr
          hstem
          93 callsubr
          vstem
          -87 callgsubr
          endchar
        </CharString>
        <CharString name="Tcaron">
          722 0 49 callsubr
          80 -21 133 -20 hstemhm
          93 callsubr
          hintmask 11100111
          -87 callgsubr
          hintmask 00011000
          -148 401 -58 callsubr
        </CharString>
        <CharString name="Tcedilla">
          722 -200 26 82 26 66 122 callsubr
          -70 52 24 84 165 25 hintmask 0011111000000000
          685 452 rmoveto
          -19 225 rlineto
          -611 hlineto
          -19 -225 rlineto
          25 hlineto
          161 14 15 33 151 hhcurveto
          18 26 0 -2 10 hvcurveto
          21 -4 0 -11 -23 vvcurveto
          -527 vlineto
          -34 0 -14 -105 vhcurveto
          -40 -31 hlineto
          hintmask 1110000110000000
          3 35 77 0 52 hhcurveto
          -95 -17 callsubr
          47 -54 20 -54 hvcurveto
          69 vlineto
          51 78 0 -3 34 hvcurveto
          31 -40 vlineto
          hintmask 0001101001000000
          -105 0 14 34 hvcurveto
          527 vlineto
          20 0 14 18 4 vhcurveto
          2 11 27 0 19 hhcurveto
          151 15 -33 -161 14 hvcurveto
          endchar
        </CharString>
        <CharString name="Tdotbelow">
          722 66 callsubr
          100 callgsubr
          246 107 -98 89 255 25 hintmask 01111011
          -87 callgsubr
          hintmask 10000100
          -246 -599 -99 callsubr
        </CharString>
        <CharString name="Theta">
          778 -22 23 303 76 303 22 hstem
          56 97 57 25 307 25 57 97 vstem
          721 339 rmoveto
          204 67 callgsubr
          -182 -179 -153 -160 -206 -205 154 -156 178 182 151 159 202 vhcurveto
          -97 hmoveto
          -255 -141 -83 -94 -99 -137 86 252 257 139 87 96 101 135 -91 -253 vhcurveto
          -57 -69 rmoveto
          144 -25 -34 -307 34 -25 -144 25 34 307 -34 vlineto
          endchar
        </CharString>
        <CharString name="Thorn">
          625 0 31 147 31 313 31 99 31 hstem
          139 83 247 100 vstem
          569 365 rmoveto
          85 -70 103 -148 vhcurveto
          -129 50 hlineto
          29 1 13 31 4 vhcurveto
          3 19 26 0 26 hhcurveto
          31 vlineto
          -144 -3 -145 3 -26 callgsubr
          29 25 0 -3 21 hvcurveto
          28 -5 0 -17 -24 vvcurveto
          -523 vlineto
          -29 -1 -13 -31 -4 vhcurveto
          -3 -19 -26 0 -26 hhcurveto
          -31 vlineto
          144 3 145 16 callsubr
          -29 -25 0 3 -21 hvcurveto
          -28 5 0 17 24 vvcurveto
          98 139 vlineto
          122 86 90 97 hvcurveto
          -100 1 rmoveto
          -70 -44 -87 -97 vhcurveto
          -106 313 111 hlineto
          23 41 0 -46 36 hvcurveto
          32 -42 4 -48 -20 vvcurveto
          endchar
        </CharString>
        <CharString name="Tlinebelow">
          722 -162 31 131 102 callsubr
          hintmask 01111110
          -87 callgsubr
          hintmask 10000000
          -118 -614 -30 callgsubr
        </CharString>
        <CharString name="U">
          -13 callgsubr
          hstem
          12 callgsubr
          vstem
          -105 callgsubr
          endchar
        </CharString>
        <CharString name="U_uni032F">
          750 -212 155 callsubr
          39 31 565 31 47 31 8 callsubr
          hintmask 00111111
          -105 callgsubr
          hintmask 11000000
          -168 -885 -47 callgsubr
        </CharString>
        <CharString name="Uacute">
          -13 callgsubr
          84 -21 163 -20 8 callsubr
          hintmask 11100111
          -105 callgsubr
          hintmask 00011000
          -181 215 -101 callsubr
        </CharString>
        <CharString name="Ubreve">
          -13 callgsubr
          63 38 134 -20 8 callsubr
          hintmask 11100111
          -105 callgsubr
          hintmask 00011000
          -168 266 -98 callsubr
          endchar
        </CharString>
        <CharString name="Ucaron">
          -13 callgsubr
          74 -21 133 -20 8 callsubr
          hintmask 11100111
          -105 callgsubr
          hintmask 00011000
          -167 201 -58 callsubr
        </CharString>
        <CharString name="Ucircumflex">
          -13 callgsubr
          74 -21 133 -20 8 callsubr
          hintmask 11100111
          -105 callgsubr
          hintmask 00011000
          -167 100 -52 callsubr
        </CharString>
        <CharString name="Udblgrave">
          -13 callgsubr
          84 -21 186 -20 8 callsubr
          hintmask 11100111
          -105 callgsubr
          hintmask 00011000
          -196 106 -95 callgsubr
        </CharString>
        <CharString name="Udieresis">
          -13 callgsubr
          53 95 41 callgsubr
          20 97 48 89 -24 97 30 31 hintmask 1110101010000000
          -105 callgsubr
          hintmask 0001010100000000
          -23 callsubr
          endchar
        </CharString>
        <CharString name="Udieresisacute">
          -13 callgsubr
          53 95 83 -21 163 -20 41 callgsubr
          20 97 48 89 -24 97 30 31 hintmask 1110001010100000
          -105 callgsubr
          hintmask 0001110101000000
          -23 callsubr
          -17 230 -101 callsubr
        </CharString>
        <CharString name="Udieresiscaron">
          -13 callgsubr
          53 95 73 -21 133 -20 41 callgsubr
          20 97 48 89 -24 97 30 31 hintmask 1110001010100000
          -105 callgsubr
          hintmask 0001110101000000
          -23 callsubr
          -3 216 -58 callsubr
        </CharString>
        <CharString name="Udieresisgrave">
          -13 callgsubr
          53 95 83 -21 163 -20 41 callgsubr
          20 97 48 89 -24 97 30 31 hintmask 1110001010100000
          -105 callgsubr
          hintmask 0001110101000000
          -23 callsubr
          -85 130 -74 callsubr
        </CharString>
        <CharString name="Udotbelow">
          750 -200 106 72 31 565 31 47 84 callgsubr
          119 107 -61 89 103 31 hintmask 01111011
          -105 callgsubr
          hintmask 10000100
          -265 -799 -99 callsubr
        </CharString>
        <CharString name="Ugrave">
          -13 callgsubr
          84 -21 163 -20 8 callsubr
          hintmask 11100111
          -105 callgsubr
          hintmask 00011000
          -249 115 -74 callsubr
        </CharString>
        <CharString name="Uhookabove">
          -13 callgsubr
          96 -21 209 -20 8 callsubr
          hintmask 11100111
          -105 callgsubr
          hintmask 00011000
          -221 248 -107 callgsubr
        </CharString>
        <CharString name="Uhorn">
          26 callgsubr
          106 33 callgsubr
          hintmask 0000110001000000
          726 725 rmoveto
          33 -22 31 -31 11 callsubr
          vhcurveto
          -15 -28 -30 -18 -34 -5 rrcurveto
          48 vlineto
          hintmask 0001000000000000
          -2 -5 -5 -1 -5 hhcurveto
          hintmask 1100101011000000
          -118 3 rlineto
          -30 vlineto
          27 27 -2 -14 23 hvcurveto
          16 -11 10 -18 -19 vvcurveto
          -361 vlineto
          -59 -19 -56 -37 -42 vhcurveto
          -40 -36 -49 -23 -53 hhcurveto
          -47 -46 24 38 -29 hvcurveto
          -31 41 -11 52 65 vvcurveto
          hintmask 0011001000000000
          389 vlineto
          12 6 13 12 5 vhcurveto
          6 17 39 0 29 hhcurveto
          hintmask 0000100000000000
          30 vlineto
          hintmask 0001000100000000
          -147 -3 rlineto
          hintmask 0010101000000000
          -147 3 rlineto
          -30 vlineto
          29 39 0 -6 18 hvcurveto
          11 -5 6 -13 -12 vvcurveto
          -389 vlineto
          hintmask 1100000101000000
          -67 26 -63 48 -47 vhcurveto
          -47 47 65 -26 66 hhcurveto
          61 57 27 46 41 hvcurveto
          43 48 22 63 66 vvcurveto
          382 vlineto
          62 7 52 46 62 vvcurveto
          endchar
        </CharString>
        <CharString name="Uhornacute">
          26 callgsubr
          84 -21 43 -20 140 33 callgsubr
          hintmask 0000101000010000
          726 725 rmoveto
          33 -22 31 -31 11 callsubr
          vhcurveto
          -83 callsubr
          hintmask 0000010100000000
          -219 142 -101 callsubr
        </CharString>
        <CharString name="Uhorndotbelow">
          750 -200 106 72 30 602 27 -20 30 6 27 -27 30 106 -20 hstemhm
          136 88 -44 30 111 107 98 30 26 30 hintmask 0000011000010000
          726 725 rmoveto
          33 -22 31 -31 11 callsubr
          vhcurveto
          -15 -28 -30 -18 -34 -5 rrcurveto
          48 vlineto
          hintmask 0000100000000000
          -2 -5 -5 -1 -5 hhcurveto
          hintmask 0110010100110000
          -118 3 rlineto
          -30 vlineto
          27 27 -2 -14 23 hvcurveto
          16 -11 10 -18 -19 vvcurveto
          -361 vlineto
          -59 -19 -56 -37 -42 vhcurveto
          -40 -36 -49 -23 -53 hhcurveto
          -47 -46 24 38 -29 hvcurveto
          -31 41 -11 52 65 vvcurveto
          hintmask 0001100100000000
          389 vlineto
          12 6 13 12 5 vhcurveto
          6 17 39 0 29 hhcurveto
          hintmask 0000010000000000
          30 vlineto
          hintmask 0000100010000000
          -147 -3 rlineto
          hintmask 0001010100000000
          -147 3 rlineto
          -30 vlineto
          29 39 0 -6 18 hvcurveto
          11 -5 6 -13 -12 vvcurveto
          -389 vlineto
          hintmask 0110000010010000
          -67 26 -63 48 -47 vhcurveto
          -47 47 65 -26 66 hhcurveto
          61 57 27 46 41 hvcurveto
          43 48 22 63 66 vvcurveto
          382 vlineto
          62 7 52 46 62 vvcurveto
          hintmask 1000000001000000
          -298 -872 -99 callsubr
        </CharString>
        <CharString name="Uhorngrave">
          26 callgsubr
          84 -21 43 -20 140 33 callgsubr
          hintmask 0000101000010000
          726 725 rmoveto
          33 -22 31 -31 11 callsubr
          vhcurveto
          -83 callsubr
          hintmask 0000010100000000
          -259 42 -74 callsubr
        </CharString>
        <CharString name="Uhornhookabove">
          26 callgsubr
          96 -21 31 -20 198 33 callgsubr
          hintmask 0000101000010000
          726 725 rmoveto
          33 -22 31 -31 11 callsubr
          vhcurveto
          -83 callsubr
          hintmask 0000010100000000
          -231 175 -107 callgsubr
        </CharString>
        <CharString name="Uhorntilde">
          26 callgsubr
          53 45 3 45 -40 33 callgsubr
          hintmask 0000000100000000
          46 callgsubr
          vhcurveto
          hintmask 0000110000010000
          11 callsubr
          hvcurveto
          -83 callsubr
          hintmask 0000011000000000
          -161 89 -106 callgsubr
        </CharString>
        <CharString name="Uhungarumlaut">
          -13 callgsubr
          84 -21 186 -20 8 callsubr
          hintmask 11100111
          -105 callgsubr
          hintmask 00011000
          -315 246 -80 callgsubr
        </CharString>
        <CharString name="Umacron">
          -13 callgsubr
          73 31 8 callsubr
          hintmask 11101110
          -105 callgsubr
          hintmask 00010000
          -137 104 -30 callgsubr
        </CharString>
        <CharString name="Uogonek">
          750 574 31 0 47 0 84 callgsubr
          165 31 -31 89 103 31 cntrmask 11100000
          hintmask 11110110
          716 652 rmoveto
          31 vlineto
          -118 -3 95 callgsubr
          103 0 -47 -27 hvcurveto
          -347 vlineto
          -142 -97 -80 -95 -47 -118 25 190 vhcurveto
          381 -97 callgsubr
          -377 vlineto
          -125 91 -100 116 -21 vhcurveto
          -32 -29 -25 -38 -36 vvcurveto
          -34 callgsubr
          3 12 -15 5 -5 -10 rrcurveto
          hintmask 11101010
          99 callgsubr
          20 10 18 14 16 hvcurveto
          6 7 7 6 7 6 rrcurveto
          10 hlineto
          115 90 93 114 17 hvcurveto
          3 20 0 9 40 vvcurveto
          320 vlineto
          33 0 45 103 vhcurveto
          endchar
        </CharString>
        <CharString name="Upsilon">
          778 0 31 520 77 0 77 hstemhm
          56 37 251 89 251 37 cntrmask 00011100
          hintmask 10111100
          721 552 rmoveto
          60 -40 93 -91 -104 -73 -91 -152 -24 vhcurveto
          -1 hlineto
          43 -7 -35 200 -159 hhcurveto
          -91 -40 -93 -60 -8 0 -9 16 14 0 8 5 1 hvcurveto
          80 8 86 0 5 hhcurveto
          138 20 -197 -80 hvcurveto
          -272 vlineto
          -34 0 -14 -95 vhcurveto
          -33 -31 hlineto
          3 36 95 0 41 hhcurveto
          41 96 0 -3 36 hvcurveto
          31 -33 vlineto
          -95 0 13 35 hvcurveto
          272 vlineto
          95 26 182 132 vhcurveto
          hintmask 01011100
          31 61 -15 -62 7 hvcurveto
          -9 1 1 -7 13 hhcurveto
          16 0 9 8 hvcurveto
          endchar
        </CharString>
        <CharString name="Uring">
          -13 callgsubr
          33 121 callsubr
          41 callgsubr
          77 33 55 89 -18 33 88 31 hintmask 1110010101000000
          -105 callgsubr
          hintmask 0001101010000000
          -255 152 -53 callgsubr
        </CharString>
        <CharString name="Utilde">
          -13 callgsubr
          53 45 3 45 8 callsubr
          hintmask 11100111
          -105 callgsubr
          hintmask 00011000
          67 callgsubr
          -106 callgsubr
        </CharString>
        <CharString name="V">
          750 -1 -21 674 31 hstem
          19 711 vstem
          730 652 106 callgsubr
          -31 -40 -1 -26 hhcurveto
          -114 3 -26 callgsubr
          52 -1 21 -26 -23 vvcurveto
          -8 -3 -6 -2 -6 vhcurveto
          -183 -482 -191 505 rlineto
          -6 14 0 4 0 vvcurveto
          29 57 0 25 vhcurveto
          31 vlineto
          -3 -36 -69 0 -38 hhcurveto
          -127 3 -26 callgsubr
          65 19 0 -38 14 hvcurveto
          232 -614 rlineto
          -19 7 5 -3 13 hhcurveto
          17 2 5 14 5 hvcurveto
          223 588 14 37 27 29 68 1 rlinecurve
          endchar
        </CharString>
        <CharString name="W">
          39 callgsubr
          hstemhm
          18 991 hintmask 01011000
          1009 652 106 callgsubr
          -30 -31 -1 -30 hhcurveto
          95 callgsubr
          67 -1 20 -33 -19 vvcurveto
          -6 -3 -8 -2 -6 vhcurveto
          -150 -462 -160 490 rlineto
          -1 4 -2 6 5 vvcurveto
          30 58 0 26 vhcurveto
          31 vlineto
          -3 -36 -68 0 -38 hhcurveto
          -122 3 -26 callgsubr
          hintmask 00111000
          58 callgsubr
          -139 -429 -161 492 131 callsubr
          31 vlineto
          -3 -36 -68 0 -38 hhcurveto
          -122 3 -26 callgsubr
          hintmask 11000000
          75 4 -5 -37 12 hvcurveto
          200 -613 rlineto
          -9 3 3 -10 13 hhcurveto
          14 2 7 13 4 hvcurveto
          165 508 166 -509 rlineto
          -9 3 3 -10 13 hhcurveto
          14 2 7 13 4 hvcurveto
          hintmask 00111000
          191 587 rlineto
          57 18 43 10 39 hhcurveto
          endchar
        </CharString>
        <CharString name="Wacute">
          39 callgsubr
          84 -21 163 -72 callgsubr
          -358 215 -101 callsubr
        </CharString>
        <CharString name="Wcircumflex">
          39 callgsubr
          74 -21 133 -72 callgsubr
          -344 100 -52 callsubr
        </CharString>
        <CharString name="Wdieresis">
          39 callgsubr
          53 95 hstemhm
          18 991 -648 97 113 97 hintmask 01010100
          1009 652 106 callgsubr
          -30 -31 -1 -30 hhcurveto
          95 callgsubr
          67 -1 20 -33 -19 vvcurveto
          -6 -3 -8 -2 -6 vhcurveto
          -150 -462 rlineto
          hintmask 00110011
          -160 490 rlineto
          -1 4 -2 6 5 vvcurveto
          30 58 0 26 vhcurveto
          31 vlineto
          -3 -36 -68 0 -38 hhcurveto
          -122 3 -26 callgsubr
          58 callgsubr
          -139 -429 -161 492 131 callsubr
          31 vlineto
          -3 -36 -68 0 -38 hhcurveto
          hintmask 11010100
          -122 3 -26 callgsubr
          75 4 -5 -37 12 hvcurveto
          200 -613 rlineto
          -9 3 3 -10 13 hhcurveto
          14 2 7 13 4 hvcurveto
          165 508 166 -509 rlineto
          -9 3 3 -10 13 hhcurveto
          14 2 7 13 4 hvcurveto
          hintmask 00110100
          191 587 rlineto
          57 18 43 10 39 hhcurveto
          hintmask 00001011
          -551 27 callsubr
        </CharString>
        <CharString name="Wgrave">
          39 callgsubr
          84 -21 163 -72 callgsubr
          -426 115 -74 callsubr
        </CharString>
        <CharString name="X">
          -44 callgsubr
        </CharString>
        <CharString name="Xi">
          667 0 70 97 -20 140 -21 51 70 51 -20 124 -21 86 70 hstemhm
          42 25 -20 25 67 25 338 25 67 25 -20 25 hintmask 0000011010010000
          619 521 rmoveto
          -8 156 rlineto
          -556 hlineto
          -8 -156 rlineto
          25 hlineto
          2 41 3 26 7 11 rrcurveto
          8 6 61 0 9 hhcurveto
          346 hlineto
          11 59 0 -8 6 hvcurveto
          7 -11 3 -26 2 -41 rrcurveto
          30 -354 rmoveto
          hintmask 1111100101101000
          -25 hlineto
          -3 -46 -1 -26 -8 -14 rrcurveto
          -11 -6 -52 0 -22 hhcurveto
          -348 hlineto
          -18 -55 0 10 -7 hvcurveto
          -8 13 -2 30 -2 44 rrcurveto
          -25 hlineto
          8 -167 rlineto
          566 hlineto
          -89 266 rmoveto
          172 -25 -51 -338 51 -25 -172 25 51 338 -51 vlineto
          endchar
        </CharString>
        <CharString name="Y">
          129 callgsubr
          331 86 vstem
          -92 callgsubr
          endchar
        </CharString>
        <CharString name="Yacute">
          14 callgsubr
          84 -21 163 -20 hstemhm
          331 86 hintmask 11001000
          -92 callgsubr
          hintmask 00110000
          -226 215 -101 callsubr
        </CharString>
        <CharString name="Ycircumflex">
          14 callgsubr
          115 callsubr
          331 86 hintmask 11001000
          -92 callgsubr
          hintmask 00110000
          -212 100 -52 callsubr
        </CharString>
        <CharString name="Ydieresis">
          14 callgsubr
          53 95 hstemhm
          222 97 12 86 15 97 hintmask 11001000
          -92 callgsubr
          hintmask 00110100
          -419 27 callsubr
        </CharString>
        <CharString name="Ydotbelow">
          750 47 callgsubr
          hstemhm
          321 107 -97 86 hintmask 01101000
          -92 callgsubr
          hintmask 10010000
          -310 -799 -99 callsubr
        </CharString>
        <CharString name="Ygrave">
          14 callgsubr
          84 -21 163 -20 hstemhm
          331 86 hintmask 11001000
          -92 callgsubr
          hintmask 00110000
          -294 115 -74 callsubr
        </CharString>
        <CharString name="Yhookabove">
          14 callgsubr
          96 147 callsubr
          331 86 hintmask 11001000
          -92 callgsubr
          hintmask 00110000
          -266 248 -107 callgsubr
        </CharString>
        <CharString name="Ytilde">
          14 callgsubr
          53 45 3 45 hstemhm
          331 86 hintmask 11001000
          -92 callgsubr
          hintmask 00110000
          -196 162 -106 callgsubr
        </CharString>
        <CharString name="Z">
          90 callsubr
          hstem
          56 504 vstem
          -74 callgsubr
          endchar
        </CharString>
        <CharString name="Zacute">
          90 callsubr
          84 134 callsubr
          504 hintmask 11001000
          -74 callgsubr
          hintmask 00110000
          -100 867 -101 callsubr
        </CharString>
        <CharString name="Zcaron">
          90 callsubr
          115 callsubr
          56 504 hintmask 11001000
          -74 callgsubr
          hintmask 00110000
          -86 853 -58 callsubr
        </CharString>
        <CharString name="Zdotaccent">
          90 callsubr
          75 106 hstemhm
          56 504 -308 107 hintmask 11010000
          -74 callgsubr
          hintmask 00101000
          -184 811 -99 callsubr
        </CharString>
        <CharString name="Zdotbelow">
          611 66 callsubr
          34 618 31 hstemhm
          56 504 -308 107 hintmask 01110000
          -74 callgsubr
          hintmask 10001000
          -184 -147 -99 callsubr
        </CharString>
        <CharString name="Zeta">
          90 callsubr
          hstem
          56 504 vstem
          -74 callgsubr
          endchar
        </CharString>
        <CharString name="a">
          -45 callsubr
          hstemhm
          32 77 207 69 73 25 hintmask 01111110
          -106 callsubr
          hintmask 10000000
          -51 callsubr
          hintmask 01000010
          -66 callgsubr
          hintmask 10001100
          -70 callgsubr
          endchar
        </CharString>
        <CharString name="aacute">
          -45 callsubr
          83 -21 188 -103 callsubr
          hintmask 0000110000000000
          58 422 -89 callsubr
        </CharString>
        <CharString name="abreve">
          -45 callsubr
          70 38 134 -103 callsubr
          hintmask 0000110000000000
          45 callgsubr
          endchar
        </CharString>
        <CharString name="abreveacute">
          -45 callsubr
          70 38 317 -103 callsubr
          hintmask 0000110000000000
          45 callgsubr
          -47 141 -101 callsubr
        </CharString>
        <CharString name="abrevedotbelow">
          66 callgsubr
          70 148 callgsubr
          32 77 87 107 13 69 73 25 hintmask 0011100101100000
          -106 callsubr
          hintmask 0100000000000000
          -51 callsubr
          hintmask 0010000000100000
          -66 callgsubr
          hintmask 0100011101000000
          -70 callgsubr
          45 callgsubr
          hintmask 1000000010000000
          -97 -837 -99 callsubr
        </CharString>
        <CharString name="abrevegrave">
          -45 callsubr
          70 38 134 -103 callsubr
          hintmask 0000110000000000
          45 callgsubr
          -46 41 rmoveto
          -14 -21 -170 94 -11 5 -9 10 -2 12 rlinecurve
          22 -4 17 20 22 hhcurveto
          12 10 -8 -4 4 hvcurveto
          endchar
        </CharString>
        <CharString name="abrevehookabove">
          -45 callsubr
          70 38 343 -103 callsubr
          hintmask 0000110000000000
          45 callgsubr
          -52 142 -107 callgsubr
        </CharString>
        <CharString name="abrevetilde">
          -45 callsubr
          70 38 174 45 3 45 hstemhm
          32 77 207 69 73 25 hintmask 0111000111000000
          -106 callsubr
          hintmask 1000000000000000
          -51 callsubr
          hintmask 0100000001000000
          -66 callgsubr
          hintmask 1000000110000000
          -70 callgsubr
          hintmask 0000111000000000
          45 callgsubr
          17 118 -106 callgsubr
        </CharString>
        <CharString name="acaron">
          -45 callsubr
          89 -21 176 -103 callsubr
          hintmask 0000110000000000
          86 438 -55 callsubr
        </CharString>
        <CharString name="acircumflex">
          -45 callsubr
          89 -21 176 -103 callsubr
          hintmask 0000110000000000
          86 290 -67 callgsubr
          endchar
        </CharString>
        <CharString name="acircumflexacute">
          -45 callsubr
          89 -21 316 -103 callsubr
          hintmask 0000111000000000
          79 callsubr
          -36 274 -101 callsubr
        </CharString>
        <CharString name="acircumflexdotbelow">
          66 callgsubr
          89 -21 176 -20 hstemhm
          32 77 87 107 13 69 73 25 hintmask 0011100101100000
          -106 callsubr
          hintmask 0100000000000000
          -51 callsubr
          hintmask 0010000000100000
          -66 callgsubr
          hintmask 0100011101000000
          -70 callgsubr
          86 290 -67 callgsubr
          hintmask 1000000010000000
          -86 -663 -99 callsubr
        </CharString>
        <CharString name="acircumflexgrave">
          -45 callsubr
          89 -21 133 -103 callsubr
          hintmask 0000111000000000
          85 292 -69 callsubr
        </CharString>
        <CharString name="acircumflexhookabove">
          -45 callsubr
          89 -21 342 -103 callsubr
          hintmask 0000111000000000
          79 callsubr
          55 275 -107 callgsubr
        </CharString>
        <CharString name="acircumflextilde">
          -45 callsubr
          89 -21 173 45 3 45 hstemhm
          32 77 207 69 73 25 hintmask 0111000111000000
          -106 callsubr
          hintmask 1000000000000000
          -51 callsubr
          hintmask 0100000001000000
          -66 callgsubr
          hintmask 1000000110000000
          -70 callgsubr
          hintmask 0000111100000000
          79 callsubr
          28 251 -106 callgsubr
        </CharString>
        <CharString name="acute">
          500 531 56 callsubr
          hstem
          374 662 -89 callsubr
        </CharString>
        <CharString name="acute.cap">
          500 514 -21 163 -20 hstem
          387 614 -101 callsubr
        </CharString>
        <CharString name="acute.dup">
          500 531 56 callsubr
          hstem
          374 662 -89 callsubr
        </CharString>
        <CharString name="acute.ts1">
          122 callgsubr
          392 663 rmoveto
          19 -17 17 -19 vhcurveto
          hintmask 11000000
          -7 -1 -19 -3 -12 -23 -11 -14 rlinecurve
          -86 -111 rlineto
          -5 -6 -8 -7 -6 vvcurveto
          -6 12 -9 5 7 22 20 11 12 vhcurveto
          41 34 85 55 30 vvcurveto
          endchar
        </CharString>
        <CharString name="adblgrave">
          -45 callsubr
          84 -21 186 -103 callsubr
          hintmask 0000110000000000
          56 283 -95 callgsubr
        </CharString>
        <CharString name="adieresis">
          -45 callsubr
          109 95 hstemhm
          32 77 4 97 81 97 -72 69 73 25 hintmask 0111011011000000
          -106 callsubr
          hintmask 1000000000000000
          -51 callsubr
          hintmask 0100000001000000
          -66 callgsubr
          hintmask 1000010010000000
          -70 callgsubr
          hintmask 0000101100000000
          -106 365 -58 callgsubr
        </CharString>
        <CharString name="adotbelow">
          66 callgsubr
          hstemhm
          32 77 87 107 13 69 73 25 hintmask 0011110110000000
          -106 callsubr
          hintmask 0100000000000000
          -51 callsubr
          hintmask 0010000010000000
          -66 callgsubr
          hintmask 0100010100000000
          -70 callgsubr
          hintmask 1000001000000000
          -13 -387 -99 callsubr
        </CharString>
        <CharString name="ae">
          -52 callgsubr
        </CharString>
        <CharString name="ae.dup">
          -52 callgsubr
        </CharString>
        <CharString name="aeacute">
          722 -11 22 100 21 0 22 75 21 -19 21 36 93 45 22 54 callsubr
          45 77 41 57 118 57 232 66 hintmask 0100111000111000
          693 119 rmoveto
          10 -8 2 -5 -9 -1 -4 -16 -5 vhcurveto
          -50 -15 -46 -47 -62 hhcurveto
          -10 -137 0 217 hvcurveto
          273 147 callgsubr
          111 -58 85 -109 -44 -56 -16 -61 -51 hvcurveto
          48 -29 -60 29 -64 hhcurveto
          -80 -71 -46 -67 -30 20 -17 26 28 18 20 26 12 -5 33 -46 1 hvcurveto
          32 25 47 14 36 hhcurveto
          51 55 -41 -87 hvcurveto
          hintmask 1001000001001000
          -48 vlineto
          -162 -119 -62 -96 -79 92 -24 67 81 62 40 49 24 hvcurveto
          -81 59 78 -8 30 hhcurveto
          113 42 74 callsubr
          hintmask 1000101001001000
          -231 hlineto
          146 10 83 28 36 hhcurveto
          95 5 -135 -39 2 hvcurveto
          -289 -120 rmoveto
          -64 -57 -57 -72 -47 -40 34 47 vhcurveto
          hintmask 0011000000010000
          54 42 77 162 6 vhcurveto
          -24 0 -20 9 -31 vhcurveto
          3 -11 0 -8 -3 vvcurveto
          hintmask 0000000110000000
          147 530 -89 callsubr
        </CharString>
        <CharString name="agrave">
          -45 callsubr
          83 -21 188 -103 callsubr
          hintmask 0000110000000000
          -4 288 -63 callgsubr
        </CharString>
        <CharString name="ahookabove">
          -45 callsubr
          73 -21 209 -103 callsubr
          hintmask 0000110000000000
          31 402 -107 callgsubr
        </CharString>
        <CharString name="amacron">
          -45 callsubr
          141 31 hstemhm
          32 77 207 69 73 25 hintmask 01110111
          -106 callsubr
          hintmask 10000000
          -51 callsubr
          hintmask 01000001
          -66 callgsubr
          hintmask 10000110
          -70 callgsubr
          hintmask 00001000
          115 349 -30 callgsubr
        </CharString>
        <CharString name="ampersand">
          778 -22 31 289 31 71 31 -22 22 263 22 hstemhm
          42 83 38 63 5 25 105 25 310 25 hintmask 1110111011000000
          727 400 rmoveto
          31 vlineto
          -97 -3 rlineto
          -11 -84 1 2 -27 hvcurveto
          -31 vlineto
          46 25 -19 -25 -10 -5 -7 -1 -3 hvcurveto
          -55 -97 -45 -68 -43 -53 -13 15 -109 137 -44 115 rrcurveto
          54 60 68 76 66 vvcurveto
          46 -16 83 -71 -62 -74 -55 -106 -42 6 -72 35 -89 vhcurveto
          -91 -97 rlineto
          -45 -46 -26 -27 -54 vvcurveto
          -87 82 -63 99 85 59 43 33 37 vhcurveto
          -60 69 59 -16 48 hhcurveto
          76 63 57 86 2 hvcurveto
          -25 hlineto
          -79 -3 -64 -33 -45 hhcurveto
          -54 -52 51 38 -32 hvcurveto
          46 53 40 68 46 79 39 66 21 35 89 1 rrcurveto
          -366 188 rmoveto
          hintmask 1101111110000000
          -66 -81 -87 -24 -26 vhcurveto
          -27 80 -3 58 31 vvcurveto
          84 40 32 35 60 0 -106 0 vhcurveto
          24 -515 rmoveto
          -57 -64 -62 -7 -28 hhcurveto
          -83 -23 97 54 81 34 36 54 52 hvcurveto
          22 -47 15 -30 43 -62 19 -28 36 -52 37 -37 rrcurveto
          endchar
        </CharString>
        <CharString name="anglearc">
          778 -62 -21 666 -20 hstem
          557 40 vstem
          721 20 rmoveto
          9 -5 7 -8 3 vhcurveto
          -137 50 rlineto
          17 52 9 54 55 vvcurveto
          55 -9 54 -17 52 vhcurveto
          137 50 rlineto
          8 3 5 7 9 vvcurveto
          14 -14 10 -13 -5 vhcurveto
          -136 -50 -19 45 -25 43 -31 38 rlinecurve
          5 -4 -6 3 -6 hhcurveto
          -11 -9 -9 -11 -5 2 -4 2 -3 hvcurveto
          29 -36 23 -39 17 -41 -451 -166 rcurveline
          -8 -3 -5 -7 -9 vvcurveto
          -9 5 -7 8 -3 vhcurveto
          451 -166 -17 -41 -23 -39 -29 -36 rlinecurve
          -2 -3 -2 -4 -5 116 callsubr
          6 6 3 5 4 vhcurveto
          31 38 25 43 19 45 136 -50 rcurveline
          13 -5 14 10 14 vvcurveto
          -164 230 rmoveto
          -50 -8 -50 -15 -47 vhcurveto
          -400 147 400 147 rlineto
          15 -47 8 -50 -50 vvcurveto
          endchar
        </CharString>
        <CharString name="angleleft">
          389 -228 -21 1000 -20 hstem
          333 -229 rmoveto
          10 -7 12 -3 9 vhcurveto
          -4 11 -138 361 -20 52 rlineto
          -3 8 -5 9 8 vvcurveto
          4 2 4 1 4 vhcurveto
          8 20 116 304 17 45 19 45 15 45 rlinecurve
          1 2 0 3 3 vvcurveto
          11 -7 10 -11 vhcurveto
          0 -4 0 -2 -1 vhcurveto
          -15 -3 -6 -27 -5 -15 -138 -360 rcurveline
          -24 -63 rlineto
          -3 -10 -7 -11 -10 vvcurveto
          -9 6 -10 3 -8 vhcurveto
          161 -422 rlineto
          -19 6 7 -32 20 hhcurveto
          11 9 10 10 hvcurveto
          endchar
        </CharString>
        <CharString name="angleright">
          389 -228 -21 1000 -20 hstem
          278 251 rmoveto
          10 -6 10 -4 9 vhcurveto
          -160 422 rlineto
          8 -4 -8 41 -20 hhcurveto
          0 -4 0 -2 -1 vhcurveto
          -8 -2 -7 -8 -9 vvcurveto
          -2 vlineto
          1 -12 7 -12 5 -11 158 -416 rcurveline
          3 -8 6 -10 -9 vvcurveto
          -4 -2 -4 -1 -4 vhcurveto
          -8 -20 -164 -431 rlineto
          -2 -5 -3 -6 -6 116 callsubr
          vhcurveto
          2 hlineto
          12 1 5 12 4 10 8 21 rcurveline
          138 362 24 63 rlineto
          3 10 7 11 10 vvcurveto
          endchar
        </CharString>
        <CharString name="aogonek">
          125 callgsubr
          133 callgsubr
          hintmask 0011010110000000
          483 89 rmoveto
          56 -25 -56 vlineto
          -58 -25 -6 -11 -33 -4 45 5 vhcurveto
          200 vlineto
          42 0 39 -36 37 vhcurveto
          39 -39 -50 16 -48 hhcurveto
          -82 -69 -47 -66 -30 20 -17 26 28 18 20 26 12 -5 33 -46 1 hvcurveto
          35 27 49 11 32 hhcurveto
          49 57 -39 -89 hvcurveto
          -37 vlineto
          -51 -3 -70 -3 -63 -30 rrcurveto
          hintmask 1100101000000000
          -75 -34 -25 -52 -44 vvcurveto
          -51 callsubr
          2 -22 10 -23 16 -16 rrcurveto
          -49 -30 -51 -54 -52 -30 callsubr
          40 38 31 35 24 hvcurveto
          hintmask 0010000010000000
          -4 8 10 -2 11 hhcurveto
          21 61 14 81 hvcurveto
          -167 51 rmoveto
          hintmask 0100010100000000
          -70 callgsubr
          endchar
        </CharString>
        <CharString name="aogonekacute">
          125 callgsubr
          83 -21 188 -20 133 callgsubr
          hintmask 0011000101100000
          483 89 rmoveto
          56 -25 -56 vlineto
          -58 -25 -6 -11 -33 -4 45 5 vhcurveto
          200 vlineto
          42 0 39 -36 37 vhcurveto
          39 -39 -50 16 -48 hhcurveto
          -82 -69 -47 -66 -30 20 -17 26 28 18 20 26 12 -5 33 -46 1 hvcurveto
          35 27 49 11 32 hhcurveto
          49 57 -39 -89 hvcurveto
          -37 vlineto
          -51 -3 -70 -3 -63 -30 rrcurveto
          hintmask 1100001010000000
          -75 -34 -25 -52 -44 vvcurveto
          -51 callsubr
          2 -22 10 -23 16 -16 rrcurveto
          -49 -30 -51 -54 -52 -30 callsubr
          40 38 31 35 24 hvcurveto
          hintmask 0010000000100000
          -4 8 10 -2 11 hhcurveto
          21 61 14 81 hvcurveto
          -167 51 rmoveto
          hintmask 0100000101000000
          -70 callgsubr
          hintmask 0000110000000000
          58 422 -89 callsubr
        </CharString>
        <CharString name="aring">
          -45 callsubr
          81 121 callsubr
          hstemhm
          32 77 45 33 126 33 -30 69 73 25 hintmask 0111001001100000
          -106 callsubr
          hintmask 1000000000000000
          -51 callsubr
          hintmask 0100000000100000
          -66 callgsubr
          hintmask 1000001001000000
          -70 callgsubr
          hintmask 0000110110000000
          -3 377 -53 callgsubr
        </CharString>
        <CharString name="aringacute">
          -45 callsubr
          81 99 callsubr
          32 77 45 33 126 33 -30 69 73 25 hintmask 0111000010011000
          -106 callsubr
          hintmask 1000000000000000
          -51 callsubr
          hintmask 0100000000001000
          -66 callgsubr
          hintmask 1000000010010000
          -70 callgsubr
          hintmask 0000110101100000
          -3 377 -78 callsubr
          7 228 rmoveto
          22 4 -17 20 -22 hhcurveto
          hintmask 0000001000000000
          -12 -10 -8 -4 -4 hvcurveto
          -145 -130 14 -21 170 94 11 5 9 10 2 12 rlinecurve
          endchar
        </CharString>
        <CharString name="asciicircum">
          556 583 -21 123 59 hstem
          -5 566 vstem
          561 584 rmoveto
          -283 160 -283 -160 11 -22 271 123 272 -123 rlineto
          endchar
        </CharString>
        <CharString name="asciitilde">
          556 193 43 -25 43 -8 43 -25 43 hstemhm
          hintmask 10010000
          555 290 51 callsubr
          hintmask 01000000
          30 callgsubr
          hintmask 00100000
          20 10 20 11 17 14 rrcurveto
          endchar
        </CharString>
        <CharString name="asciitilde.low">
          556 0 43 -25 43 -8 43 -25 43 hstemhm
          0 555 hintmask 10010000
          555 97 51 callsubr
          hintmask 01001000
          30 callgsubr
          hintmask 00101000
          20 10 20 11 17 14 rrcurveto
          endchar
        </CharString>
        <CharString name="asterisk">
          500 340 -21 431 -20 hstem
          65 369 vstem
          434 441 rmoveto
          11 -4 8 -17 8 vhcurveto
          -141 66 139 66 rlineto
          19 9 4 7 12 vvcurveto
          13 -11 15 -16 -7 -2 0 -19 -26 vhcurveto
          -111 -82 15 170 rlineto
          15 -13 10 -13 -16 -11 -12 -13 vhcurveto
          15 -170 -124 90 rlineto
          11 -14 -2 0 -6 hhcurveto
          -16 -11 -15 -13 -11 4 -8 17 -8 hvcurveto
          141 -66 -139 -66 rlineto
          -19 -9 -4 -7 -12 vvcurveto
          0 0 -28 33 vhcurveto
          140 101 -15 -170 rlineto
          -15 13 -10 13 16 11 12 13 vhcurveto
          -15 170 130 -95 rlineto
          -3 5 3 -3 8 hhcurveto
          16 11 15 13 hvcurveto
          endchar
        </CharString>
        <CharString name="asterisk.math">
          500 57 -21 430 -20 hstemhm
          222 53 -38 197 hintmask 00010000
          434 158 rmoveto
          20 -22 7 -14 7 vhcurveto
          -39 18 -27 13 -29 18 -29 9 rlinecurve
          2 vlineto
          29 9 29 18 27 13 39 18 rcurveline
          14 7 22 7 20 vvcurveto
          15 -13 13 -15 -14 -12 -12 -8 -11 vhcurveto
          -107 -79 rlineto
          18 3 19 2 18 vhcurveto
          hintmask 01100000
          8 91 rlineto
          1 6 1 6 6 vvcurveto
          11 -8 18 -17 vhcurveto
          -2 hlineto
          -15 -13 -12 -16 hvcurveto
          hintmask 00010000
          -56 15 -54 -55 vvcurveto
          -107 79 rlineto
          8 -11 -12 12 -14 hhcurveto
          -16 -11 -14 -14 -21 20 -6 15 -7 hvcurveto
          39 -18 27 -13 29 -18 29 -9 rlinecurve
          -2 vlineto
          -29 -9 -29 -18 -27 -13 -39 -18 rcurveline
          -15 -7 -20 -6 -21 vvcurveto
          -14 11 -14 16 14 12 12 8 11 vhcurveto
          107 79 rlineto
          hintmask 10100000
          -54 -15 -57 -54 vvcurveto
          -16 13 -12 15 vhcurveto
          2 hlineto
          15 10 16 13 6 -1 6 -1 6 hvcurveto
          -8 91 rlineto
          -2 18 -3 19 18 vvcurveto
          107 -79 rlineto
          -8 11 12 -12 14 hhcurveto
          hintmask 00010000
          15 13 13 15 hvcurveto
          endchar
        </CharString>
        <CharString name="at">
          778 -11 22 117 22 331 -20 83 22 117 22 hstemhm
          56 25 108 69 247 69 -55 69 31 69 8 25 hintmask 1100110101100000
          721 338 rmoveto
          234 -171 133 -161 -183 -150 -159 -199 -188 138 -170 200 52 64 7 15 64 vhcurveto
          26 6 120 35 16 vvcurveto
          10 -7 0 -16 vhcurveto
          -9 hlineto
          -16 -2 0 -3 -5 hvcurveto
          -40 -85 -93 -24 -94 hhcurveto
          -182 -130 157 179 191 143 145 164 137 171 -110 -241 -92 -7 -90 -66 hvcurveto
          hintmask 0111001011100000
          -35 0 51 15 hvcurveto
          241 vlineto
          23 -1 1 -23 vhcurveto
          -17 hlineto
          -16 -1 1 7 -6 hvcurveto
          63 -46 -52 14 -39 hhcurveto
          -103 -95 -93 -126 -126 95 -93 103 54 48 29 42 30 hvcurveto
          -52 10 52 -19 38 hhcurveto
          88 14 103 107 hvcurveto
          -202 -76 rmoveto
          hintmask 0101001100000000
          -18 0 -4 -14 -21 vhcurveto
          -63 -44 -51 -6 -20 hhcurveto
          -72 -60 86 111 111 59 86 73 32 48 -16 -56 36 hvcurveto
          hintmask 0000000010000000
          13 -19 0 -3 -18 vvcurveto
          endchar
        </CharString>
        <CharString name="atilde">
          -45 callsubr
          110 45 3 45 -102 callgsubr
          hintmask 0000110000000000
          101 396 -106 callgsubr
        </CharString>
        <CharString name="b">
          556 -11 22 61 42 306 22 210 42 hstemhm
          106 66 -66 83 249 83 hintmask 10111010
          111 callsubr
          -98 99 -114 -78 -43 -47 -18 -16 vhcurveto
          317 vlineto
          -144 -82 callsubr
          -596 44 callsubr
          hintmask 01100110
          80 callsubr
          86 callsubr
        </CharString>
        <CharString name="backslash">
          500 63 callgsubr
          56 387 vstem
          443 -230 rmoveto
          0 0 5 -5 13 vhcurveto
          -340 940 rlineto
          11 -4 -4 11 -14 hhcurveto
          -11 -9 -9 -11 0 0 -5 5 -13 hvcurveto
          340 -940 rlineto
          -11 4 4 -11 14 hhcurveto
          11 9 9 11 hvcurveto
          endchar
        </CharString>
        <CharString name="baht">
          708 0 31 313 22 286 31 hstemhm
          139 83 109 97 -67 97 69 97 -73 100 hintmask 00100110
          651 183 rmoveto
          87 -82 75 -111 12 vhcurveto
          97 19 69 64 74 vvcurveto
          87 -92 82 -130 vhcurveto
          -41 30 hlineto
          9 -7 6 -8 vhcurveto
          hintmask 10111000
          -8 -7 -6 -9 hvcurveto
          -30 -295 -31 24 vlineto
          77 2 -11 -36 hvcurveto
          -527 vlineto
          -1 callsubr
          295 -30 hlineto
          -8 7 -7 8 vhcurveto
          hintmask 10000100
          8 7 7 8 hvcurveto
          30 vlineto
          hintmask 11001001
          67 hlineto
          133 90 89 94 hvcurveto
          -124 331 rmoveto
          -64 -49 -84 -111 vhcurveto
          hintmask 01110110
          -6 286 34 hlineto
          97 35 -85 -53 hvcurveto
          -196 -148 rmoveto
          -109 246 hlineto
          33 2 7 47 vhcurveto
          hintmask 11101000
          60 hlineto
          220 -468 rmoveto
          -71 -52 -82 -103 vhcurveto
          hintmask 11010101
          -35 313 49 hlineto
          99 42 -93 -67 hvcurveto
          -220 -153 rmoveto
          -60 hlineto
          -47 -2 7 33 hvcurveto
          273 vlineto
          hintmask 11001000
          109 hlineto
          endchar
        </CharString>
        <CharString name="bar">
          278 151 callgsubr
          vstem
          159 -217 rmoveto
          22 callsubr
          endchar
        </CharString>
        <CharString name="bigcircle">
          683 0 40 603 40 hstem
          0 40 603 40 vstem
          -62 callgsubr
          endchar
        </CharString>
        <CharString name="blanksymbol">
          556 -11 22 61 42 306 22 -7 22 28 42 21 42 45 22 -5 42 -33 22 hstemhm
          106 66 -66 83 54 66 129 83 hintmask 0010011011010000
          111 callsubr
          -98 99 -114 -78 -43 -47 -18 -16 vhcurveto
          171 vlineto
          92 87 rlineto
          3 3 1 4 4 vvcurveto
          9 -6 6 -9 -4 -3 -1 -3 -3 vhcurveto
          -71 -67 rlineto
          hintmask 0000000101000000
          104 vlineto
          hintmask 0000000010000000
          -144 -11 rlineto
          hintmask 1101100100101000
          -31 vlineto
          70 8 -7 -49 hvcurveto
          -69 vlineto
          -73 -70 rlineto
          -3 -3 -2 -4 -4 vvcurveto
          -8 7 -7 8 4 4 2 2 2 vhcurveto
          53 50 rlineto
          -485 44 callsubr
          80 callsubr
          hintmask 0010000000001000
          86 callsubr
        </CharString>
        <CharString name="braceleft">
          500 -229 -21 487 24 489 -20 hstem
          216 67 vstem
          427 -239 rmoveto
          10 -6 0 -10 1 vhcurveto
          -79 5 -37 45 -9 36 rrcurveto
          -3 11 0 2 35 vvcurveto
          150 vlineto
          30 0 51 -2 10 vhcurveto
          -13 66 -64 26 -39 11 rrcurveto
          118 34 0 71 28 vvcurveto
          180 vlineto
          72 0 22 24 25 vhcurveto
          18 18 23 24 70 4 rrcurveto
          5 1 4 4 6 vvcurveto
          11 -8 0 -12 -100 -89 -51 -72 -2 vhcurveto
          -183 vlineto
          -94 0 -16 -26 -28 vhcurveto
          -14 -14 -27 -27 -63 -4 rrcurveto
          -7 -7 -1 -10 -10 6 0 10 -1 hvcurveto
          43 -3 85 -21 -100 vvcurveto
          -198 vlineto
          -58 0 -34 52 -37 vhcurveto
          -30 43 65 -8 31 hhcurveto
          12 8 0 11 hvcurveto
          endchar
        </CharString>
        <CharString name="braceright">
          500 -229 -21 510 -21 511 -20 hstem
          216 67 vstem
          427 250 rmoveto
          10 -6 0 -10 1 vhcurveto
          -43 3 -85 21 100 vvcurveto
          198 vlineto
          58 0 34 -52 37 vhcurveto
          29 -43 -64 9 -32 hhcurveto
          -10 -10 0 -11 -10 6 0 10 -1 hvcurveto
          79 -5 37 -45 9 -36 rrcurveto
          3 -11 0 -2 -35 vvcurveto
          -150 vlineto
          -30 0 -51 2 -10 vhcurveto
          13 -66 64 -26 39 -11 rrcurveto
          -118 -34 0 -71 -28 vvcurveto
          -180 vlineto
          -72 0 -22 -24 -25 vhcurveto
          -18 -18 -23 -24 -70 -4 rrcurveto
          -5 -1 -4 -4 -6 vvcurveto
          -11 10 0 10 100 89 51 72 2 vhcurveto
          183 vlineto
          94 0 16 26 28 vhcurveto
          14 14 27 27 63 4 rrcurveto
          7 7 1 10 hvcurveto
          endchar
        </CharString>
        <CharString name="bracketleft">
          278 -250 40 920 40 hstem
          118 40 vstem
          255 -250 rmoveto
          40 -97 920 97 40 -137 -1000 vlineto
          endchar
        </CharString>
        <CharString name="bracketright">
          278 -250 40 920 40 hstem
          119 40 vstem
          159 -250 rmoveto
          1000 -137 -40 97 -920 -97 -40 vlineto
          endchar
        </CharString>
        <CharString name="breve">
          148 callsubr
          134 -20 hstem
          400 690 -98 callsubr
          endchar
        </CharString>
        <CharString name="breve.cap">
          500 493 149 callgsubr
          hstem
          400 665 -98 callsubr
          endchar
        </CharString>
        <CharString name="breve.ts1">
          611 522 38 135 -20 hstem
          100 22 366 22 vstem
          510 695 rmoveto
          -22 hlineto
          -92 -104 -43 -82 -82 -98 47 88 vhcurveto
          -22 hlineto
          -103 100 -70 104 95 111 57 116 vhcurveto
          endchar
        </CharString>
        <CharString name="brokenbar">
          278 151 callgsubr
          vstem
          159 343 rmoveto
          374 vlineto
          14 0 19 -20 -20 0 -19 -14 vhcurveto
          -374 vlineto
          -9 10 -6 10 10 10 6 9 vhcurveto
          -560 vmoveto
          374 vlineto
          9 -10 6 -10 -10 -10 -6 -9 vhcurveto
          -374 vlineto
          34 callgsubr
          endchar
        </CharString>
        <CharString name="bullet">
          778 87 288 hstem
          245 288 70 callgsubr
          endchar
        </CharString>
        <CharString name="c">
          33 callsubr
          hstem
          34 83 195 92 vstem
          -67 callsubr
          -128 99 -99 116 134 32 120 10 vhcurveto
          endchar
        </CharString>
        <CharString name="cacute">
          33 callsubr
          54 callsubr
          34 83 195 92 hintmask 11100110
          -67 callsubr
          -128 99 -99 116 134 32 120 10 vhcurveto
          hintmask 00011000
          -47 543 -89 callsubr
        </CharString>
        <CharString name="caron">
          500 89 callgsubr
          402 678 -55 callsubr
        </CharString>
        <CharString name="caron.cap">
          117 callgsubr
          133 -20 hstem
          401 600 -58 callsubr
        </CharString>
        <CharString name="caron.ts1">
          611 573 -21 153 -20 hstem
          492 684 rmoveto
          -13 21 -174 -100 -129 75 -45 25 -13 -21 187 -132 rlineto
          endchar
        </CharString>
        <CharString name="ccaron">
          33 callsubr
          89 -21 176 -20 hstemhm
          34 83 195 92 hintmask 11100110
          -67 callsubr
          -128 99 -99 116 134 32 120 10 vhcurveto
          hintmask 00011000
          -19 559 -55 callsubr
        </CharString>
        <CharString name="ccedilla">
          33 callsubr
          hstem
          34 83 195 92 vstem
          -67 callsubr
          -117 82 -92 102 -16 vhcurveto
          -83 -17 callsubr
          47 -54 20 -54 hvcurveto
          56 vlineto
          116 12 29 108 9 vvcurveto
          endchar
        </CharString>
        <CharString name="ccircumflex">
          33 callsubr
          89 -21 176 -20 hstemhm
          34 83 195 92 hintmask 11100110
          -67 callsubr
          -128 99 -99 116 134 32 120 10 vhcurveto
          hintmask 00011000
          -19 411 -67 callgsubr
          endchar
        </CharString>
        <CharString name="cdotaccent">
          33 callsubr
          103 106 hstemhm
          34 83 73 107 15 92 hintmask 11101010
          -67 callsubr
          -128 99 -99 116 134 32 120 10 vhcurveto
          hintmask 00010100
          -118 485 -99 callsubr
        </CharString>
        <CharString name="cedilla">
          14 callsubr
        </CharString>
        <CharString name="cedilla.dup">
          14 callsubr
        </CharString>
        <CharString name="cent">
          33 callsubr
          hstemhm
          34 83 112 30 53 92 -45 30 hintmask 11101010
          69 callgsubr
          -10 0 -3 -9 -2 -4 -6 -2 vhcurveto
          -92 -29 -63 -13 -38 hhcurveto
          409 vlineto
          20 -1 50 -5 30 -31 rrcurveto
          hintmask 11111100
          -41 -3 -6 -30 -13 vvcurveto
          -26 18 -20 28 26 20 17 30 66 -71 38 -74 3 vhcurveto
          13 vlineto
          8 -6 7 -9 -8 -7 -7 -8 vhcurveto
          -14 vlineto
          -113 -12 -82 -102 -117 vvcurveto
          -121 88 -95 107 -10 vhcurveto
          -20 vlineto
          -8 7 -7 8 9 6 7 8 vhcurveto
          19 vlineto
          126 6 30 114 10 vvcurveto
          -186 -101 rmoveto
          -51 13 -61 53 134 vvcurveto
          141 62 51 50 11 vhcurveto
          endchar
        </CharString>
        <CharString name="cent.oldstyle">
          155 callgsubr
          13 92 175 92 37 25 hstemhm
          34 83 61 83 -83 92 -71 92 -25 30 -30 92 -46 92 -45 30 hintmask 1110000100010000
          69 callgsubr
          -10 0 -3 -9 -2 -4 -6 -2 vhcurveto
          -93 -29 -65 -12 -37 hhcurveto
          -16 -18 4 9 -18 hvcurveto
          85 392 22 -4 27 -10 19 -19 rlinecurve
          hintmask 0000000000100000
          -41 -3 -6 -30 -13 vvcurveto
          hintmask 0010000001000000
          -26 18 -20 28 vhcurveto
          hintmask 0000000010100000
          26 20 17 30 54 -49 36 -59 12 hvcurveto
          3 14 rlineto
          10 2 -7 9 -9 hhcurveto
          hintmask 0000001000000000
          -8 -6 -5 -7 -1 hvcurveto
          hintmask 0001110001000000
          -4 -17 rlineto
          1 -5 -5 0 -5 hhcurveto
          -125 -92 -108 -124 -97 57 -81 79 -33 hvcurveto
          -7 -32 rlineto
          -9 -2 7 -9 10 hhcurveto
          7 6 5 7 1 hvcurveto
          hintmask 1101100100000000
          7 28 rlineto
          -4 16 17 -2 17 hhcurveto
          134 32 120 10 hvcurveto
          -154 304 rmoveto
          -82 -378 rlineto
          -34 29 -28 53 91 vvcurveto
          163 82 42 53 vhcurveto
          hintmask 0001010000000000
          endchar
        </CharString>
        <CharString name="centigrade">
          944 644 31 -31 40 -31 31 hstem
          277 103 cntrmask 11100000
          888 234 rmoveto
          11 -3 7 -9 -19 5 -39 -20 -4 vhcurveto
          -101 -21 -90 -82 -109 hhcurveto
          -71 -66 33 53 -47 hvcurveto
          -57 65 -17 89 85 vvcurveto
          68 7 71 31 61 vhcurveto
          80 41 86 60 91 hhcurveto
          124 81 -118 -108 13 hvcurveto
          -11 3 -6 -18 21 hhcurveto
          14 2 6 10 hvcurveto
          254 vlineto
          7 -1 9 -11 -15 -47 -79 -7 -3 vhcurveto
          -12 10 -11 13 -12 10 rrcurveto
          34 -42 -53 19 -54 hhcurveto
          -185 -165 -158 -205 -190 149 -174 201 135 112 103 138 13 hvcurveto
          1 5 0 4 5 vvcurveto
          -666 340 rmoveto
          59 -47 51 -66 vhcurveto
          -9 hlineto
          -58 -7 -41 -46 -58 vvcurveto
          -60 44 -51 68 vhcurveto
          9 hlineto
          58 7 42 47 58 vvcurveto
          -40 -1 rmoveto
          -38 -32 -33 -39 -35 -29 26 38 -7 vhcurveto
          7 vlineto
          37 32 34 38 36 29 -26 -38 7 vhcurveto
          endchar
        </CharString>
        <CharString name="circumflex">
          500 89 callgsubr
          402 530 -67 callgsubr
          endchar
        </CharString>
        <CharString name="circumflex.cap">
          117 callgsubr
          133 -20 hstem
          401 499 -52 callsubr
        </CharString>
        <CharString name="circumflex.dup">
          500 89 callgsubr
          402 530 -67 callgsubr
          endchar
        </CharString>
        <CharString name="colon">
          278 0 106 219 144 callgsubr
          378 -29 callsubr
          -325 vmoveto
          43 callsubr
        </CharString>
        <CharString name="colonmonetary">
          62 callsubr
          hstem
          56 103 223 30 223 30 vstem
          665 233 rmoveto
          10 0 7 -13 -11 0 -6 -10 -1 vhcurveto
          -143 -8 -107 -82 -109 hhcurveto
          -4 665 3 hlineto
          109 89 -91 -146 20 hvcurveto
          -75 callgsubr
          -36 35 -49 48 -91 3 rlinecurve
          8 vlineto
          9 -6 6 -9 -8 -7 -6 -9 vhcurveto
          -9 vlineto
          -177 -11 -149 -155 -196 vvcurveto
          -199 150 -153 176 -11 vhcurveto
          -9 vlineto
          -8 7 -7 8 9 6 7 8 vhcurveto
          8 vlineto
          158 5 95 136 114 vvcurveto
          -283 -221 rmoveto
          -79 12 -144 62 255 vvcurveto
          257 144 61 79 12 vhcurveto
          endchar
        </CharString>
        <CharString name="comma">
          278 -172 -21 193 106 hstem
          181 22 vstem
          203 1 rmoveto
          64 -24 41 -40 -35 -18 -27 -26 -26 17 -27 36 15 14 6 10 11 vhcurveto
          2 -79 -28 -61 -44 -47 rrcurveto
          -6 -6 -1 -1 -4 vvcurveto
          -7 5 -4 5 12 79 79 115 vhcurveto
          endchar
        </CharString>
        <CharString name="copyleft">
          683 0 40 455 40 108 40 hstem
          0 40 603 40 vstem
          -62 callgsubr
          -114 hmoveto
          112 -88 88 -103 -53 -28 -28 -19 -21 vhcurveto
          -27 40 rlineto
          7 -5 -2 0 -2 hhcurveto
          -6 0 -4 -9 hvcurveto
          -131 vlineto
          -11 0 -2 9 7 0 2 7 1 vhcurveto
          81 12 49 50 60 hhcurveto
          33 108 -19 -165 -164 -108 -19 -34 -60 -59 46 78 -4 hvcurveto
          6 -1 0 3 -6 hhcurveto
          -7 0 -4 -5 -64 54 -77 90 102 89 87 114 hvcurveto
          endchar
        </CharString>
        <CharString name="copyright">
          683 0 40 455 40 108 40 hstem
          0 40 603 40 vstem
          -62 callgsubr
          -154 -60 rmoveto
          5 0 4 -7 -6 0 -3 -6 vhcurveto
          -78 -5 -59 -45 -60 hhcurveto
          -33 -108 18 164 165 107 19 34 60 49 -50 -81 11 hvcurveto
          -7 1 0 -2 8 hhcurveto
          8 0 2 11 hvcurveto
          131 vlineto
          9 0 4 -6 -2 -2 0 -7 -4 vhcurveto
          -28 -40 rlineto
          19 -20 -29 28 -52 hhcurveto
          -103 -89 -88 -112 -114 89 -87 103 89 54 77 64 hvcurveto
          endchar
        </CharString>
        <CharString name="copyright.alt">
          659 -114 40 579 40 hstem
          0 40 420 40 119 40 vstem
          659 215 rmoveto
          202 -127 128 -203 -202 -127 -128 -202 -202 127 -127 202 203 127 127 202 vhcurveto
          -40 hmoveto
          -177 -112 -112 -178 -177 -112 112 177 178 112 112 177 178 112 -112 -178 vhcurveto
          -111 -68 rmoveto
          6 0 5 -8 -7 0 -4 -7 -1 vhcurveto
          -90 -5 -67 -51 -69 hhcurveto
          -38 -124 21 188 188 123 22 39 68 56 -58 -92 13 hvcurveto
          -8 1 0 -2 9 hhcurveto
          10 0 2 13 hvcurveto
          149 vlineto
          11 0 4 -7 -2 -3 0 -7 -5 vhcurveto
          -31 -47 rlineto
          23 -24 -32 31 -60 hhcurveto
          -118 -102 -100 -129 -130 102 -99 118 102 62 88 73 hvcurveto
          endchar
        </CharString>
        <CharString name="currency">
          778 54 40 312 40 0 40 hstemhm
          153 40 0 40 311 40 0 40 hintmask 10110010
          624 15 rmoveto
          14 14 -13 13 -10 10 -74 75 rcurveline
          27 33 16 43 47 vvcurveto
          47 -16 43 -28 34 vhcurveto
          74 74 10 10 14 13 -14 14 rlinecurve
          -15 14 -13 -13 -10 -10 -74 -74 rcurveline
          27 -34 -42 17 -47 hhcurveto
          -47 -43 -17 -27 -33 hvcurveto
          -75 75 -10 10 -13 13 -15 -14 rlinecurve
          -14 -14 14 -14 10 -10 74 -74 rcurveline
          -27 -34 -17 -43 -47 vvcurveto
          -47 17 -43 27 -33 vhcurveto
          -74 -75 -10 -10 -14 -13 14 -14 rlinecurve
          15 -14 13 13 10 10 74 74 rcurveline
          -27 34 43 -17 47 hhcurveto
          47 43 17 27 33 hvcurveto
          75 -74 10 -10 13 -13 14 14 rlinecurve
          -80 235 rmoveto
          -86 -69 -70 -86 vhcurveto
          hintmask 01001100
          -86 -70 70 86 86 70 70 86 86 69 -70 -86 hvcurveto
          endchar
        </CharString>
        <CharString name="cwm">
          0 endchar
        </CharString>
        <CharString name="cwmascender">
          0 endchar
        </CharString>
        <CharString name="cwmcapital">
          0 endchar
        </CharString>
        <CharString name="d">
          556 -11 104 callsubr
          266 66 hintmask 01100101
          45 callsubr
          hintmask 10011011
          -20 callgsubr
          hintmask 01000000
          62 callgsubr
          hintmask 10110010
          -40 callsubr
          endchar
        </CharString>
        <CharString name="dagger">
          444 -195 -21 613 67 241 -20 hstem
          164 67 -43 67 -43 67 cntrmask 00011100
          387 430 92 callsubr
          20 1 28 11 65 rrcurveto
          5 37 6 37 37 vvcurveto
          8 0 33 -33 -34 0 -32 -9 -35 9 -58 4 -24 vhcurveto
          7 -46 3 -32 1 -29 44 callgsubr
          -2 -25 -3 -20 -5 -25 rrcurveto
          -14 -72 0 -8 -53 vvcurveto
          -151 11 -168 9 -95 vhcurveto
          -14 1 1 -6 11 hhcurveto
          12 0 5 13 2 hvcurveto
          6 50 3 53 2 51 rrcurveto
          4 63 5 103 96 vvcurveto
          54 0 7 -14 71 vhcurveto
          -5 23 -3 21 -2 27 93 callgsubr
          endchar
        </CharString>
        <CharString name="daggerdbl">
          444 -184 -21 194 66 389 67 194 -20 hstem
          164 67 -43 67 -43 67 cntrmask 00001110
          387 477 92 callsubr
          30 7 34 3 14 rrcurveto
          6 33 7 40 28 vvcurveto
          7 0 32 -34 -10 -23 -3 -36 -20 4 -29 7 -35 vhcurveto
          7 -41 5 -28 1 -26 44 callgsubr
          -1 -30 -7 -34 -3 -14 rrcurveto
          -6 -33 -7 -40 -28 vvcurveto
          -35 22 -4 11 30 4 25 14 20 -4 29 -7 35 vhcurveto
          -7 41 -5 28 -1 26 93 callgsubr
          -455 vmoveto
          17 -12 16 -21 -20 -17 -3 -8 -31 vhcurveto
          -26 -8 -7 -2 -22 -2 2 28 4 24 7 42 rrcurveto
          11 56 0 23 5 vvcurveto
          35 -22 4 -11 -30 -4 -25 -14 -29 8 -43 6 -34 vhcurveto
          3 -11 5 -31 2 -30 -23 2 -3 1 -40 11 rrcurveto
          9 -32 -17 0 -7 hhcurveto
          -25 -9 -20 -13 -15 10 -18 24 24 24 6 4 11 hvcurveto
          39 10 7 1 17 2 -2 -28 -4 -24 -7 -42 rrcurveto
          -11 -56 0 -23 -5 vvcurveto
          -35 22 -4 11 30 4 25 14 29 -8 43 -6 34 vhcurveto
          -3 11 -5 31 -2 30 23 -2 3 -1 40 -11 rrcurveto
          -9 33 18 0 5 hhcurveto
          24 10 18 15 hvcurveto
          endchar
        </CharString>
        <CharString name="dblbracketleft">
          403 -249 40 920 40 hstem
          118 40 84 40 vstem
          380 -249 rmoveto
          40 -98 920 98 40 -262 -1000 vlineto
          124 40 rmoveto
          -84 920 84 hlineto
          endchar
        </CharString>
        <CharString name="dblbracketright">
          403 -249 40 920 40 hstem
          120 40 84 40 vstem
          284 -249 rmoveto
          1000 -261 -40 97 -920 -97 -40 vlineto
          221 40 rmoveto
          -84 920 84 hlineto
          endchar
        </CharString>
        <CharString name="dblgrave.ts1">
          500 536 -21 185 -20 hstem
          205 525 rmoveto
          31 callsubr
          166 hmoveto
          31 callsubr
          endchar
        </CharString>
        <CharString name="dblverticalbar">
          398 151 callgsubr
          80 40 vstem
          159 -217 rmoveto
          22 callsubr
          120 hmoveto
          22 callsubr
          endchar
        </CharString>
        <CharString name="dcaron">
          88 callsubr
          49 -21 145 79 -42 31 -31 42 hstemhm
          34 83 266 66 hintmask 0110000101000000
          45 callsubr
          hintmask 1001001011000000
          -20 callgsubr
          hintmask 0100000000000000
          62 callgsubr
          hintmask 1011000110000000
          -40 callsubr
          194 292 rmoveto
          48 -18 31 -30 -26 -14 -20 -20 vhcurveto
          hintmask 0000110000000000
          -19 13 -20 27 11 11 4 8 8 vhcurveto
          1 -60 -21 -45 -33 -36 rrcurveto
          -4 -4 -1 -1 -3 vvcurveto
          -5 4 -3 4 9 59 59 86 vhcurveto
          endchar
        </CharString>
        <CharString name="dcroat">
          88 callsubr
          91 30 89 31 -31 42 hstemhm
          34 83 105 83 78 66 hintmask 0110101001000000
          527 73 callgsubr
          446 78 30 -78 131 vlineto
          hintmask 1001110111000000
          -144 -82 callsubr
          -33 -161 -30 161 -153 vlineto
          36 -29 -43 26 -54 hhcurveto
          -118 -105 -98 -129 -127 98 -99 114 64 45 34 32 25 hvcurveto
          -66 vlineto
          hintmask 0100000000000000
          62 callgsubr
          hintmask 1011000100000000
          -40 callsubr
          endchar
        </CharString>
        <CharString name="ddotbelow">
          556 136 callsubr
          104 callsubr
          107 107 52 66 hintmask 0011001001000000
          45 callsubr
          hintmask 0100110101000000
          -20 callgsubr
          hintmask 0010000000000000
          62 callgsubr
          hintmask 0101100100000000
          -40 callsubr
          hintmask 1000000010000000
          -49 -470 -99 callsubr
        </CharString>
        <CharString name="degree">
          375 406 40 197 40 hstem
          49 40 197 40 vstem
          326 544 rmoveto
          77 -62 62 -76 -77 -62 -62 -77 -76 62 -62 77 76 62 62 76 vhcurveto
          -40 hmoveto
          -54 -44 -44 -54 -55 -44 44 54 55 44 44 55 54 44 -44 -55 vhcurveto
          endchar
        </CharString>
        <CharString name="diameter">
          778 -61 40 542 40 hstem
          78 40 542 40 vstem
          721 563 rmoveto
          11 -9 9 -11 -6 -5 -2 -4 -3 vhcurveto
          -93 -93 rlineto
          48 -55 -72 29 -78 hhcurveto
          -172 -139 -139 -172 -79 29 -71 48 -55 hvcurveto
          -93 -94 rlineto
          -4 -3 -2 -5 -6 116 callsubr
          6 5 2 4 3 vhcurveto
          94 93 rlineto
          -48 54 72 -29 79 hhcurveto
          172 139 139 172 79 -29 72 -49 55 hvcurveto
          93 93 rlineto
          4 3 2 5 6 vvcurveto
          -61 -313 rmoveto
          -150 -121 -121 -150 -68 -62 25 41 -47 vhcurveto
          382 382 rlineto
          41 -47 25 -62 -68 vvcurveto
          -94 206 rmoveto
          -382 -383 rlineto
          -41 48 -25 61 68 vvcurveto
          150 121 121 150 67 62 -25 -40 48 vhcurveto
          endchar
        </CharString>
        <CharString name="died">
          500 -17 37 -24 -21 369 37 -34 37 219 -20 hstemhm
          215 67 -54 43 -41 43 hintmask 00010000
          455 359 rmoveto
          11 vlineto
          10 -2 7 -13 -16 -17 -2 -1 -16 vhcurveto
          hintmask 00100010
          -120 -3 rlineto
          hintmask 00000100
          62 3 62 8 62 vhcurveto
          1 6 2 7 7 vvcurveto
          hintmask 00001001
          9 -4 6 -8 1 vhcurveto
          -44 hlineto
          hintmask 00000100
          -8 -6 -4 -9 hvcurveto
          -8 vlineto
          hintmask 00100010
          10 -66 3 -68 -67 vvcurveto
          -46 -46 4 -45 hhcurveto
          -10 -10 1 1 -10 hvcurveto
          -10 -7 -2 -17 hvcurveto
          -8 vlineto
          -8 1 -9 9 -2 vhcurveto
          3 hlineto
          17 17 2 1 17 hvcurveto
          hintmask 00010010
          120 3 rlineto
          hintmask 00000100
          -114 -3 -118 -10 -114 vhcurveto
          -3 -1 -5 -4 vvcurveto
          hintmask 01000001
          -10 6 -4 10 vhcurveto
          43 hlineto
          hintmask 10000100
          5 1 4 2 2 5 rrcurveto
          12 vlineto
          8 -1 9 -1 8 vhcurveto
          hintmask 00010010
          -9 108 -2 111 108 vvcurveto
          46 46 -4 45 hhcurveto
          10 10 -1 -1 10 hvcurveto
          10 7 2 16 hvcurveto
          endchar
        </CharString>
        <CharString name="dieresis">
          500 557 95 hstem
          113 97 81 97 vstem
          -40 callgsubr
          endchar
        </CharString>
        <CharString name="dieresis.cap">
          500 483 95 hstem
          97 97 113 97 vstem
          -5 callgsubr
          endchar
        </CharString>
        <CharString name="dieresis.dup">
          500 557 95 hstem
          113 97 81 97 vstem
          -40 callgsubr
          endchar
        </CharString>
        <CharString name="dieresis.ts1">
          500 570 100 hstem
          202 620 rmoveto
          139 callsubr
          -4 -18 -20 -25 154 callgsubr
          194 hmoveto
          139 callsubr
          -3 -18 -22 -24 154 callgsubr
          endchar
        </CharString>
        <CharString name="discount">
          500 22 -21 750 -20 hstemhm
          86 124 79 124 -112 124 hintmask 11101000
          444 730 rmoveto
          11 -8 10 -11 vhcurveto
          0 -4 0 -2 -1 vhcurveto
          -9 -2 -4 -8 -3 -7 -10 -19 rcurveline
          -311 -633 rlineto
          -8 -17 -18 -26 -16 vvcurveto
          -11 7 -10 13 vhcurveto
          1 hlineto
          11 1 4 9 5 9 70 143 rcurveline
          134 272 57 117 66 134 rlineto
          7 13 13 20 11 vvcurveto
          -234 -53 rmoveto
          -34 -29 -27 -34 -37 -24 33 30 31 24 25 30 4 vhcurveto
          152 callgsubr
          203 -604 rmoveto
          -34 -29 -27 -34 vhcurveto
          hintmask 00010000
          -37 -24 33 30 31 24 25 30 4 hvcurveto
          152 callgsubr
          endchar
        </CharString>
        <CharString name="divide">
          778 40 106 84 40 84 106 hstem
          336 106 cntrmask 11100000
          721 250 15 callsubr
          -279 157 -29 callsubr
          -314 vmoveto
          43 callsubr
        </CharString>
        <CharString name="divorced">
          500 -83 -21 139 47 337 47 -47 48 139 -20 hstemhm
          -189 46 272 32 56 66 -61 46 -42 46 -44 44 0 66 0 32 272 46 hintmask 0001000000000000
          688 252 rmoveto
          98 -66 117 -110 vhcurveto
          hintmask 0110000000010100
          -5 -4 -1 -5 hhcurveto
          -102 -12 -58 -105 -99 vvcurveto
          -100 66 -115 105 112 67 114 103 vhcurveto
          -527 hmoveto
          hintmask 0001000000000000
          100 -66 115 -105 vhcurveto
          hintmask 0110011100000000
          -4 -5 -1 -4 hhcurveto
          -105 -13 -61 -99 -103 vvcurveto
          -98 65 -118 111 112 62 119 98 vhcurveto
          124 -336 rmoveto
          8 -1 8 -1 7 vhcurveto
          hintmask 0000000000100000
          -8 84 -1 84 -2 84 rrcurveto
          44 vlineto
          -1 97 rlineto
          hintmask 0000100100000000
          82 5 84 7 82 vhcurveto
          1 4 1 4 4 vvcurveto
          9 -5 4 -7 1 vhcurveto
          -42 hlineto
          hintmask 0000000010000000
          -3 -3 0 -1 -3 hvcurveto
          -4 -2 -3 -3 -5 vvcurveto
          -6 vlineto
          hintmask 0000000100000000
          -9 1 -9 1 -8 vhcurveto
          hintmask 0000000000100000
          7 -77 4 -76 -77 vvcurveto
          -5 -269 rlineto
          -3 -49 -5 -49 -49 vvcurveto
          -13 vlineto
          hintmask 1000000001000000
          2 -5 4 -2 5 -1 rrcurveto
          hintmask 1110011010001100
          42 hlineto
          12 5 3 17 hvcurveto
          -156 339 rmoveto
          -4 0 -4 -1 -4 vhcurveto
          -72 -6 -33 -89 -100 hhcurveto
          -90 -42 87 81 73 32 96 100 88 52 -82 -82 hvcurveto
          513 -5 rmoveto
          -74 -35 -94 -97 -87 -45 76 86 -8 vhcurveto
          7 vlineto
          80 49 88 91 79 53 -71 -98 vhcurveto
          endchar
        </CharString>
        <CharString name="dlinebelow">
          556 -162 31 120 104 callsubr
          266 66 hintmask 0011001010000000
          45 callsubr
          hintmask 0100110110000000
          -20 callgsubr
          hintmask 0010000000000000
          62 callgsubr
          hintmask 0101100100000000
          -40 callsubr
          hintmask 1000000000000000
          79 -485 -30 callgsubr
        </CharString>
        <CharString name="dollar">
          500 -35 -21 46 31 116 92 82 92 -84 92 68 92 102 31 46 -20 hstemhm
          56 51 127 31 127 51 cntrmask 0000000011100000
          hintmask 0001011111100000
          443 195 rmoveto
          83 -45 51 -9 9 vhcurveto
          -40 44 -36 9 -48 12 rrcurveto
          270 vlineto
          85 -4 48 -44 15 -56 rrcurveto
          1 -4 -2 1 -10 hhcurveto
          -26 -20 -18 -28 -31 25 -15 21 3 43 1 49 97 -66 73 -112 6 hvcurveto
          45 -31 -46 vlineto
          -111 -10 -67 -90 -91 vvcurveto
          -69 37 -48 18 -17 vhcurveto
          hintmask 1110100011100000
          38 -39 34 -8 51 -13 rrcurveto
          -298 vlineto
          -88 5 -47 51 -13 62 rrcurveto
          -1 4 8 -1 4 hhcurveto
          27 19 19 27 28 -21 18 -25 -6 -40 -2 -49 -89 53 -92 125 -8 hvcurveto
          -45 31 46 vlineto
          105 9 73 93 103 vvcurveto
          -51 -30 rmoveto
          -67 -48 -67 -79 -10 vhcurveto
          hintmask 0001001011100000
          290 vlineto
          120 -25 7 -97 -24 vvcurveto
          -158 246 rmoveto
          -123 26 -4 86 20 vvcurveto
          60 47 62 80 8 vhcurveto
          hintmask 0000100011100000
          endchar
        </CharString>
        <CharString name="dollar.oldstyle">
          610 -34 -21 45 31 -29 31 -31 32 -28 31 111 91 -64 32 0 32 78 91 -72 92 -84 91 55 92 -58 32 124 31 -28 32 -31 31 -30 32 44 -20 hstemhm
          463 51 -51 92 -51 51 cntrmask 000000000000000000111000
          hintmask 000000000001010001111000
          555 197 rmoveto
          3 vlineto
          -1 91 -76 65 -79 28 rrcurveto
          -14 5 -9 2 0 vvcurveto
          279 vlineto
          64 -10 55 -22 29 -68 rrcurveto
          1 -5 -5 1 -5 hhcurveto
          -26 -20 -19 -27 -28 21 -18 30 hvcurveto
          32 6 9 20 25 vvcurveto
          106 -92 57 -87 7 vhcurveto
          50 -31 vlineto
          hintmask 000000000000000100111000
          -46 vlineto
          hintmask 000000000000000010111000
          0 -25 2 -16 vhcurveto
          hintmask 000000000000000101111000
          -15 -23 -2 0 hvcurveto
          46 -31 vlineto
          hintmask 100011000010110000111000
          -50 vlineto
          0 -23 -6 -13 -5 vhcurveto
          -81 -34 -63 -58 -84 vvcurveto
          -86 76 -65 80 -23 vhcurveto
          8 -2 8 -3 8 -1 rrcurveto
          -307 vlineto
          -67 10 -56 31 -27 72 rrcurveto
          -1 5 6 -1 5 hhcurveto
          24 22 17 28 27 -20 19 -25 -37 -10 -27 -26 -102 90 -72 90 -6 hvcurveto
          -51 31 vlineto
          hintmask 001000000000000000111000
          47 vlineto
          hintmask 010000000000000000111000
          -2 10 16 0 10 hhcurveto
          hintmask 101000010100001000111000
          17 10 1 1 16 hvcurveto
          -47 31 52 vlineto
          0 21 6 13 5 vhcurveto
          86 35 59 66 88 vvcurveto
          -210 201 rmoveto
          -79 20 rlineto
          255 vlineto
          hintmask 000000000000000010111000
          0 23 2 15 vhcurveto
          hintmask 000000001000100100111000
          41 -1 rlineto
          -110 -249 rmoveto
          -47 17 -45 13 -29 53 rrcurveto
          -5 12 -3 13 13 vvcurveto
          69 78 37 51 15 vhcurveto
          hintmask 010000100010000000111000
          269 -502 rmoveto
          -73 -67 -40 -61 -22 vhcurveto
          268 vlineto
          60 -17 68 -45 -71 vvcurveto
          -159 -141 rmoveto
          -2 -14 -14 -1 -16 hhcurveto
          hintmask 001000000100000000111000
          -16 -19 2 0 hvcurveto
          303 vlineto
          hintmask 000100001000000000111000
          79 -19 rlineto
          endchar
        </CharString>
        <CharString name="dong">
          556 -30 30 87 30 0 30 507 30 hstemhm
          hintmask 11010000
          501 35 rmoveto
          29 vlineto
          -67 -7 7 46 hvcurveto
          424 74 29 -74 124 vlineto
          -137 -10 rlineto
          -30 vlineto
          66 8 -7 -46 hvcurveto
          -31 -153 -29 153 -145 vlineto
          34 -28 -41 25 -51 hhcurveto
          -112 -100 -93 -123 -121 93 -94 109 60 43 33 30 24 hvcurveto
          -63 vlineto
          140 -39 rmoveto
          8 -7 7 -8 vhcurveto
          -439 hlineto
          -8 -7 -7 -8 -8 7 -7 8 hvcurveto
          439 hlineto
          8 7 7 8 hvcurveto
          -140 162 rmoveto
          -17 0 -2 -10 -16 vhcurveto
          -46 -29 -43 -21 -41 hhcurveto
          -42 -35 25 36 -22 hvcurveto
          -25 39 -3 54 39 vvcurveto
          35 2 57 28 43 vhcurveto
          29 20 36 32 51 hhcurveto
          33 40 -15 -42 30 hvcurveto
          10 -16 0 -2 -17 vvcurveto
          hintmask 00100000
          endchar
        </CharString>
        <CharString name="dotaccent">
          278 551 113 callsubr
          604 -99 callsubr
        </CharString>
        <CharString name="dotaccent.alt">
          278 504 113 callsubr
          557 -99 callsubr
        </CharString>
        <CharString name="dotaccent.cap">
          278 483 113 callsubr
          536 -99 callsubr
        </CharString>
        <CharString name="dotlessi">
          -4 callgsubr
          hstemhm
          111 66 hintmask 10110000
          -38 callsubr
          hintmask 11010000
          -80 callsubr
          endchar
        </CharString>
        <CharString name="dotlessj">
          35 callgsubr
          hstem
          -40 92 92 66 vstem
          210 -50 -65 callsubr
          endchar
        </CharString>
        <CharString name="e">
          -28 callsubr
          hstem
          28 83 238 66 vstem
          -104 callsubr
          endchar
        </CharString>
        <CharString name="eacute">
          -28 callsubr
          83 -21 188 -88 callsubr
          -3 410 -89 callsubr
        </CharString>
        <CharString name="ebreve">
          -28 callsubr
          70 38 134 -88 callsubr
          23 438 -98 callsubr
          endchar
        </CharString>
        <CharString name="ecaron">
          -28 callsubr
          89 -21 176 -88 callsubr
          25 426 -55 callsubr
        </CharString>
        <CharString name="ecircumflex">
          -28 callsubr
          89 -21 176 -88 callsubr
          25 278 -67 callgsubr
          endchar
        </CharString>
        <CharString name="ecircumflexacute">
          -28 callsubr
          89 -21 316 -88 callsubr
          81 callgsubr
          -36 274 -101 callsubr
        </CharString>
        <CharString name="ecircumflexdotbelow">
          444 136 callsubr
          25 217 21 174 22 89 -21 176 -20 146 callsubr
          hintmask 0111111010000000
          -104 callsubr
          25 278 -67 callgsubr
          hintmask 1000000100000000
          -86 -663 -99 callsubr
        </CharString>
        <CharString name="ecircumflexgrave">
          -28 callsubr
          89 -21 133 -88 callsubr
          24 280 -69 callsubr
        </CharString>
        <CharString name="ecircumflexhookabove">
          -28 callsubr
          89 -21 342 -88 callsubr
          81 callgsubr
          55 275 -107 callgsubr
        </CharString>
        <CharString name="ecircumflextilde">
          -28 callsubr
          89 -21 173 45 3 45 hstemhm
          28 83 238 66 hintmask 11100011
          -104 callsubr
          hintmask 00011100
          81 callgsubr
          28 251 -106 callgsubr
        </CharString>
        <CharString name="edblgrave">
          -28 callsubr
          84 -21 186 -88 callsubr
          -5 271 -95 callgsubr
        </CharString>
        <CharString name="edieresis">
          -28 callsubr
          109 95 hstemhm
          28 83 -26 97 81 97 -11 66 hintmask 11101001
          -104 callsubr
          hintmask 00010110
          -167 353 -58 callgsubr
        </CharString>
        <CharString name="edotaccent">
          -28 callsubr
          103 106 146 callsubr
          hintmask 11101010
          -104 callsubr
          hintmask 00010100
          -74 352 -99 callsubr
        </CharString>
        <CharString name="edotbelow">
          444 136 callsubr
          25 217 21 174 22 146 callsubr
          hintmask 01111010
          -104 callsubr
          hintmask 10000100
          -74 -399 -99 callsubr
        </CharString>
        <CharString name="egrave">
          -28 callsubr
          83 -21 188 -88 callsubr
          -65 276 -63 callgsubr
        </CharString>
        <CharString name="ehookabove">
          -28 callsubr
          73 -21 209 -88 callsubr
          -30 390 -107 callgsubr
        </CharString>
        <CharString name="eight">
          500 -22 28 635 25 hstem
          42 50 21 50 244 50 vstem
          457 -21 callgsubr
        </CharString>
        <CharString name="eight.oldstyle">
          563 -22 28 635 25 hstemhm
          74 131 callgsubr
          489 -26 callsubr
        </CharString>
        <CharString name="eight.prop">
          563 -22 28 635 25 hstem
          74 50 21 50 244 50 vstem
          489 -21 callgsubr
        </CharString>
        <CharString name="eight.taboldstyle">
          500 -22 28 635 25 hstemhm
          42 131 callgsubr
          457 -26 callsubr
        </CharString>
        <CharString name="ellipsis">
          670 0 106 hstem
          86 106 90 106 90 106 cntrmask 01110000
          192 53 -29 callsubr
          196 hmoveto
          -49 callsubr
          196 hmoveto
          43 callsubr
        </CharString>
        <CharString name="emacron">
          -28 callsubr
          141 31 hstemhm
          28 83 238 66 hintmask 11101100
          -104 callsubr
          hintmask 00010000
          54 337 -30 callgsubr
        </CharString>
        <CharString name="emdash">
          1000 255 22 hstem
          0 999 vstem
          999 255 rmoveto
          22 -999 -22 vlineto
          endchar
        </CharString>
        <CharString name="emdash.alt">
          667 256 22 hstem
          666 256 rmoveto
          22 -666 -22 vlineto
          endchar
        </CharString>
        <CharString name="endash">
          500 255 22 hstem
          0 499 vstem
          499 255 rmoveto
          22 -499 -22 vlineto
          endchar
        </CharString>
        <CharString name="eng">
          506 -216 70 146 114 callsubr
          hstemhm
          110 69 92 69 48 69 hintmask 00010010
          457 69 rmoveto
          183 vlineto
          86 0 31 -31 36 vhcurveto
          17 -14 -33 20 -58 hhcurveto
          -73 -47 -43 -62 -28 hvcurveto
          105 vlineto
          hintmask 01101000
          -76 callsubr
          hintmask 10010110
          104 71 56 64 63 11 -54 -57 vhcurveto
          -240 vlineto
          -98 0 -115 -48 -35 vhcurveto
          18 -1 -15 15 -18 hhcurveto
          -20 -15 -16 -19 -20 15 -15 20 118 33 147 138 hvcurveto
          endchar
        </CharString>
        <CharString name="eogonek">
          444 -211 47 153 25 217 21 174 22 127 callgsubr
          hintmask 0110100110000000
          69 callgsubr
          -8 2 -5 -9 -2 -6 -8 -2 vhcurveto
          -103 -35 -90 0 -10 hhcurveto
          -50 -40 30 37 -23 hvcurveto
          -30 48 0 66 36 vvcurveto
          279 hlineto
          hintmask 1111101001000000
          21 callsubr
          hintmask 1000010010000000
          103 callgsubr
          hintmask 0011000001000000
          87 23 33 85 16 vvcurveto
          -66 133 rmoveto
          -237 hlineto
          149 6 84 25 34 hhcurveto
          103 10 -135 -39 hvcurveto
          endchar
        </CharString>
        <CharString name="eogonekacute">
          444 -211 47 153 25 217 21 174 22 83 -21 188 -20 127 callgsubr
          hintmask 0110001001100000
          69 callgsubr
          -8 2 -5 -9 -2 -6 -8 -2 vhcurveto
          -103 -35 -90 0 -10 hhcurveto
          -50 -40 30 37 -23 hvcurveto
          -30 48 0 66 36 vvcurveto
          279 hlineto
          hintmask 1111001010010000
          21 callsubr
          hintmask 1000000100100000
          103 callgsubr
          hintmask 0011000000010000
          87 23 33 85 16 vvcurveto
          -66 133 rmoveto
          -237 hlineto
          149 6 84 25 34 hhcurveto
          103 10 -135 -39 hvcurveto
          hintmask 0000110000000000
          -3 410 -89 callsubr
        </CharString>
        <CharString name="equal">
          778 133 40 154 40 hstem
          56 665 vstem
          721 347 15 callsubr
          -194 vmoveto
          20 -19 0 -15 vhcurveto
          -597 hlineto
          -15 63 callsubr
          14 hvcurveto
          599 hlineto
          130 callgsubr
        </CharString>
        <CharString name="ereversed">
          -28 callsubr
          hstem
          28 66 238 83 vstem
          415 220 rmoveto
          125 -92 103 -116 -125 -54 -97 -99 -21 3 0 22 vhcurveto
          279 hlineto
          -36 0 -66 -30 -48 vhcurveto
          -37 -23 -40 -30 -50 hhcurveto
          -10 -90 0 103 -35 hvcurveto
          8 -2 -2 6 -9 hhcurveto
          -5 -8 -2 -10 -19 45 -111 122 115 105 97 134 hvcurveto
          -84 32 rmoveto
          -237 hlineto
          39 10 135 103 34 84 -25 -149 6 vhcurveto
          endchar
        </CharString>
        <CharString name="estimated">
          676 -10 25 330 21 312 23 hstem
          28 103 421 95 vstem
          647 121 rmoveto
          6 -7 5 -4 -15 -14 -36 -15 -15 vhcurveto
          -55 -57 -90 -11 -73 hhcurveto
          -90 -73 58 77 -40 hvcurveto
          -30 60 -8 69 66 vvcurveto
          500 hlineto
          14 2 7 12 92 -24 106 -69 65 hvcurveto
          50 -53 -71 24 -72 hhcurveto
          -188 -142 -164 -191 -171 118 -170 204 -15 hvcurveto
          14 hlineto
          97 125 17 96 53 hvcurveto
          3 5 5 7 6 vvcurveto
          -95 245 rmoveto
          -421 hlineto
          133 3 57 179 161 hhcurveto
          72 58 -43 -69 33 hvcurveto
          29 -62 8 -70 -68 vvcurveto
          endchar
        </CharString>
        <CharString name="eth">
          500 -11 25 411 22 hstem
          28 84 275 84 vstem
          471 238 rmoveto
          50 0 79 -58 100 vhcurveto
          -37 63 -52 52 -60 38 76 44 rcurveline
          -16 27 -91 -53 -48 26 -52 19 -53 12 rlinecurve
          -8 -26 43 -12 40 -19 36 -24 rlinecurve
          -73 -42 15 -27 86 50 71 -56 53 -76 25 -89 rlinecurve
          39 -26 -41 34 -54 hhcurveto
          -114 -105 -101 -133 -125 100 -99 122 70 54 34 27 28 hvcurveto
          69 68 0 69 51 vvcurveto
          -84 -24 rmoveto
          -193 -118 -7 -19 -42 -41 22 45 -27 vhcurveto
          -26 44 -2 59 38 vvcurveto
          45 3 55 30 45 vhcurveto
          43 30 42 15 32 hhcurveto
          75 63 -90 -121 hvcurveto
          endchar
        </CharString>
        <CharString name="etilde">
          -28 callsubr
          110 45 3 45 -90 callgsubr
          40 384 -106 callgsubr
        </CharString>
        <CharString name="eturned">
          -9 callsubr
        </CharString>
        <CharString name="exclam">
          278 0 106 hstem
          192 665 rmoveto
          33 -27 18 -26 -26 -27 -18 -33 vhcurveto
          39 -455 rlineto
          -15 1 1 -8 12 hhcurveto
          10 3 5 17 1 hvcurveto
          39 -156 rmoveto
          43 callsubr
        </CharString>
        <CharString name="exclamdown">
          278 -195 -21 529 -20 101 144 callgsubr
          447 -29 callsubr
          -612 vmoveto
          -1 11 -38 444 rlineto
          15 -1 -1 8 -12 hhcurveto
          -10 -3 -5 -17 -1 hvcurveto
          -39 -456 rlineto
          -33 27 -18 26 26 27 18 33 vhcurveto
          endchar
        </CharString>
        <CharString name="f">
          306 2 callsubr
          160 84 8 -14 callgsubr
          322 114 31 -117 116 vlineto
          88 48 48 44 3 15 0 -7 15 28 callgsubr
          endchar
        </CharString>
        <CharString name="f_f">
          583 2 callsubr
          252 22 hstem
          250 66 0 66 0 66 cntrmask 00011100
          628 635 rmoveto
          36 -35 34 -56 -59 -44 -38 -4 -5 vhcurveto
          37 -29 -56 5 -27 hhcurveto
          -95 -116 -52 -108 hvcurveto
          -114 -79 -31 79 -43 callgsubr
          210 -324 -48 callsubr
          322 115 31 -118 116 vlineto
          89 48 47 45 3 15 0 -7 15 28 callgsubr
          -235 29 rmoveto
          -16 -3 -20 -13 -28 vvcurveto
          -6 1 -25 27 -9 vhcurveto
          -3 -13 0 -9 -12 vvcurveto
          -115 -213 113 vlineto
          97 82 42 65 49 28 -19 0 vhcurveto
          endchar
        </CharString>
</ttFont>
